<svg xmlns="http://www.w3.org/2000/svg" width="158.945" height="78.67" viewBox="0 0 158.945 78.67">
  <g id="Group_1435" data-name="Group 1435" transform="translate(-100 -225.122)">
    <ellipse id="Ellipse_16" data-name="Ellipse 16" cx="70.5" cy="22.5" rx="70.5" ry="22.5" transform="translate(100 250)" fill="#4889ff" opacity="0.2"/>
    <path id="Union_10" data-name="Union 10" d="M7.044,26.616A14.281,14.281,0,0,1,0,14.355,14.526,14.526,0,0,1,14.69,0,14.526,14.526,0,0,1,29.381,14.355a14.259,14.259,0,0,1-6.526,11.936l-7.928,8.067Z" transform="translate(220.991 229.82)" fill="#fcfcfc"/>
    <path id="Union_11" data-name="Union 11" d="M7.044,26.616A14.281,14.281,0,0,1,0,14.355,14.526,14.526,0,0,1,14.69,0,14.526,14.526,0,0,1,29.381,14.355a14.259,14.259,0,0,1-6.526,11.936l-7.928,8.067Z" transform="translate(127.991 229.82)" fill="#fcfcfc"/>
    <path id="Union_12" data-name="Union 12" d="M7.044,26.616A14.281,14.281,0,0,1,0,14.355,14.526,14.526,0,0,1,14.69,0,14.526,14.526,0,0,1,29.381,14.355a14.259,14.259,0,0,1-6.526,11.936l-7.928,8.067Z" transform="translate(174.991 263.82)" fill="#fcfcfc"/>
    <path id="Path_653" data-name="Path 653" d="M467.543,781.036l-4.7-4.7,4.7-4.7a1.829,1.829,0,0,0-2.586-2.586l-4.7,4.7-4.7-4.7a1.829,1.829,0,1,0-2.586,2.586l4.7,4.7-4.7,4.7a1.829,1.829,0,1,0,2.586,2.586l4.7-4.7,4.7,4.7a1.829,1.829,0,0,0,2.586-2.586Z" transform="translate(-270.161 -498.867)" fill="#4889ff"/>
    <path id="Path_654" data-name="Path 654" d="M295.916,776.153l-9.051,8.864-3.96-3.981a1.876,1.876,0,0,0-2.653,2.653L285.538,789a1.878,1.878,0,0,0,2.653,0l10.378-10.191a1.876,1.876,0,0,0-2.653-2.653Zm0,0" transform="translate(-52.894 -537.142)" fill="#4889ff"/>
    <path id="Path_655" data-name="Path 655" d="M295.916,776.153l-9.051,8.864-3.96-3.981a1.876,1.876,0,0,0-2.653,2.653L285.538,789a1.878,1.878,0,0,0,2.653,0l10.378-10.191a1.876,1.876,0,0,0-2.653-2.653Zm0,0" transform="translate(-145.894 -537.142)" fill="#4889ff"/>
    <g id="Group_1434" data-name="Group 1434" transform="translate(32)">
      <g id="locations" transform="translate(85.97 242.395)">
        <path id="Path_646" data-name="Path 646" d="M61.69,44.17a2.525,2.525,0,0,1-1.714-.644C58.24,41.907,43.03,27.454,43.03,18.07,43.03,8.105,51.4,0,61.69,0s18.66,8.105,18.66,18.07c0,9.384-15.21,23.838-16.945,25.456A2.525,2.525,0,0,1,61.69,44.17Zm0-40.155A14.041,14.041,0,0,0,47.695,18.07c0,5.887,8.931,16.02,13.995,21.071,5.064-5.055,13.995-15.19,13.995-21.071A14.042,14.042,0,0,0,61.69,4.015Z" transform="translate(56.296 -16.522)" fill="#4889ff" stroke="#4889ff" stroke-width="1.5"/>
        <path id="Path_649" data-name="Path 649" d="M58.132,55.407C24.465,53.456.03,43.56.03,31.876c0-4.615,6.411-12.751,16.445-15.316-.015-1.183,10.243,8.113,9.832,7.272-.322-.659,13.147-13.458,14.362-13.649A190.044,190.044,0,0,1,70,8c12.164,0,27.674.926,38.2,2.968a2.2,2.2,0,0,1,1.392.74c2.715,3.893,5.294,8.178,8.539,10.219,1.388-.872,1.736-2.467,3.849-4.019a3.148,3.148,0,0,1,1.665-.509,3.7,3.7,0,0,1,1.81.336c7.818,3.949,14.517,9.333,14.517,14.143,0,10.986-27.139,25.683-74.271,23.529C65.705,55.407,58.213,55.412,58.132,55.407Zm-40.5-36.212C9.313,22.242,4.695,28.408,4.695,31.877c0,9.827,20.348,18.283,49.056,20.687,24.822,1.1,24.972.538,37.723-.513,26.061-2.972,43.839-11.035,43.839-20.174,0-3.711-6.008-7.99-11.664-11.212-3.191,2.232-4.534,1.185-4.663,1.262a3.829,3.829,0,0,1-3.429,0c-.459-.269-4.513-7.029-9.92-8.783-9.785-1.822-24.379-2.631-35.63-2.631a207.292,207.292,0,0,0-27.572,1.875c-7.315,1.311-3.542.791-9.847,2.5-.259.073-10.031,10.334-5.875,8.939-4.042,1.179-.732-7.137-9.085-4.639Z" transform="translate(0 2.054)" fill="#4889ff" stroke="#4889ff" stroke-width="2"/>
        <path id="Path_651" data-name="Path 651" d="M61.69,44.17a2.525,2.525,0,0,1-1.714-.644C58.24,41.907,43.03,27.454,43.03,18.07,43.03,8.105,51.4,0,61.69,0s18.66,8.105,18.66,18.07c0,9.384-15.21,23.838-16.945,25.456A2.525,2.525,0,0,1,61.69,44.17Zm0-40.155A14.041,14.041,0,0,0,47.695,18.07c0,5.887,8.931,16.02,13.995,21.071,5.064-5.055,13.995-15.19,13.995-21.071A14.042,14.042,0,0,0,61.69,4.015Z" transform="translate(-36.704 -16.522)" fill="#4889ff" stroke="#4889ff" stroke-width="1.5"/>
      </g>
      <path id="Path_650" data-name="Path 650" d="M61.69,44.17a2.525,2.525,0,0,1-1.714-.644C58.24,41.907,43.03,27.454,43.03,18.07,43.03,8.105,51.4,0,61.69,0s18.66,8.105,18.66,18.07c0,9.384-15.21,23.838-16.945,25.456A2.525,2.525,0,0,1,61.69,44.17Zm0-40.155A14.041,14.041,0,0,0,47.695,18.07c0,5.887,8.931,16.02,13.995,21.071,5.064-5.055,13.995-15.19,13.995-21.071A14.042,14.042,0,0,0,61.69,4.015Z" transform="translate(96.266 258.872)" fill="#4889ff" stroke="#4889ff" stroke-width="1.5"/>
    </g>
  </g>
</svg>
