<svg xmlns="http://www.w3.org/2000/svg" width="100" height="67.519" viewBox="0 0 100 67.519">
  <g id="ic_computer" transform="translate(-1750.85 320.189)">
    <g id="Grupo_17" data-name="Grupo 17" transform="translate(1753.919 -320.189)">
      <g id="Grupo_14" data-name="Grupo 14" transform="translate(10.963)">
        <path id="Trazado_25" data-name="Trazado 25" d="M931.382,16.26H872.135a7.884,7.884,0,0,0-7.875,7.875V55.28a7.884,7.884,0,0,0,7.875,7.875h59.247a7.884,7.884,0,0,0,7.875-7.875V24.135A7.881,7.881,0,0,0,931.382,16.26Zm4.047,39.015a4.052,4.052,0,0,1-4.047,4.047H872.135a4.052,4.052,0,0,1-4.047-4.047V24.13a4.052,4.052,0,0,1,4.047-4.047h59.247a4.052,4.052,0,0,1,4.047,4.047Z" transform="translate(-864.26 -16.26)" fill="#4889ff"/>
      </g>
      <g id="Grupo_15" data-name="Grupo 15" transform="translate(19.608 8.568)">
        <path id="Trazado_26" data-name="Trazado 26" d="M938.161,34.17H884.21a1.88,1.88,0,0,0-1.88,1.88V62.038a1.88,1.88,0,0,0,1.88,1.88h53.956a1.88,1.88,0,0,0,1.88-1.88V36.05A1.888,1.888,0,0,0,938.161,34.17Zm-1.88,25.988H886.09V37.93h50.191Z" transform="translate(-882.33 -34.17)" fill="#4889ff"/>
      </g>
      <g id="Grupo_16" data-name="Grupo 16" transform="translate(0 52.038)">
        <path id="Trazado_27" data-name="Trazado 27" d="M936.361,140.512h-93.1a1.915,1.915,0,0,1-1.454-3.158l9.97-11.654a1.911,1.911,0,0,1,1.454-.67h73.164a1.911,1.911,0,0,1,1.454.67l9.97,11.654a1.915,1.915,0,0,1-1.454,3.158Zm-88.952-3.827H932.2l-6.7-7.827h-71.4Z" transform="translate(-841.345 -125.03)" fill="#4889ff"/>
      </g>
    </g>
    <path id="Trazado_28" data-name="Trazado 28" d="M928.412,16.53H865.787a4.374,4.374,0,0,0-4.277,4.454V55.267a4.374,4.374,0,0,0,4.277,4.454h62.625a4.374,4.374,0,0,0,4.277-4.454V20.984A4.374,4.374,0,0,0,928.412,16.53Zm-5.133,30.48c0,1.493-1.488,2.708-3.32,2.708H871.351c-1.832,0-3.32-1.215-3.32-2.708V26.165c0-1.493,1.488-2.708,3.32-2.708h48.612c1.832,0,3.32,1.215,3.32,2.708V47.01Z" transform="translate(902.056 -336.589)" fill="#4889ff" opacity="0.2"/>
    <path id="Trazado_29" data-name="Trazado 29" d="M834.93,131.819l92.378-.1-10.047-11.755-72.389-.029Z" transform="translate(915.92 -390.526)" fill="#4889ff" opacity="0.2"/>
  </g>
</svg>
