<svg xmlns="http://www.w3.org/2000/svg" width="100" height="98.175" viewBox="0 0 100 98.175">
  <g id="ic_check" transform="translate(-241.98 -723.19)">
    <circle id="Elipse_7" data-name="Elipse 7" cx="44.756" cy="44.756" r="44.756" transform="translate(241.98 723.19)" fill="#5bc695" opacity="0.2"/>
    <path id="Trazado_116" data-name="Trazado 116" d="M295.723,726.38a47.963,47.963,0,1,0,47.963,47.963,48.02,48.02,0,0,0-47.963-47.963Zm0,89.618a41.655,41.655,0,1,1,41.655-41.655A41.7,41.7,0,0,1,295.723,816Zm0,0" transform="translate(-1.706 -0.942)" fill="#5bc695"/>
    <path id="Trazado_117" data-name="Trazado 117" d="M325.567,766.381l-30.032,30.032-13.73-13.73a4.147,4.147,0,0,0-5.864,5.864L292.6,805.209a4.152,4.152,0,0,0,5.864,0l32.964-32.964a4.147,4.147,0,0,0-5.864-5.864Zm0,0" transform="translate(-9.666 -12.39)" fill="#5bc695"/>
  </g>
</svg>
