<svg xmlns="http://www.w3.org/2000/svg" width="22.041" height="18" viewBox="0 0 22.041 18">
  <g id="ic_camera" transform="translate(0 -5.5)">
    <path id="Trazado_7" data-name="Trazado 7" d="M22.408,20.5a4.408,4.408,0,1,0,4.408,4.408A4.413,4.413,0,0,0,22.408,20.5Z" transform="translate(-11.388 -9.49)" fill="#4889ff"/>
    <path id="Trazado_8" data-name="Trazado 8" d="M20.278,9.173H17.147L15.677,5.5H6.364L4.894,9.173H4.408V7.337H2.2V9.173H1.763A1.765,1.765,0,0,0,0,10.936V21.725A1.777,1.777,0,0,0,1.775,23.5h18.49a1.777,1.777,0,0,0,1.775-1.775V10.936A1.765,1.765,0,0,0,20.278,9.173Zm-16.6,0H2.939v-1.1h.735ZM11.02,22.031a6.612,6.612,0,1,1,6.612-6.612A6.62,6.62,0,0,1,11.02,22.031ZM19.1,13.582a1.469,1.469,0,1,1,1.469-1.469A1.471,1.471,0,0,1,19.1,13.582Z" fill="#4889ff"/>
  </g>
</svg>
