<svg xmlns="http://www.w3.org/2000/svg" width="38.138" height="24.521" viewBox="0 0 38.138 24.521">
  <path id="ic_calc_delete" d="M7572.805,5357.521a3.919,3.919,0,0,1-3.331-1.875l-4.906-8.1a3.872,3.872,0,0,1,.043-4.109l4.869-7.638a3.868,3.868,0,0,1,3.281-1.8h24.429a3.9,3.9,0,0,1,3.894,3.893v15.734a3.9,3.9,0,0,1-3.894,3.893Zm-1.6-20.617-4.864,7.636a1.84,1.84,0,0,0-.023,1.948l4.908,8.1a1.861,1.861,0,0,0,1.578.889h24.385a1.847,1.847,0,0,0,1.845-1.844v-15.736a1.848,1.848,0,0,0-1.845-1.845h-24.429A1.836,1.836,0,0,0,7571.207,5336.9Zm16.637,14.15-3.415-3.415-3.413,3.415a1.329,1.329,0,0,1-1.879-1.879l3.413-3.413-3.413-3.417a1.329,1.329,0,0,1,1.879-1.879l3.413,3.413,3.415-3.411a1.329,1.329,0,0,1,1.879,1.879l-3.413,3.415,3.413,3.413a1.329,1.329,0,1,1-1.879,1.879Z" transform="translate(-7563.446 -5333.5)" fill="#d0cece" stroke="#fff" stroke-width="1"/>
</svg>
