<svg xmlns="http://www.w3.org/2000/svg" width="26.943" height="18.295" viewBox="0 0 26.943 18.295">
  <path id="ic_creditcard" d="M4894.375,6331.61a2.707,2.707,0,0,1-2.7-2.7v-11.889a2.707,2.707,0,0,1,2.7-2.7h20.538a2.706,2.706,0,0,1,2.7,2.7v11.889a2.706,2.706,0,0,1-2.7,2.7Zm-1.621-2.7a1.623,1.623,0,0,0,1.621,1.622h20.538a1.624,1.624,0,0,0,1.621-1.622v-7.025h-23.78Zm0-8.106h23.78v-2.163h-23.78Zm0-3.783v.54h23.78v-.54a1.624,1.624,0,0,0-1.621-1.623h-20.538A1.624,1.624,0,0,0,4892.754,6317.018Zm2.7,11.349a.54.54,0,0,1,0-1.081h6.486a.54.54,0,1,1,0,1.081Zm0-2.161a.541.541,0,0,1,0-1.082h6.486a.541.541,0,0,1,0,1.082Z" transform="translate(-4891.172 -6313.815)" fill="#8c95a8" stroke="rgba(0,0,0,0)" stroke-miterlimit="10" stroke-width="1"/>
</svg>
