<svg xmlns="http://www.w3.org/2000/svg" width="37" height="37" viewBox="0 0 37 37">
  <g id="ic_camera_circle" transform="translate(-206 -159.959)">
    <path id="Trazado_523" data-name="Trazado 523" d="M18.5,0A18.5,18.5,0,1,1,0,18.5,18.5,18.5,0,0,1,18.5,0Z" transform="translate(206 159.959)" fill="#fff"/>
    <path id="Trazado_112" data-name="Trazado 112" d="M1306.065,778.923h-3.289l-.018-.079a3.66,3.66,0,0,0-3.584-2.845h-3.2a3.663,3.663,0,0,0-3.583,2.847l-.018.079h-3.284a2.953,2.953,0,0,0-2.949,2.949v9.758a3.084,3.084,0,0,0,3.081,3.081h16.717a3.084,3.084,0,0,0,3.081-3.081v-9.758A2.961,2.961,0,0,0,1306.065,778.923Zm1.077,2.949v9.758a1.213,1.213,0,0,1-1.212,1.212h-16.712a1.213,1.213,0,0,1-1.212-1.212v-9.758a1.083,1.083,0,0,1,1.082-1.082h4.031a.929.929,0,0,0,.909-.724l.186-.8a1.807,1.807,0,0,1,1.763-1.4h3.2a1.8,1.8,0,0,1,1.763,1.4l.186.805a.933.933,0,0,0,.907.721h4.031A1.086,1.086,0,0,1,1307.142,781.872Z" transform="translate(-1072.88 -607.137)" fill="#4a8bfa"/>
    <path id="Trazado_113" data-name="Trazado 113" d="M1298.7,797.74a1.247,1.247,0,1,0,1.247,1.247A1.248,1.248,0,0,0,1298.7,797.74Z" transform="translate(-1081.318 -623.355)" fill="#4a8bfa"/>
    <path id="Trazado_114" data-name="Trazado 114" d="M1316.041,798.42a5.151,5.151,0,1,0,5.151,5.151A5.156,5.156,0,0,0,1316.041,798.42Zm3.03,5.151a3.03,3.03,0,1,1-3.03-3.03A3.033,3.033,0,0,1,1319.071,803.571Z" transform="translate(-1091.344 -623.863)" fill="#4a8bfa"/>
    <path id="Trazado_115" data-name="Trazado 115" d="M1301.778,776.938a1.718,1.718,0,0,0-1.717-1.712h-4.173l-1-1.793a1.932,1.932,0,0,0-1.7-.993l-3.7.018a1.93,1.93,0,0,0-1.658.955l-1.087,1.857-3.828-.02a1.72,1.72,0,0,0-1.727,1.714l-.01,10.388a1.718,1.718,0,0,0,1.722,1.72l17.2-.038a1.719,1.719,0,0,0,1.715-1.722Zm-10.436,9.37a4.2,4.2,0,1,1,4.2-4.2A4.206,4.206,0,0,1,1291.342,786.308Z" transform="translate(-1069.18 -604.481)" fill="#4889ff" opacity="0.2"/>
  </g>
</svg>
