<svg xmlns="http://www.w3.org/2000/svg" width="100" height="69.959" viewBox="0 0 100 69.959">
  <g id="ic_dni_selected" transform="translate(-946.81 -709.13)">
    <path id="Trazado_94" data-name="Trazado 94" d="M1037.5,722.81H968.167a4.395,4.395,0,0,0-4.3,4.48v42.157a4.4,4.4,0,0,0,4.3,4.48h69.311a4.395,4.395,0,0,0,4.3-4.48h.021V727.29A4.39,4.39,0,0,0,1037.5,722.81Zm-35.978,38.908h-.008c0,1.546-.681,2.815-1.525,2.815H975.411c-.839,0-1.525-1.256-1.525-2.815V735.25c0-1.546.681-2.815,1.525-2.815H1000c.839,0,1.525,1.256,1.525,2.815Z" transform="translate(-9.795 -7.854)" fill="#4889ff" opacity="0.2"/>
    <path id="Trazado_95" data-name="Trazado 95" d="M1017.746,763.38a8.242,8.242,0,0,0-8.224,7.815l-.013.848h.008a8.234,8.234,0,0,0,8.224,7.811h0a8.236,8.236,0,0,0,0-16.473Zm5.191,8.236a5.195,5.195,0,1,1-5.191-5.191A5.174,5.174,0,0,1,1022.938,771.616Z" transform="translate(-35.998 -31.146)" fill="#4889ff"/>
    <path id="Trazado_96" data-name="Trazado 96" d="M1042.161,727.83H976.623a7.885,7.885,0,0,0-7.883,7.883v38.265a7.885,7.885,0,0,0,7.883,7.883h65.555a7.884,7.884,0,0,0,7.883-7.883V735.713A7.915,7.915,0,0,0,1042.161,727.83Zm4.063,46.127a4.072,4.072,0,0,1-4.067,4.067H976.623a4.072,4.072,0,0,1-4.067-4.067V735.709a4.072,4.072,0,0,1,4.067-4.067h65.555a4.072,4.072,0,0,1,4.067,4.067v38.248Z" transform="translate(-12.591 -10.736)" fill="#4889ff"/>
    <path id="Trazado_97" data-name="Trazado 97" d="M1099.226,798.63h-22.388a1.908,1.908,0,1,0,0,3.816h22.388a1.908,1.908,0,0,0,0-3.816Z" transform="translate(-73.557 -51.384)" fill="#4889ff"/>
    <path id="Trazado_98" data-name="Trazado 98" d="M1076.838,779.146h12.444a1.908,1.908,0,0,0,0-3.816h-12.444a1.908,1.908,0,1,0,0,3.816Z" transform="translate(-73.557 -38.007)" fill="#4889ff"/>
    <path id="Trazado_99" data-name="Trazado 99" d="M1017.547,751.15H996.474a5.673,5.673,0,0,0-5.664,5.664v23.346a5.673,5.673,0,0,0,5.664,5.664h21.072a5.673,5.673,0,0,0,5.664-5.664V756.814A5.673,5.673,0,0,0,1017.547,751.15Zm-15.851,31.2c.856-4.314,2.278-5.732,2.687-5.732h5.272c.4,0,1.806,1.4,2.666,5.639-.158.06-.319.111-.481.166h-9.931Zm18.108-2.189a2.261,2.261,0,0,1-2.257,2.257h-2.1c-.975-5.545-3.117-8.845-5.788-8.845h-5.272c-2.674,0-4.812,3.3-5.788,8.845h-2.121a2.261,2.261,0,0,1-2.257-2.257V756.818a2.261,2.261,0,0,1,2.257-2.257h21.072a2.261,2.261,0,0,1,2.257,2.257v23.346Z" transform="translate(-25.261 -24.125)" fill="#4889ff"/>
    <path id="Trazado_100" data-name="Trazado 100" d="M1147.64,836.57" transform="translate(-115.301 -73.166)" fill="#4889ff"/>
    <path id="Trazado_101" data-name="Trazado 101" d="M949.054,727.008a2.245,2.245,0,0,0,2.244-2.244V715.62a2,2,0,0,1,2-2h7.427a2.244,2.244,0,1,0,0-4.489H953.3a6.5,6.5,0,0,0-6.49,6.49v9.143a2.245,2.245,0,0,0,2.244,2.244Zm0,0" transform="translate(0)" fill="#4889ff"/>
    <path id="Trazado_102" data-name="Trazado 102" d="M960.728,844.81H953.3a2,2,0,0,1-2-2v-9.144a2.244,2.244,0,0,0-4.489,0v9.144a6.5,6.5,0,0,0,6.49,6.49h7.427a2.244,2.244,0,0,0,0-4.489Zm0,0" transform="translate(0 -70.21)" fill="#4889ff"/>
    <path id="Trazado_103" data-name="Trazado 103" d="M1153.342,709.13h-7.427a2.244,2.244,0,0,0,0,4.489h7.427a2,2,0,0,1,2,2v9.144a2.244,2.244,0,0,0,4.489,0V715.62a6.5,6.5,0,0,0-6.49-6.49Zm0,0" transform="translate(-113.022 0)" fill="#4889ff"/>
    <path id="Trazado_104" data-name="Trazado 104" d="M1157.588,831.42a2.245,2.245,0,0,0-2.244,2.244v9.144a2,2,0,0,1-2,2h-7.427a2.244,2.244,0,0,0,0,4.489h7.427a6.5,6.5,0,0,0,6.49-6.49v-9.144a2.245,2.245,0,0,0-2.244-2.244Zm0,0" transform="translate(-113.022 -70.21)" fill="#4889ff"/>
  </g>
</svg>
