<svg xmlns="http://www.w3.org/2000/svg" width="100" height="67.356" viewBox="0 0 100 67.356">
  <g id="ic_dni" transform="translate(-1945.219 315.516)">
    <path id="Trazado_1" data-name="Trazado 1" d="M1169.915,22.19h-83.142a5.27,5.27,0,0,0-5.153,5.373V78.117a5.271,5.271,0,0,0,5.153,5.373h83.116a5.27,5.27,0,0,0,5.153-5.373h.026V27.563A5.27,5.27,0,0,0,1169.915,22.19Zm-43.144,46.657h-.01c0,1.854-.817,3.376-1.828,3.376H1095.46c-1.006,0-1.828-1.507-1.828-3.376V37.108c0-1.854.817-3.376,1.828-3.376h29.483c1.006,0,1.828,1.507,1.828,3.376Z" transform="translate(863.599 -337.706)" fill="#4889ff" opacity="0.2"/>
    <g id="Grupo_18" data-name="Grupo 18" transform="translate(1947.701 -312.953)">
      <path id="Trazado_30" data-name="Trazado 30" d="M1137.127,62.76a9.883,9.883,0,0,0-9.862,9.371l-.015,1.016h.01a9.874,9.874,0,0,0,9.862,9.366h0a9.877,9.877,0,0,0,.005-19.754Zm6.23,9.877a6.229,6.229,0,1,1-6.225-6.225A6.206,6.206,0,0,1,1143.357,72.637Z" transform="translate(-1106.429 -44.605)" fill="#4889ff"/>
      <path id="Trazado_31" data-name="Trazado 31" d="M1174.524,27.21h-78.591a9.455,9.455,0,0,0-9.453,9.453V82.549A9.455,9.455,0,0,0,1095.933,92h78.612A9.455,9.455,0,0,0,1184,82.549V36.663A9.485,9.485,0,0,0,1174.524,27.21Zm4.877,55.319a4.883,4.883,0,0,1-4.877,4.877h-78.591a4.883,4.883,0,0,1-4.877-4.877V36.663a4.883,4.883,0,0,1,4.877-4.877h78.612a4.883,4.883,0,0,1,4.877,4.877V82.529Z" transform="translate(-1086.48 -27.21)" fill="#4889ff"/>
      <path id="Trazado_32" data-name="Trazado 32" d="M1221.805,98.02h-26.847a2.288,2.288,0,0,0,0,4.576h26.847a2.288,2.288,0,1,0,0-4.576Z" transform="translate(-1138.439 -61.857)" fill="#4889ff"/>
      <path id="Trazado_33" data-name="Trazado 33" d="M1194.968,79.3h14.923a2.288,2.288,0,0,0,0-4.576h-14.923a2.288,2.288,0,1,0,0,4.576Z" transform="translate(-1138.444 -50.457)" fill="#4889ff"/>
      <path id="Trazado_34" data-name="Trazado 34" d="M1140.612,50.54h-25.269a6.8,6.8,0,0,0-6.792,6.792v28a6.8,6.8,0,0,0,6.792,6.792h25.269a6.8,6.8,0,0,0,6.792-6.792v-28A6.8,6.8,0,0,0,1140.612,50.54Zm-19,37.414c1.026-5.173,2.732-6.874,3.223-6.874h6.323c.48,0,2.165,1.675,3.2,6.762-.189.072-.383.133-.577.2h-11.91C1121.777,88.01,1121.69,87.984,1121.609,87.954Zm21.71-2.625a2.711,2.711,0,0,1-2.707,2.707h-2.523c-1.17-6.649-3.738-10.607-6.94-10.607h-6.323c-3.207,0-5.771,3.953-6.94,10.607h-2.543a2.711,2.711,0,0,1-2.707-2.707v-28a2.711,2.711,0,0,1,2.707-2.707h25.269a2.711,2.711,0,0,1,2.707,2.707Z" transform="translate(-1097.279 -38.625)" fill="#4889ff"/>
    </g>
  </g>
</svg>
