<svg id="ic_exchange_wallets_white" xmlns="http://www.w3.org/2000/svg" width="20.382" height="21.737" viewBox="0 0 20.382 21.737">
  <path id="Trazado_591" data-name="Trazado 591" d="M970.205,1257.77v-1.719a1.059,1.059,0,0,1,.522.338.428.428,0,0,0,.516.086.27.27,0,0,0,.106-.419,1.867,1.867,0,0,0-1.145-.634v-.481a.381.381,0,0,0-.745,0v.48a1.446,1.446,0,1,0,0,2.891v1.719a1.066,1.066,0,0,1-.522-.338.427.427,0,0,0-.516-.087.27.27,0,0,0-.106.419,1.868,1.868,0,0,0,1.145.633v.481a.381.381,0,0,0,.745,0v-.48a1.446,1.446,0,1,0,0-2.891Zm-.745-.086a.826.826,0,0,1,0-1.633Zm.745,2.348V1258.4a.826.826,0,0,1,0,1.633Z" transform="translate(-965.486 -1252.721)" fill="#fff"/>
  <path id="Trazado_592" data-name="Trazado 592" d="M1044.048,1334.5a1.982,1.982,0,0,0,1.8,1.8v2.139a1.325,1.325,0,0,1-.65-.421.531.531,0,0,0-.642-.107.336.336,0,0,0-.132.521,2.322,2.322,0,0,0,1.424.788v.6a.474.474,0,0,0,.927,0v-.6a1.8,1.8,0,1,0,0-3.6v-2.139a1.323,1.323,0,0,1,.65.421.532.532,0,0,0,.642.107.336.336,0,0,0,.132-.522,2.323,2.323,0,0,0-1.424-.788v-.6a.474.474,0,0,0-.927,0v.6A1.981,1.981,0,0,0,1044.048,1334.5Zm2.726,1.906a1.028,1.028,0,0,1,0,2.031Zm-.927-2.922v2.031a1.027,1.027,0,0,1,0-2.031Z" transform="translate(-1034.268 -1322.405)" fill="#fff"/>
  <g id="Grupo_1337" data-name="Grupo 1337">
    <path id="Trazado_595" data-name="Trazado 595" d="M960.568,1245.4l-1.844-.925a.462.462,0,1,0-.41.827l.7.351a.469.469,0,0,0-.043.161,1.488,1.488,0,0,0,.914,1.3v5.635a.462.462,0,1,1-.925,0v-3.7a2.456,2.456,0,0,0-1.85-2.266v-2.822a1.828,1.828,0,0,0-1.828-1.843h-3.7V1238.3a.363.363,0,0,0-.2-.332l-1.482-.743a.371.371,0,1,0-.329.665l.564.282a.38.38,0,0,0-.034.129,1.2,1.2,0,0,0,.734,1.047v2.772h-.743v-1.217a1.974,1.974,0,0,0-1.487-1.821v-2.268a1.469,1.469,0,0,0-1.469-1.482h-4.46a1.5,1.5,0,0,0-1.5,1.482v8.32l-.538.269a.372.372,0,0,0-.205.333v1.115a.392.392,0,0,0,.39.377h7.044v7.088l-.669.335a.463.463,0,0,0-.255.414v1.388a.488.488,0,0,0,.484.469H957.6a.45.45,0,0,0,.44-.469v-1.388a.463.463,0,0,0-.256-.414l-.669-.335v-6.567a1.5,1.5,0,0,1,.925,1.3v3.7a1.387,1.387,0,1,0,2.775,0v-6.938A.453.453,0,0,0,960.568,1245.4Zm-11.961-5.543h0a1.137,1.137,0,0,1,.139.069,1.3,1.3,0,0,1,.467.474,1.126,1.126,0,0,1,.073.157.988.988,0,0,1,.064.346v1.257a1.871,1.871,0,0,0-.574.225,1.883,1.883,0,0,0-.169.113h0Zm-7.433,6.628v-.519l.538-.269a.372.372,0,0,0,.205-.333v-8.549a.755.755,0,0,1,.761-.738h4.46a.725.725,0,0,1,.726.738v8.55s0,0,0,0v1.117ZM957.113,1256h-9.249v-.646l.669-.335a.463.463,0,0,0,.256-.414v-10.638a.922.922,0,0,1,.562-.836.955.955,0,0,1,.385-.082h5.549a.9.9,0,0,1,.9.918V1254.6a.463.463,0,0,0,.256.414l.669.335Z" transform="translate(-940.43 -1235.186)" fill="#fff"/>
    <path id="Trazado_596" data-name="Trazado 596" d="M1034.1,1289.368a1.1,1.1,0,0,1,.072.154A1.1,1.1,0,0,0,1034.1,1289.368Z" transform="translate(-1025.315 -1284.149)" fill="#fff"/>
    <path id="Trazado_597" data-name="Trazado 597" d="M1031.492,1286.172a1.249,1.249,0,0,0-.263-.323A1.249,1.249,0,0,1,1031.492,1286.172Z" transform="translate(-1022.713 -1280.96)" fill="#fff"/>
    <path id="Trazado_598" data-name="Trazado 598" d="M1031.754,1292.611a1.828,1.828,0,0,0-.384.127,1.828,1.828,0,0,1,.384-.127v-1.229a.964.964,0,0,0-.062-.338.964.964,0,0,1,.063.338Z" transform="translate(-1022.839 -1285.658)" fill="#fff"/>
    <rect id="Rectángulo_457" data-name="Rectángulo 457" height="2.583" transform="translate(8.177 4.689)" fill="#fff"/>
    <path id="Trazado_599" data-name="Trazado 599" d="M1048.207,1234.754a3.089,3.089,0,0,1,3.353,2.864c0,.025,0,.125,0,.252l-.811-.933a.414.414,0,0,0-.625.543l1.6,1.838a.419.419,0,0,0,.316.142.414.414,0,0,0,.314-.149l1.548-1.856a.414.414,0,1,0-.635-.53l-.669.8c0-.078,0-.135,0-.152a4.132,4.132,0,0,0-4.389-3.857.518.518,0,1,0,0,1.037Z" transform="translate(-1037.528 -1233.717)" fill="#fff"/>
    <path id="Trazado_600" data-name="Trazado 600" d="M950,1375.942a.518.518,0,0,0-.518-.519,3.089,3.089,0,0,1-3.353-2.864c0-.024,0-.125,0-.253l.811.933a.414.414,0,1,0,.625-.543l-1.6-1.838a.418.418,0,0,0-.316-.142.414.414,0,0,0-.314.149l-1.548,1.856a.414.414,0,0,0,.635.53l.669-.8c0,.078,0,.135,0,.152a4.132,4.132,0,0,0,4.389,3.857A.518.518,0,0,0,950,1375.942Z" transform="translate(-943.391 -1357.672)" fill="#fff"/>
    <path id="Trazado_601" data-name="Trazado 601" d="M1027.635,1310.653a1.869,1.869,0,0,1,.165-.111,1.869,1.869,0,0,0-.165.111Z" transform="translate(-1019.457 -1303.338)" fill="#fff"/>
    <path id="Trazado_602" data-name="Trazado 602" d="M1027.635,1283.574h0a1.114,1.114,0,0,1,.135.068A1.114,1.114,0,0,0,1027.635,1283.574Z" transform="translate(-1019.457 -1278.899)" fill="#fff"/>
  </g>
</svg>
