<svg xmlns="http://www.w3.org/2000/svg" width="100" height="98.175" viewBox="0 0 100 98.175">
  <g id="ic_error" transform="translate(-404.52 -723.19)">
    <circle id="Elipse_8" data-name="Elipse 8" cx="44.756" cy="44.756" r="44.756" transform="translate(404.52 723.19)" fill="#e55858" opacity="0.2"/>
    <path id="Trazado_118" data-name="Trazado 118" d="M458.263,726.38a47.963,47.963,0,1,0,47.963,47.963,48.02,48.02,0,0,0-47.963-47.963Zm0,89.618a41.655,41.655,0,1,1,41.655-41.655A41.7,41.7,0,0,1,458.263,816Zm0,0" transform="translate(-1.706 -0.942)" fill="#e55858"/>
    <path id="Trazado_119" data-name="Trazado 119" d="M487.71,797.75l-10.967-10.967,10.967-10.967a4.271,4.271,0,0,0-6.04-6.04L470.7,780.742l-10.967-10.967a4.271,4.271,0,1,0-6.04,6.04l10.967,10.967L453.7,797.75a4.271,4.271,0,1,0,6.04,6.04L470.7,792.823,481.67,803.79a4.271,4.271,0,0,0,6.04-6.04Z" transform="translate(-14.146 -13.381)" fill="#e55858"/>
  </g>
</svg>
