<svg xmlns="http://www.w3.org/2000/svg" width="15.201" height="19" viewBox="0 0 15.201 19">
  <path id="ic_fuel_price" d="M-7647.6,3588.188a.546.546,0,0,1-.547-.545.546.546,0,0,1,.547-.545h.473v-1.535h-.473a.546.546,0,0,1-.547-.545.547.547,0,0,1,.547-.545h.473v-8.789h-.473a.546.546,0,0,1-.547-.545.546.546,0,0,1,.547-.545h.473v-1.533h-.473a.546.546,0,0,1-.547-.545.546.546,0,0,1,.547-.545h1.8v-1.239a.544.544,0,0,1,.544-.545h2.853a.546.546,0,0,1,.545.545v1.239h7.367a.546.546,0,0,1,.547.545.546.546,0,0,1-.547.545h-.473v1.533h.473a.546.546,0,0,1,.547.545.546.546,0,0,1-.547.545h-.473v8.789h.473a.547.547,0,0,1,.547.545.546.546,0,0,1-.547.545h-.473v1.535h.473a.546.546,0,0,1,.547.545.546.546,0,0,1-.547.545Zm1.563-1.09h9.982v-1.535h-9.982Zm0-2.625h9.982v-8.789h-9.982Zm0-9.879h9.982v-1.533h-9.982Zm1.325-2.623h1.763v-.694h-1.763Zm3.245,11.625v-.545a2.111,2.111,0,0,1-1.295-.717.3.3,0,0,1,.119-.473.482.482,0,0,1,.583.1,1.212,1.212,0,0,0,.592.384V3580.4a1.8,1.8,0,0,1-1.636-1.636,1.8,1.8,0,0,1,1.636-1.635v-.543a.389.389,0,0,1,.422-.343.389.389,0,0,1,.42.343v.543a2.112,2.112,0,0,1,1.295.717.305.305,0,0,1-.119.475.485.485,0,0,1-.583-.1,1.2,1.2,0,0,0-.592-.382v1.945a1.8,1.8,0,0,1,1.637,1.635,1.8,1.8,0,0,1-1.637,1.636v.543a.388.388,0,0,1-.42.342A.388.388,0,0,1-7641.466,3583.6Zm.843-1.256a1.019,1.019,0,0,0,.794-.923,1.022,1.022,0,0,0-.794-.923Zm-1.637-3.58a1.019,1.019,0,0,0,.794.923v-1.847A1.019,1.019,0,0,0-7642.26,3578.762Z" transform="translate(7648.646 -3569.688)" fill="#3f506a" stroke="rgba(0,0,0,0)" stroke-miterlimit="10" stroke-width="1"/>
</svg>
