<svg xmlns="http://www.w3.org/2000/svg" width="83.738" height="100" viewBox="0 0 83.738 100">
  <g id="ic_fingerprint" transform="translate(0 0)">
    <path id="Unión_1" data-name="Unión 1" d="M65.321,100a3.087,3.087,0,0,1,0-6.17H75.15A2.708,2.708,0,0,0,77.8,91.075V78.491a2.971,2.971,0,1,1,5.938,0V91.075A8.771,8.771,0,0,1,75.15,100ZM8.589,99.994A8.771,8.771,0,0,1,0,91.069V78.485A3.03,3.03,0,0,1,2.969,75.4a3.03,3.03,0,0,1,2.969,3.085V91.069a2.708,2.708,0,0,0,2.651,2.755h9.829a3.087,3.087,0,0,1,0,6.17ZM30.36,64.117a14.8,14.8,0,0,1,3.287-11,10.772,10.772,0,0,1,8.161-3.891h.061a11.2,11.2,0,0,1,8.1,3.5,12.723,12.723,0,0,1,3.537,8.919V63.1a6.01,6.01,0,1,0,11.979,0V62.6c0-13.891-9.682-25.443-22.04-26.3a22.479,22.479,0,0,0-17.4,6.494,26.364,26.364,0,0,0-7.788,18.864,26.669,26.669,0,0,0,5.412,16.188,2.292,2.292,0,0,1-.336,3.134,2.1,2.1,0,0,1-3.018-.348,31.268,31.268,0,0,1-6.353-18.974,30.922,30.922,0,0,1,9.151-22.12,26.633,26.633,0,0,1,20.617-7.691C58.338,32.853,69.786,46.359,69.786,62.6V63.1c0,6.042-4.612,10.959-10.281,10.959S49.224,69.145,49.224,63.1V61.649A8.225,8.225,0,0,0,46.952,55.9a7.015,7.015,0,0,0-5.071-2.2h-.042A6.563,6.563,0,0,0,36.854,56.1a10.139,10.139,0,0,0-2.217,7.55c.947,9.273,11.2,17.587,14.026,17.587a2.228,2.228,0,0,1-.012,4.453C43.488,85.693,31.521,75.486,30.36,64.117Zm3.2,20.917c-.47-.489-11.466-12.162-11.466-23.4,0-11.661,8.87-21.148,19.774-21.148s19.774,9.487,19.774,21.148a2.146,2.146,0,1,1-4.288,0c0-9.2-6.945-16.683-15.48-16.683S26.39,52.437,26.39,61.637c0,9.42,10.122,20.147,10.226,20.251a2.294,2.294,0,0,1-.013,3.158,2.1,2.1,0,0,1-3.042-.012Zm5.993-24.85a2.146,2.146,0,1,1,4.288,0c0,8.827,7.141,16.683,12.767,16.683a2.231,2.231,0,0,1,.006,4.459C48.931,81.325,39.554,71.57,39.554,60.183ZM12.767,42.828a2.289,2.289,0,0,1-.587-3.1c6.756-10.458,17.856-16.7,29.688-16.7s22.932,6.243,29.688,16.7a2.284,2.284,0,0,1-.586,3.1,2.075,2.075,0,0,1-1.2.379,2.113,2.113,0,0,1-1.784-.99A31.262,31.262,0,0,0,41.869,27.489,31.248,31.248,0,0,0,15.748,42.217a2.123,2.123,0,0,1-1.786.992A2.072,2.072,0,0,1,12.767,42.828Zm3.244-14.917a2.3,2.3,0,0,1,.14-3.152,36.882,36.882,0,0,1,51.436,0,2.3,2.3,0,0,1,.141,3.152,2.1,2.1,0,0,1-3.036.14,32.7,32.7,0,0,0-45.644.006,2.093,2.093,0,0,1-3.036-.146ZM0,21.5V8.925A8.771,8.771,0,0,1,8.589,0h9.829a3.026,3.026,0,0,1,2.969,3.085A3.026,3.026,0,0,1,18.418,6.17H8.589A2.708,2.708,0,0,0,5.938,8.925V21.509a3.026,3.026,0,0,1-2.969,3.085A3.031,3.031,0,0,1,0,21.5Zm77.8,0V8.925A2.708,2.708,0,0,0,75.15,6.17H65.321a3.03,3.03,0,0,1-2.969-3.085A3.03,3.03,0,0,1,65.321,0H75.15a8.771,8.771,0,0,1,8.589,8.925V21.5a2.971,2.971,0,1,1-5.938,0Z" transform="translate(0 0)" fill="#4889ff"/>
    <ellipse id="Elipse_9" data-name="Elipse 9" cx="30.916" cy="40.715" rx="30.916" ry="40.715" transform="translate(5.229 6.17)" fill="#4889ff" opacity="0.2"/>
  </g>
</svg>
