<svg xmlns="http://www.w3.org/2000/svg" width="24" height="24" viewBox="0 0 24 24">
  <path id="ic_help" d="M-8564.607,2215.342a12.014,12.014,0,0,1,12-12,12.012,12.012,0,0,1,12,12,12.012,12.012,0,0,1-12,12A12.013,12.013,0,0,1-8564.607,2215.342Zm1.581,0a10.433,10.433,0,0,0,10.42,10.42,10.434,10.434,0,0,0,10.421-10.42,10.432,10.432,0,0,0-10.421-10.42A10.431,10.431,0,0,0-8563.026,2215.342Zm9.4,6.6a1.44,1.44,0,0,1-.41-1.045,1.439,1.439,0,0,1,.41-1.044,1.381,1.381,0,0,1,1.034-.418,1.379,1.379,0,0,1,1.031.418,1.439,1.439,0,0,1,.41,1.044,1.426,1.426,0,0,1-.418,1.045,1.4,1.4,0,0,1-1.023.418A1.381,1.381,0,0,1-8553.63,2221.937Zm.459-3.913a.934.934,0,0,1-.206-.645,3.878,3.878,0,0,1,.389-1.813,9.411,9.411,0,0,1,1.132-1.62,9.084,9.084,0,0,0,.859-1.171,2.067,2.067,0,0,0,.274-1.055,1.241,1.241,0,0,0-.48-1.024,2.025,2.025,0,0,0-1.3-.379,3.143,3.143,0,0,0-1.346.3,12.243,12.243,0,0,0-1.5.869,1.779,1.779,0,0,1-.8.273.717.717,0,0,1-.575-.3,1.086,1.086,0,0,1-.245-.712,1.083,1.083,0,0,1,.47-.916,6.093,6.093,0,0,1,1.929-1.1,6.626,6.626,0,0,1,2.247-.4,5.174,5.174,0,0,1,2.115.41,3.428,3.428,0,0,1,1.443,1.132,2.767,2.767,0,0,1,.52,1.658,3.189,3.189,0,0,1-.487,1.764,10.944,10.944,0,0,1-1.427,1.689,12.661,12.661,0,0,0-1.2,1.375,2.78,2.78,0,0,0-.5,1.259.755.755,0,0,1-.262.477.8.8,0,0,1-.516.167A.678.678,0,0,1-8553.171,2218.024Z" transform="translate(8564.607 -2203.341)" fill="#4889ff"/>
</svg>
