<svg xmlns="http://www.w3.org/2000/svg" width="192.144" height="69" viewBox="0 0 192.144 69">
  <g id="ic_logo" transform="translate(-4375.319 -224.308)">
    <g id="Grupo_1416" data-name="Grupo 1416">
      <text id="FILL_SMART" data-name="FILL
SMART" transform="translate(4449.463 254.308)" fill="#4889ff" font-size="31" font-family="LibreFranklin-Bold, Libre Franklin" font-weight="700"><tspan x="0" y="0">FILL</tspan><tspan x="0" y="31">SMART</tspan></text>
      <rect id="Rectángulo" width="2" height="63" rx="1" transform="translate(4437.463 227.308)" fill="#4889ff"/>
      <g id="Icono" transform="translate(4342.463 -527.587)">
        <path id="Trazado_7" data-name="Trazado 7" d="M495.518,118.712l-7-3.51a1.752,1.752,0,1,0-1.554,3.14l2.666,1.331a1.773,1.773,0,0,0-.163.609,5.645,5.645,0,0,0,3.469,4.943V146.61a1.755,1.755,0,1,1-3.51,0V132.569c0-4.238-3.511-7.783-7.021-8.6V113.261a6.936,6.936,0,0,0-6.937-7H454.4a7.079,7.079,0,0,0-7.1,7v39.285l-2.541,1.27a1.755,1.755,0,0,0-.97,1.57v5.266a1.851,1.851,0,0,0,1.839,1.781h38.615a1.708,1.708,0,0,0,1.671-1.781v-5.266a1.755,1.755,0,0,0-.97-1.57l-2.54-1.27v-24.92a5.682,5.682,0,0,1,3.51,4.942V146.61a5.266,5.266,0,1,0,10.532,0V120.282a1.717,1.717,0,0,0-.928-1.57m-13.113,40.211H447.3v-2.451l2.54-1.27a1.755,1.755,0,0,0,.97-1.57v-40.37a3.565,3.565,0,0,1,3.594-3.484h21.063a3.421,3.421,0,0,1,3.426,3.484v40.37a1.755,1.755,0,0,0,.97,1.57l2.541,1.27Z" transform="translate(-410.934 651.973)" fill="#4889ff"/>
        <path id="Trazado_17" data-name="Trazado 17" d="M343.872,142.148v-8.011a4.95,4.95,0,0,1,2.435,1.576,1.993,1.993,0,0,0,2.4.4,1.26,1.26,0,0,0,.5-1.955,8.7,8.7,0,0,0-5.335-2.953v-2.241a1.775,1.775,0,0,0-3.474,0V131.2c-3.844.651-6.739,3.425-6.739,6.738s2.9,6.086,6.739,6.738v8.01a4.955,4.955,0,0,1-2.436-1.576,1.99,1.99,0,0,0-2.4-.4,1.258,1.258,0,0,0-.5,1.954,8.705,8.705,0,0,0,5.335,2.953v2.241a1.775,1.775,0,0,0,3.474,0v-2.237c3.843-.651,6.739-3.424,6.739-6.737s-2.9-6.088-6.739-6.738m-6.739-4.206a4.2,4.2,0,0,1,3.265-3.805v7.609a4.2,4.2,0,0,1-3.265-3.8m6.739,14.748v-7.609a3.849,3.849,0,0,1,0,7.609" transform="translate(-287.762 642.32)" fill="#4889ff"/>
      </g>
    </g>
  </g>
</svg>
