<svg xmlns="http://www.w3.org/2000/svg" width="104.245" height="105.254" viewBox="0 0 104.245 105.254">
  <g id="Group_1433" data-name="Group 1433" transform="translate(-133.318 -146)">
    <g id="Group_1430" data-name="Group 1430" transform="translate(-1 -16.92)">
      <path id="Path_611" data-name="Path 611" d="M475.688,787.786l-7.228-7.228,7.228-7.228a2.815,2.815,0,0,0-3.981-3.981l-7.228,7.228-7.228-7.228a2.815,2.815,0,1,0-3.981,3.981l7.228,7.228-7.228,7.228a2.815,2.815,0,1,0,3.981,3.981l7.228-7.228,7.228,7.228a2.815,2.815,0,0,0,3.981-3.981Z" transform="translate(-276.707 -578.518)" fill="#4889ff"/>
      <g id="Group_1431" data-name="Group 1431">
        <g id="Icono_Ok" data-name="Icono Ok" transform="translate(139.39 162.67)">
          <path id="Union_9" data-name="Union 9" d="M15.823,60.421A32.519,32.519,0,0,1,33,0,32.8,32.8,0,0,1,66,32.589a32.453,32.453,0,0,1-14.66,27.1L33.531,78Z" transform="translate(-0.39 0.25)" fill="#4889ff" opacity="0.2"/>
        </g>
        <path id="Path_641" data-name="Path 641" d="M70.15,74.76l6.117-6.117a33.08,33.08,0,1,0-46.782,0L35.442,74.6C16.052,76.79,0,82.873,0,92.578c0,25.085,104.245,25.178,104.245,0C104.245,83.1,88.931,77.075,70.15,74.76ZM26.356,45.253A26.52,26.52,0,1,1,71.628,64.005L52.876,82.758,34.123,64.005A26.347,26.347,0,0,1,26.356,45.253Zm59.3,55.244c-18.439,5.9-48.633,5.9-67.076,0C10.278,97.841,6.56,94.606,6.56,92.578s3.718-5.262,12.025-7.918a100.892,100.892,0,0,1,22.879-4.038l9.093,9.093a3.281,3.281,0,0,0,4.638,0l8.982-8.982C85.61,82.5,97.685,88.654,97.685,92.578,97.685,94.606,93.967,97.841,85.661,100.5Z" transform="translate(134.318 156.747)" fill="#4889ff"/>
      </g>
    </g>
  </g>
</svg>
