<svg xmlns="http://www.w3.org/2000/svg" width="20" height="16.961" viewBox="0 0 20 16.961">
  <path id="ic_menu_charge" d="M1784.365,501.875c-.022,0-3.358-.765-3.379-.769a3.56,3.56,0,0,0-2.641.585l-.007,0-2.681,1.935a.98.98,0,0,0-1.014.066l-1.366.956a1.615,1.615,0,0,0-1.008-.614l-1.816-.32a1.652,1.652,0,0,0-1.911,1.338l-.056.318a.567.567,0,0,1-.658.461,1.648,1.648,0,0,0-1.911,1.338l-1.074,6.1a1.4,1.4,0,0,0,.873,1.544l-.362,2.053a.588.588,0,0,0,.477.681l2.6.458a.588.588,0,0,0,.681-.477l.358-2.027c.474.083-.081-.047,3.7.9a2.423,2.423,0,0,0,3.012-2.348l.006-5.058a.586.586,0,0,0-.106-.348l-.192-.274,1.364-.955a.979.979,0,0,0,.4-.98l2.693-1.94,3.766.823a.588.588,0,0,0,.713-.574v-2.3a.588.588,0,0,0-.457-.573Zm-16.31,14.87-1.441-.254.255-1.449,1.441.254Zm1.155-7.293.13,4.832-3.16-.557a.221.221,0,0,1-.179-.255l1.075-6.1a.474.474,0,0,1,.548-.384,1.741,1.741,0,0,0,2.021-1.414l.056-.318a.475.475,0,0,1,.549-.385l1.815.32a.448.448,0,0,1,.289.184l1.945,2.778-2.979-.525a1.8,1.8,0,0,0-2.111,1.82Zm5.791,4.6a1.248,1.248,0,0,1-1.551,1.209l-2.927-.732-.137-5.106a.623.623,0,0,1,.731-.63l1.218.215-.314,1.287a4.1,4.1,0,0,0,.456,3.074.588.588,0,0,0,1.012-.6,2.932,2.932,0,0,1-.326-2.2l.332-1.361,1.512.267Zm.21-6.641-1.256-1.794,1.2-.843,1.256,1.794Zm8.437-3.393-3.309-.723a.588.588,0,0,0-.469.1l-2.821,2.032-.626-.894,2.6-1.877a2.376,2.376,0,0,1,1.746-.391l2.878.656Zm0,0" transform="translate(-1764.823 -501.053)"/>
</svg>
