<svg xmlns="http://www.w3.org/2000/svg" width="19.041" height="21" viewBox="0 0 19.041 21">
  <path id="ic_menu_buy" d="M.631,20A.647.647,0,0,1,0,19.366V17.49a.627.627,0,0,1,.333-.558L1.2,16.48V2.491A2.474,2.474,0,0,1,3.638,0h7.215a2.427,2.427,0,0,1,2.379,2.491V6.3a3.289,3.289,0,0,1,2.4,3.062v5a.6.6,0,1,0,1.2,0V6.751a2.008,2.008,0,0,1-1.189-1.76.611.611,0,0,1,.057-.217L14.792,4.3a.639.639,0,0,1-.27-.84.585.585,0,0,1,.8-.278l2.4,1.25a.612.612,0,0,1,.317.558v9.375a1.8,1.8,0,1,1-3.607,0v-5a2.024,2.024,0,0,0-1.2-1.76V16.48l.868.452a.626.626,0,0,1,.334.558v1.876a.6.6,0,0,1-.572.634ZM2.405,2.491V16.865a.63.63,0,0,1-.331.56l-.871.452v.872H13.232v-.872l-.871-.452a.63.63,0,0,1-.334-.56V2.491a1.2,1.2,0,0,0-1.174-1.24H3.638A1.244,1.244,0,0,0,2.405,2.491Zm4.16,11.737V13.4a3.056,3.056,0,0,1-1.895-1.09.473.473,0,0,1,.177-.721.686.686,0,0,1,.851.149,1.754,1.754,0,0,0,.867.582V9.364A2.694,2.694,0,0,1,4.172,6.878,2.69,2.69,0,0,1,6.565,4.391V3.565a.574.574,0,0,1,.615-.521.577.577,0,0,1,.619.521v.828a3.059,3.059,0,0,1,1.894,1.09.472.472,0,0,1-.177.721.688.688,0,0,1-.853-.149A1.738,1.738,0,0,0,7.8,5.473V8.429a2.694,2.694,0,0,1,2.393,2.487A2.692,2.692,0,0,1,7.8,13.4v.826a.577.577,0,0,1-.619.521A.574.574,0,0,1,6.565,14.229ZM7.8,12.32a1.537,1.537,0,0,0,1.159-1.4A1.537,1.537,0,0,0,7.8,9.511ZM5.4,6.878a1.539,1.539,0,0,0,1.161,1.4V5.473A1.537,1.537,0,0,0,5.4,6.878Z" transform="translate(0.5 0.5)" stroke="rgba(0,0,0,0)" stroke-miterlimit="10" stroke-width="1"/>
</svg>
