<svg xmlns="http://www.w3.org/2000/svg" width="21" height="21" viewBox="0 0 21 21">
  <path id="ic_menu_help" d="M-8557.607,2213.341a10.011,10.011,0,0,1,10-10,10.009,10.009,0,0,1,10,10,10.01,10.01,0,0,1-10,10A10.013,10.013,0,0,1-8557.607,2213.341Zm1.317,0a8.693,8.693,0,0,0,8.684,8.684,8.694,8.694,0,0,0,8.684-8.684,8.7,8.7,0,0,0-8.684-8.684A8.7,8.7,0,0,0-8556.29,2213.341Zm7.83,5.5a1.2,1.2,0,0,1-.341-.871,1.2,1.2,0,0,1,.341-.87,1.156,1.156,0,0,1,.861-.349,1.153,1.153,0,0,1,.861.349,1.194,1.194,0,0,1,.344.87,1.181,1.181,0,0,1-.352.871,1.151,1.151,0,0,1-.854.349A1.146,1.146,0,0,1-8548.46,2218.838Zm.382-3.26a.794.794,0,0,1-.17-.536,3.2,3.2,0,0,1,.325-1.512,7.737,7.737,0,0,1,.942-1.349,7.464,7.464,0,0,0,.715-.976,1.717,1.717,0,0,0,.228-.878,1.036,1.036,0,0,0-.4-.856,1.692,1.692,0,0,0-1.079-.317,2.614,2.614,0,0,0-1.124.254,10.431,10.431,0,0,0-1.25.722,1.456,1.456,0,0,1-.668.229.6.6,0,0,1-.479-.254.911.911,0,0,1-.2-.593.909.909,0,0,1,.392-.763,5.059,5.059,0,0,1,1.608-.919,5.5,5.5,0,0,1,1.87-.334,4.337,4.337,0,0,1,1.764.342,2.876,2.876,0,0,1,1.2.944,2.3,2.3,0,0,1,.432,1.383,2.659,2.659,0,0,1-.405,1.47,9.138,9.138,0,0,1-1.188,1.407,10.717,10.717,0,0,0-1,1.146,2.327,2.327,0,0,0-.415,1.048.628.628,0,0,1-.22.4.65.65,0,0,1-.43.139A.574.574,0,0,1-8548.078,2215.577Z" transform="translate(8558.107 -2202.842)"  stroke="rgba(0,0,0,0)" stroke-miterlimit="10" stroke-width="1"/>
</svg>
