<svg id="ic_money" xmlns="http://www.w3.org/2000/svg" width="24.988" height="15" viewBox="0 0 24.988 15">
  <path id="Trazado_540" data-name="Trazado 540" d="M20.325,5.334a.577.577,0,0,0,.364-.147l4.125-3.771a.545.545,0,0,0,.134-.592.551.551,0,0,0-.5-.349H19.339c-.006,0-.016-.1-.033-.137a.539.539,0,0,0-.5-.337h-8.2a.543.543,0,0,0-.364.143L9.89.476H4.66A.554.554,0,0,0,4.3.629L.172,4.394a.545.545,0,0,0-.134.592.551.551,0,0,0,.5.349h5.1V7.448H.536a.528.528,0,1,0,0,1.056h5.1v2.218H.536a.528.528,0,1,0,0,1.056h5.1v2.165H.536A.529.529,0,1,0,.536,15h19.79a.534.534,0,0,0,.294-.1l4.125-2.662a.527.527,0,1,0-.584-.877h0l-4,2.583H14.9V11.778h5.422a.536.536,0,0,0,.311-.106l4.126-2.936A.517.517,0,0,0,24.88,8a.534.534,0,0,0-.745-.116l-3.981,2.836H14.9V8.5h5.422a.534.534,0,0,0,.332-.1L24.783,5.2a.525.525,0,0,0,.081-.745.541.541,0,0,0-.745-.09L20.138,7.447H14.9V5.334Zm-1.794-3.8h4.554L20.117,4.278H15.558L18.51,1.552s.011-.021.021-.021ZM5.785,4.278H1.9L4.87,1.532H8.737l-2.925,2.7C5.8,4.241,5.8,4.225,5.785,4.278ZM14,4.22a.546.546,0,0,0-.172.4v9.322H6.707V4.854l3.67-3.375.445-.423h6.627Z" transform="translate(0)" fill="#8c95a8"/>
  <path id="Trazado_541" data-name="Trazado 541" d="M70.593,48.841V46.65a1.35,1.35,0,0,1,.666.431.546.546,0,0,0,.658.11.344.344,0,0,0,.135-.535,2.381,2.381,0,0,0-1.459-.807v-.613a.486.486,0,0,0-.951,0v.612a1.842,1.842,0,0,0,0,3.684v2.19a1.35,1.35,0,0,1-.666-.431.542.542,0,0,0-.658-.11.343.343,0,0,0-.135.534,2.381,2.381,0,0,0,1.459.807v.613a.486.486,0,0,0,.951,0v-.612a1.841,1.841,0,1,0,0-3.682ZM68.75,47.691a1.151,1.151,0,0,1,.892-1.041v2.08a1.147,1.147,0,0,1-.892-1.04Zm1.843,4.032v-2.08a1.052,1.052,0,0,1,0,2.08Zm0,0" transform="translate(-59.881 -39.826)" fill="#8c95a8"/>
</svg>
