<svg xmlns="http://www.w3.org/2000/svg" width="20" height="17.222" viewBox="0 0 20 17.222">
  <path id="ic_menu_wallet" d="M116.074,384.272h-.267v-2.6a2.276,2.276,0,0,0-2.274-2.274h-.23l0-.842a1.6,1.6,0,0,0-1.6-1.6H99.271a1.906,1.906,0,0,0-1.9,1.876V392.58a1.6,1.6,0,0,0,1.6,1.6h14.568a2.276,2.276,0,0,0,2.274-2.274V389.3h.267a1.294,1.294,0,0,0,1.293-1.293v-2.442A1.3,1.3,0,0,0,116.074,384.272ZM111.94,379.4H99.271a.538.538,0,0,1,0-1.076h12.437a.236.236,0,0,1,.235.23Zm4.063,6.24v2.3h-4.578v-2.3Zm-1.56-1.364h-3.093a1.294,1.294,0,0,0-1.293,1.293v2.44a1.294,1.294,0,0,0,1.293,1.293h3.093v2.6a.911.911,0,0,1-.91.91H98.965a.235.235,0,0,1-.235-.235V380.682a1.888,1.888,0,0,0,.54.078h14.263a.911.911,0,0,1,.91.91Z" transform="translate(-97.371 -376.956)" />
</svg>
