<svg xmlns="http://www.w3.org/2000/svg" width="21.003" height="21" viewBox="0 0 21.003 21">
  <path id="ic_menu_logout" d="M-8545.852,2131.921l-5.014-1.67a1.684,1.684,0,0,1-1.136-1.586v-15a1.67,1.67,0,0,1,1.668-1.667h9.373a2.3,2.3,0,0,1,2.292,2.293v3.748a.627.627,0,0,1-.627.626.626.626,0,0,1-.624-.626v-3.748a1.043,1.043,0,0,0-1.041-1.044h-5.34l1.5.5a1.681,1.681,0,0,1,1.133,1.586v12.915h2.709a1.044,1.044,0,0,0,1.043-1.042v-3.75a.624.624,0,0,1,.624-.626.626.626,0,0,1,.625.626v3.75a2.294,2.294,0,0,1-2.292,2.291h-2.709v.834a1.668,1.668,0,0,1-1.665,1.667A1.675,1.675,0,0,1-8545.852,2131.921Zm-4.9-18.254v15a.431.431,0,0,0,.287.4l4.992,1.663a.464.464,0,0,0,.136.018.417.417,0,0,0,.416-.416v-15a.431.431,0,0,0-.288-.4l-4.992-1.663a.383.383,0,0,0-.135-.021A.418.418,0,0,0-8550.749,2113.667Zm14.556,10.649a.628.628,0,0,1,0-.883l2.059-2.058h-6.407a.624.624,0,0,1-.624-.626.624.624,0,0,1,.624-.626h6.409l-2.061-2.058a.628.628,0,0,1,0-.883.625.625,0,0,1,.884,0l3.125,3.124a.619.619,0,0,1,.17.567.189.189,0,0,1-.009.032.561.561,0,0,1-.025.083.484.484,0,0,1-.03.054.428.428,0,0,1-.025.052.929.929,0,0,1-.082.1l-3.123,3.122a.621.621,0,0,1-.441.183A.625.625,0,0,1-8536.193,2124.316Z" transform="translate(8552.501 -2111.5)"  stroke="rgba(0,0,0,0)" stroke-miterlimit="10" stroke-width="1"/>
</svg>
