<svg xmlns="http://www.w3.org/2000/svg" width="20.502" height="18.36" viewBox="0 0 20.502 18.36">
  <path id="ic_menu_home" d="M502.512,361.92a.571.571,0,0,0-.228-.376l-9.425-6.9a.572.572,0,0,0-.679,0l-9.425,6.9a.575.575,0,1,0,.679.927l1.278-.936V371.8a.575.575,0,0,0,.575.575h5.166a.577.577,0,0,0,.572-.528.448.448,0,0,0,0-.046v-5.006a1.492,1.492,0,0,1,2.984,0V371.8a.429.429,0,0,0,0,.044.577.577,0,0,0,.572.53h5.166a.575.575,0,0,0,.575-.575V361.536l1.278.936a.57.57,0,0,0,.339.111.577.577,0,0,0,.464-.235A.57.57,0,0,0,502.512,361.92Zm-9.993,2.231a2.644,2.644,0,0,0-2.641,2.641v4.431H485.86v-10.53l6.658-4.875,6.658,4.875v10.53H495.16v-4.431A2.644,2.644,0,0,0,492.518,364.152Z" transform="translate(-482.267 -354.263)"  stroke-width="0.5"/>
</svg>
