<svg xmlns="http://www.w3.org/2000/svg" width="21" height="21" viewBox="0 0 21 21">
  <path id="ic_menu_settings" d="M-8542.869,2179a1.358,1.358,0,0,1-1.346-1.14l-.217-1.3a8.031,8.031,0,0,1-1.16-.475l-1.082.771a1.343,1.343,0,0,1-.789.253,1.347,1.347,0,0,1-.963-.4l-1.229-1.229a1.355,1.355,0,0,1-.148-1.756l.758-1.055a7.853,7.853,0,0,1-.5-1.2l-1.312-.224a1.362,1.362,0,0,1-1.141-1.347v-1.732a1.362,1.362,0,0,1,1.141-1.347l1.279-.217a7.616,7.616,0,0,1,.488-1.2l-.773-1.084a1.363,1.363,0,0,1,.148-1.756l1.232-1.226a1.337,1.337,0,0,1,.965-.4,1.338,1.338,0,0,1,.791.253l1.059.761a7.852,7.852,0,0,1,1.2-.5l.225-1.313A1.36,1.36,0,0,1-8542.9,2159h1.73a1.363,1.363,0,0,1,1.348,1.137l.215,1.279a8.006,8.006,0,0,1,1.252.513l1.07-.763a1.356,1.356,0,0,1,.787-.253,1.353,1.353,0,0,1,.967.4l1.227,1.226a1.36,1.36,0,0,1,.146,1.757l-.762,1.067a8.276,8.276,0,0,1,.5,1.2l1.291.221a1.338,1.338,0,0,1,1.131,1.347v1.732a1.36,1.36,0,0,1-1.137,1.347l-1.295.214a7.8,7.8,0,0,1-.5,1.2l.762,1.072a1.36,1.36,0,0,1-.146,1.756l-1.227,1.229a1.358,1.358,0,0,1-.965.4,1.354,1.354,0,0,1-.793-.253l-1.066-.764a7.625,7.625,0,0,1-1.2.5l-.219,1.3a1.359,1.359,0,0,1-1.344,1.14Zm-2.414-4.334a6.6,6.6,0,0,0,1.652.677.708.708,0,0,1,.516.561l.281,1.7h1.67l.287-1.7a.686.686,0,0,1,.516-.564,6.533,6.533,0,0,0,1.686-.7.7.7,0,0,1,.766.031l1.4,1,1.182-1.183-1-1.407a.7.7,0,0,1-.029-.764,6.489,6.489,0,0,0,.7-1.687.7.7,0,0,1,.561-.515l1.7-.282,0-1.67-1.7-.287a.69.69,0,0,1-.562-.518,6.473,6.473,0,0,0-.7-1.684.7.7,0,0,1,.031-.766l1-1.4-1.18-1.181-1.395,1a.7.7,0,0,1-.764.034,6.585,6.585,0,0,0-1.73-.71.707.707,0,0,1-.52-.566l-.283-1.684h-1.67l-.291,1.711a.713.713,0,0,1-.514.561,6.4,6.4,0,0,0-1.682.708.716.716,0,0,1-.771-.031l-1.393-.995-1.184,1.183,1.008,1.415a.7.7,0,0,1,.035.761,6.463,6.463,0,0,0-.689,1.691.7.7,0,0,1-.564.521l-1.686.282v1.67l1.709.289a.711.711,0,0,1,.561.513,6.317,6.317,0,0,0,.711,1.684.715.715,0,0,1-.031.771l-.994,1.395,1.182,1.181,1.414-1a.685.685,0,0,1,.408-.128A.726.726,0,0,1-8545.283,2174.666Zm-.217-5.669a3.507,3.507,0,0,1,3.5-3.5,3.506,3.506,0,0,1,3.5,3.5,3.506,3.506,0,0,1-3.5,3.5A3.507,3.507,0,0,1-8545.5,2169Zm1.488,0a2.019,2.019,0,0,0,2.016,2.016,2.019,2.019,0,0,0,2.014-2.016,2.017,2.017,0,0,0-2.014-2.014A2.017,2.017,0,0,0-8544.012,2169Z" transform="translate(8552.5 -2158.5)"  stroke="rgba(0,0,0,0)" stroke-miterlimit="10" stroke-width="1"/>
</svg>
