<svg xmlns="http://www.w3.org/2000/svg" width="13.618" height="20" viewBox="0 0 13.618 20">
  <g id="ic_menu_pay_in_store" transform="translate(-17 -11)">
    <path id="Trazado_587" data-name="Trazado 587" d="M3045.4,1372.073a.664.664,0,0,0-.664.663h0a.664.664,0,1,0,.664-.664Z" transform="translate(-3019.097 -1343.602)" />
    <path id="Trazado_588" data-name="Trazado 588" d="M2836.315,932.384h-1.909l-.235-2.614a.423.423,0,0,0-.423-.387h-1.7v-.794a2.471,2.471,0,1,0-4.942,0v.794h-1.7a.423.423,0,0,0-.423.387l-.8,8.961a.425.425,0,0,0,.423.462h4.574v5.448a1.478,1.478,0,0,0,1.476,1.476h5.667a1.478,1.478,0,0,0,1.476-1.476V933.86A1.478,1.478,0,0,0,2836.315,932.384Zm-8.362-3.795a1.622,1.622,0,1,1,3.244,0v.794h-3.244Zm1.218,5.271v4.485h-4.109l.729-8.112h1.314v.894a.424.424,0,1,0,.849,0v-.894h3.244v.894a.424.424,0,1,0,.849,0v-.894h1.314l.193,2.152h-2.906A1.478,1.478,0,0,0,2829.172,933.86Zm7.837,10.782a.694.694,0,0,1-.693.693h-5.667a.694.694,0,0,1-.693-.693V933.86a.694.694,0,0,1,.693-.693h5.667a.694.694,0,0,1,.693.693Z" transform="translate(-2807.174 -915.118)" />
    <path id="Trazado_589" data-name="Trazado 589" d="M2996.564,1130.3h-4.759a.389.389,0,0,0-.388.388v8.317a.389.389,0,0,0,.388.388h4.759a.389.389,0,0,0,.388-.388v-8.317A.389.389,0,0,0,2996.564,1130.3Zm-.388,8.317h-3.983v-7.54h3.983Z" transform="translate(-2967.904 -1111.371)" />
    <path id="Trazado_590" data-name="Trazado 590" d="M3031.222,1183.069v-.349a.276.276,0,0,0-.541,0v.348a1.049,1.049,0,1,0,0,2.1v1.247a.774.774,0,0,1-.379-.245.309.309,0,0,0-.374-.063.2.2,0,0,0-.077.3,1.352,1.352,0,0,0,.831.46v.349a.276.276,0,0,0,.541,0v-.348a1.049,1.049,0,1,0,0-2.1v-1.247a.769.769,0,0,1,.379.245.31.31,0,0,0,.374.063.2.2,0,0,0,.077-.3A1.353,1.353,0,0,0,3031.222,1183.069Zm-.541,1.64a.6.6,0,0,1,0-1.184Zm1.048,1.111a.654.654,0,0,1-.508.592v-1.184A.654.654,0,0,1,3031.729,1185.82Z" transform="translate(-3004.588 -1161.467)" />
  </g>
</svg>
