<svg xmlns="http://www.w3.org/2000/svg" width="17.069" height="20" viewBox="0 0 17.069 20">
  <path id="ic_menu_topup" d="M2288.978,973.787a.391.391,0,0,0-.276-.114h-9.609a.391.391,0,0,0-.391.391v1.117l-3.7.992a.391.391,0,0,0-.276.478l1.919,7.162-1.66,1.66a1.171,1.171,0,0,0-.967-.511h-.819a1.173,1.173,0,0,0-1.172,1.172V992.5a1.173,1.173,0,0,0,1.172,1.172h.819a1.174,1.174,0,0,0,1.137-.89l.464.4a1.968,1.968,0,0,0,1.293.485H2288.7a.391.391,0,0,0,.391-.391V974.064A.39.39,0,0,0,2288.978,973.787ZM2274.405,992.5h0a.391.391,0,0,1-.391.391h-.82a.391.391,0,0,1-.391-.391v-6.367a.391.391,0,0,1,.391-.391h.82a.391.391,0,0,1,.391.391Zm1.173-15.674,3.123-.837v1.447l-.035,7.954h-.784l-.4-1.581a.393.393,0,0,0-.066-.137Zm8.735,16.065h-7.4a1.185,1.185,0,0,1-.78-.292l-.944-.823v-5.4l1.705-1.705.309,1.21a.391.391,0,0,0,.379.294h7.68a.547.547,0,0,1,0,1.094h-3.935a.391.391,0,1,0,0,.781h5.158a.547.547,0,0,1,0,1.094h-5.158a.391.391,0,1,0,0,.781h4.322a.547.547,0,1,1,0,1.094h-4.322a.391.391,0,1,0,0,.781h2.989a.547.547,0,1,1,0,1.094Zm2.453-13.712V987.3a1.335,1.335,0,0,0-.285-.031h-.013a1.314,1.314,0,0,0,.119-.547,1.33,1.33,0,0,0-1.328-1.328h-.872v-.005a1.437,1.437,0,1,0,0-2.873v-1.708a1.057,1.057,0,0,1,.519.336.425.425,0,0,0,.513.086.268.268,0,0,0,.105-.417,1.855,1.855,0,0,0-1.137-.63V979.7a.378.378,0,0,0-.741,0v.477a1.437,1.437,0,1,0,0,2.873v1.708a1.058,1.058,0,0,1-.52-.336.424.424,0,0,0-.512-.086.269.269,0,0,0-.105.417,1.856,1.856,0,0,0,1.137.63v.006h-2.619v-7.427a1.839,1.839,0,0,0,1.4-1.4h2.938a1.839,1.839,0,0,0,1.4,1.4v1.214Zm-2.379,5.581v-1.622a.821.821,0,0,1,0,1.622Zm-.741-3.956v1.622a.821.821,0,0,1,0-1.622Zm4.664,12.086h-2.788a1.325,1.325,0,0,0,0-1.094h.123a19.707,19.707,0,0,1,2.164-3.2,1.321,1.321,0,0,0-.262-.791v-8.883h0v-1.3a.391.391,0,0,0-.391-.391,1.053,1.053,0,0,1-1.052-1.052.391.391,0,0,0-.391-.391h-3.635a.391.391,0,0,0-.391.391,1.053,1.053,0,0,1-1.052,1.052.391.391,0,0,0-.39.391v7.776h-.763V974.455h8.828Z" transform="translate(-2272.023 -973.673)" />
</svg>
