<svg xmlns="http://www.w3.org/2000/svg" width="19" height="19" viewBox="0 0 19 19">
  <path id="ic_movements" d="M-7896.074,4305.027a9.01,9.01,0,0,1,9-9,9.01,9.01,0,0,1,9,9,9.009,9.009,0,0,1-9,9A9.01,9.01,0,0,1-7896.074,4305.027Zm1.184,0a7.826,7.826,0,0,0,7.817,7.815,7.826,7.826,0,0,0,7.815-7.815,7.826,7.826,0,0,0-7.815-7.817A7.826,7.826,0,0,0-7894.89,4305.027Zm7.145,5.793v-.17a.674.674,0,0,1,.672-.673.673.673,0,0,1,.671.673v.17a.673.673,0,0,1-.671.672A.674.674,0,0,1-7887.745,4310.82Zm-3.89-1.232a.66.66,0,0,1-.2-.471.66.66,0,0,1,.2-.473l.12-.119a.66.66,0,0,1,.472-.2.659.659,0,0,1,.471.2.659.659,0,0,1,.2.472.667.667,0,0,1-.2.473l-.118.119a.673.673,0,0,1-.472.2A.662.662,0,0,1-7891.635,4309.588Zm7.821-.357-3.731-3.731a.666.666,0,0,1-.2-.473v-3.238a.674.674,0,0,1,.672-.672.673.673,0,0,1,.671.672v2.964l3.533,3.533a.661.661,0,0,1,0,.945.666.666,0,0,1-.473.2A.666.666,0,0,1-7883.814,4309.231Zm2.364-3.533a.673.673,0,0,1-.672-.671.674.674,0,0,1,.672-.672h.17a.674.674,0,0,1,.672.672.673.673,0,0,1-.672.671Zm-11.417,0a.672.672,0,0,1-.67-.671.673.673,0,0,1,.67-.672h.172a.672.672,0,0,1,.67.672.672.672,0,0,1-.67.671Zm9.292-4.169a.664.664,0,0,1-.2-.472.659.659,0,0,1,.2-.472l.118-.12a.664.664,0,0,1,.472-.2.66.66,0,0,1,.473.2.663.663,0,0,1,.2.473.666.666,0,0,1-.2.472l-.12.119a.662.662,0,0,1-.47.2A.664.664,0,0,1-7883.576,4301.529Zm-7.94,0-.12-.119a.666.666,0,0,1-.2-.472.663.663,0,0,1,.2-.473.663.663,0,0,1,.473-.2.658.658,0,0,1,.47.2l.12.12a.66.66,0,0,1,0,.944.666.666,0,0,1-.471.2A.667.667,0,0,1-7891.516,4301.529Zm3.771-2.125v-.172a.672.672,0,0,1,.672-.67.672.672,0,0,1,.671.67v.172a.672.672,0,0,1-.671.67A.672.672,0,0,1-7887.745,4299.4Z" transform="translate(7896.574 -4295.526)" fill="#3f506a" stroke="rgba(0,0,0,0)" stroke-miterlimit="10" stroke-width="1"/>
</svg>
