<svg xmlns="http://www.w3.org/2000/svg" width="120" height="31.265" viewBox="0 0 120 31.265">
  <g id="Group_1393" data-name="Group 1393" transform="translate(-255.172 -254.449)">
    <path id="Path_612" data-name="Path 612" d="M277.289,254.449c-12.214,0-22.114,6.453-22.114,14.368,0,.2,0,.77,0,.842,0,8.4,8.654,15.2,22.114,15.2,13.544,0,22.118-6.8,22.118-15.2v-.842C299.4,260.9,289.5,254.449,277.289,254.449Zm0,27.873c-11.744,0-21.264-6.049-21.264-13.512s9.52-13.512,21.264-13.512,21.264,6.049,21.264,13.512S289.037,282.322,277.293,282.322Z" fill="#fff"/>
    <path id="Path_613" data-name="Path 613" d="M290.671,278.246c-2.1-1.831-6.947-6.047-8.26-7.032a5.762,5.762,0,0,0-1.712-1,2.83,2.83,0,0,0-.84-.131,3.536,3.536,0,0,0-1.067.18,8.738,8.738,0,0,0-2.512,1.59l-.042.034a6.944,6.944,0,0,1-2.144,1.365,3.647,3.647,0,0,1-.795.089,2.037,2.037,0,0,1-1.491-.481c-.037-.047-.013-.124.074-.235l.011-.014,1.845-1.989c1.446-1.446,2.811-2.811,5.954-2.882.051,0,.1,0,.157,0a11.119,11.119,0,0,1,4.131.979,12.794,12.794,0,0,0,5.632,1.351,14.7,14.7,0,0,0,6.182-1.482q-.361-.3-.748-.592a13.6,13.6,0,0,1-5.429,1.233,11.973,11.973,0,0,1-5.269-1.268,11.875,11.875,0,0,0-4.5-1.062l-.177,0a7.8,7.8,0,0,0-5.127,1.821,10.161,10.161,0,0,0-2.558.466,6.964,6.964,0,0,1-1.8.346c-.231,0-.647-.022-.685-.023a35.062,35.062,0,0,1-6.481-1.8c-.264.187-.518.38-.765.577a32.059,32.059,0,0,0,7.027,2.031c.289.019.6.052.9.052a7.667,7.667,0,0,0,2.034-.378c.392-.11.824-.23,1.278-.317q-.183.179-.364.361l-1.875,2.029a.943.943,0,0,0-.257,1.036,1.324,1.324,0,0,0,.493.547,3.913,3.913,0,0,0,1.99.5,3.622,3.622,0,0,0,.794-.082,7.21,7.21,0,0,0,2.484-1.528,8.28,8.28,0,0,1,2.441-1.462,2.788,2.788,0,0,1,.68-.093,1.36,1.36,0,0,1,.177.01,3.669,3.669,0,0,1,1.847.882c1.539,1.156,8.35,7.115,8.417,7.174a1.309,1.309,0,0,1,.409,1,1.092,1.092,0,0,1-.544.87,1.661,1.661,0,0,1-.895.279,1.475,1.475,0,0,1-.789-.229c-.025-.021-2.359-2.16-3.217-2.879a.721.721,0,0,0-.4-.215.22.22,0,0,0-.178.085c-.136.166.016.4.194.548l2.726,2.741A1.286,1.286,0,0,1,288,282a1.244,1.244,0,0,1-.648,1.13,1.754,1.754,0,0,1-.966.32,1.407,1.407,0,0,1-.777-.235l-.391-.386c-.714-.7-1.453-1.43-1.992-1.881a.725.725,0,0,0-.406-.211.232.232,0,0,0-.172.073c-.061.068-.1.192.049.4a1.334,1.334,0,0,0,.137.153l1.99,2.235a.763.763,0,0,1,.045.953l-.071.089a2.042,2.042,0,0,1-.184.178,1.592,1.592,0,0,1-.973.309,1.566,1.566,0,0,1-.268-.023.677.677,0,0,1-.392-.166l-.024-.026c-.109-.112-1.112-1.136-1.941-1.828a.687.687,0,0,0-.387-.207.235.235,0,0,0-.179.081c-.164.18.082.448.187.547l1.7,1.871a.393.393,0,0,1-.065.114c-.06.084-.266.29-.882.367a1.716,1.716,0,0,1-.225.013,3.883,3.883,0,0,1-1.66-.493,2.531,2.531,0,0,0-2.289-3.609h-.091a2.248,2.248,0,0,0-1.283-2.376,2.673,2.673,0,0,0-1.058-.233,1.432,1.432,0,0,1-2.015-.911,2.763,2.763,0,0,0-.908-.16,2.39,2.39,0,0,0-1.414.453,2.133,2.133,0,0,0-3.176-.179c-.528-.4-2.623-1.734-8.23-3.007-.271-.061-.894-.241-1.277-.352a9.041,9.041,0,0,0-.143.919s1.034.248,1.238.294c5.728,1.272,7.621,2.6,7.94,2.845a2.147,2.147,0,0,0,1.981,2.972,2.116,2.116,0,0,0,.393-.036,2.5,2.5,0,0,0,1.62,1.87,2.137,2.137,0,0,0,.764.148,1.923,1.923,0,0,0,.489-.062,2.493,2.493,0,0,0,2.175,1.421,1.9,1.9,0,0,0,.656-.117,2.526,2.526,0,0,0,4.152.8,4.775,4.775,0,0,0,2.143.639,2.673,2.673,0,0,0,.324-.02,1.968,1.968,0,0,0,1.454-.711,1.058,1.058,0,0,0,.089-.146,2.448,2.448,0,0,0,.686.107,2.311,2.311,0,0,0,1.385-.5,1.907,1.907,0,0,0,.817-1.188l0-.017a2.247,2.247,0,0,0,.463.048,2.577,2.577,0,0,0,1.423-.451,2.053,2.053,0,0,0,1.021-1.829,2.306,2.306,0,0,0,.469.048,2.457,2.457,0,0,0,1.333-.41,1.945,1.945,0,0,0,.926-1.507,2.027,2.027,0,0,0-.294-1.218,55.045,55.045,0,0,1,8.836-2.766,9.005,9.005,0,0,0-.123-.917A50.626,50.626,0,0,0,290.671,278.246Zm-13.461,7.78a1.719,1.719,0,0,1-1.729-1.654c0-.079-.011-.29-.189-.29a.326.326,0,0,0-.211.111,1.221,1.221,0,0,1-.85.384,1.484,1.484,0,0,1-.56-.122c-.987-.4-1-1.078-.961-1.35a.249.249,0,0,0-.035-.208l-.061-.054h-.062a.3.3,0,0,0-.172.07,1.442,1.442,0,0,1-.838.3,1.288,1.288,0,0,1-.468-.092,1.814,1.814,0,0,1-1.134-2.1.177.177,0,0,0-.056-.171l-.092-.075-.086.082a1.338,1.338,0,0,1-.933.379,1.349,1.349,0,1,1,1.333-1.521l.046.363.2-.307A1.877,1.877,0,0,1,272.51,279a1.365,1.365,0,0,1,.956,1.27c.014.176.14.185.164.185a.218.218,0,0,0,.156-.082,1.364,1.364,0,0,1,.994-.419,1.912,1.912,0,0,1,.745.168c1.27.545.694,2.159.687,2.176-.109.268-.113.386-.011.454l.051.024h.037a.9.9,0,0,0,.246-.065,2.152,2.152,0,0,1,.678-.149h0a1.732,1.732,0,1,1,0,3.465Z" transform="translate(-1.554 -7.915)" fill="#fff"/>
    <path id="Path_614" data-name="Path 614" d="M568.654,266.239a5.153,5.153,0,0,0-7.27,0,5.862,5.862,0,0,0,0,7.1,5.209,5.209,0,0,0,7.27,0,5.868,5.868,0,0,0,0-7.1Zm-1.977,5.737a2.189,2.189,0,0,1-3.336,0,4.387,4.387,0,0,1,0-4.38,2.2,2.2,0,0,1,3.336,0,4.42,4.42,0,0,1,0,4.38Z" transform="translate(-194.679 -6.541)" fill="#fff"/>
    <path id="Path_615" data-name="Path 615" d="M514.914,265.483a6.062,6.062,0,0,0-2.779-.618,4.081,4.081,0,0,0-3.392,1.253,3.651,3.651,0,0,0-.7,2.046h2.4a1.8,1.8,0,0,1,.353-.87,1.579,1.579,0,0,1,1.26-.435,2.583,2.583,0,0,1,1.206.223.835.835,0,0,1,.411.8.747.747,0,0,1-.536.705,3.925,3.925,0,0,1-.992.218l-.849.1a6.032,6.032,0,0,0-2.191.609,2.7,2.7,0,0,0-1.36,2.533,2.611,2.611,0,0,0,.846,2.085,3.35,3.35,0,0,0,2.14.736c5.416.242,5.354-2.853,5.4-3.5v-3.563A2.373,2.373,0,0,0,514.914,265.483Zm-1.258,5.406a1.987,1.987,0,0,1-.711,1.715,2.587,2.587,0,0,1-1.5.471,1.366,1.366,0,0,1-.872-.283,1.1,1.1,0,0,1-.356-.919,1.131,1.131,0,0,1,.585-1.052,3.7,3.7,0,0,1,1.141-.339l.566-.1a4.082,4.082,0,0,0,.664-.172,2.473,2.473,0,0,0,.48-.238Z" transform="translate(-161.197 -6.621)" fill="#fff"/>
    <path id="Path_616" data-name="Path 616" d="M485.187,267.041a1.615,1.615,0,0,1,1.368.573,2.13,2.13,0,0,1,.376.955h2.67a3.655,3.655,0,0,0-1.414-2.821,5.448,5.448,0,0,0-3.072-.8,4.482,4.482,0,0,0-3.461,1.355,5.361,5.361,0,0,0-1.255,3.788,5.278,5.278,0,0,0,1.136,3.51,4.366,4.366,0,0,0,3.542,1.354,4.271,4.271,0,0,0,3.636-1.623,4,4,0,0,0,.86-2.135h-2.662a2.247,2.247,0,0,1-.467,1.216,1.6,1.6,0,0,1-1.3.468,1.741,1.741,0,0,1-1.761-1.181,4.525,4.525,0,0,1-.257-1.669,4.946,4.946,0,0,1,.257-1.749A1.8,1.8,0,0,1,485.187,267.041Z" transform="translate(-143.752 -6.675)" fill="#fff"/>
    <path id="Path_617" data-name="Path 617" d="M469.421,264.949c-5.487,0-5.162,4.858-5.162,4.858v4.935h2.49v-4.628a3.815,3.815,0,0,1,.285-1.686,2.053,2.053,0,0,1,2-.972c.075,0,.173,0,.3.01s.258.016.417.035v-2.533c-.111-.007-.182-.011-.213-.014S469.467,264.949,469.421,264.949Z" transform="translate(-133.431 -6.675)" fill="#fff"/>
    <path id="Path_618" data-name="Path 618" d="M441.889,272.164a1.791,1.791,0,0,1-.341.376,2.121,2.121,0,0,1-1.392.378,2.36,2.36,0,0,1-1.325-.319,2.243,2.243,0,0,1-1.008-1.977h6.889a12.557,12.557,0,0,0-.082-1.876,4.665,4.665,0,0,0-.753-1.956,3.86,3.86,0,0,0-1.635-1.4,5.4,5.4,0,0,0-2.223-.442,4.564,4.564,0,0,0-3.383,1.311,5.124,5.124,0,0,0-1.3,3.768,4.585,4.585,0,0,0,1.445,3.787,5.156,5.156,0,0,0,3.331,1.164,4.592,4.592,0,0,0,3.558-1.38,3.337,3.337,0,0,0,.864-1.435Zm-3.347-4.636a1.964,1.964,0,0,1,1.476-.54,2.165,2.165,0,0,1,1.467.509,2.066,2.066,0,0,1,.658,1.494h-4.26A2.565,2.565,0,0,1,438.542,267.528Z" transform="translate(-114.988 -6.675)" fill="#fff"/>
    <path id="Path_619" data-name="Path 619" d="M408.852,274.684h-2.274v-5.727a1.6,1.6,0,0,0-1.673-1.767,1.676,1.676,0,0,0-1.724,1.767v5.727H400.9v-5.727a1.583,1.583,0,0,0-1.655-1.767,1.666,1.666,0,0,0-1.725,1.767v5.727h-2.276v-5.672a3.9,3.9,0,0,1,4-4.153,3.5,3.5,0,0,1,2.828,1.319,3.625,3.625,0,0,1,2.827-1.319c2.482,0,3.947,1.716,3.947,4.153Z" transform="translate(-89.42 -6.618)" fill="#fff"/>
    <path id="Path_620" data-name="Path 620" d="M542.073,256.721s-2.508-.268-2.508,1.747v2.667a3,3,0,0,0-1.085-1.045,3.053,3.053,0,0,0-1.528-.379,3.629,3.629,0,0,0-2.979,1.389,6.113,6.113,0,0,0-1.114,3.874,5.151,5.151,0,0,0,1.132,3.441,4.8,4.8,0,0,0,3.549,1.285c4.584,0,4.532-3.932,4.532-3.932Zm-2.986,10.172a1.825,1.825,0,0,1-1.6.781,1.745,1.745,0,0,1-1.566-.786,4,4,0,0,1-.516-2.159,3.8,3.8,0,0,1,.507-2.036,1.737,1.737,0,0,1,1.592-.82,1.889,1.889,0,0,1,1.25.451,3.256,3.256,0,0,1,.876,2.547A3.454,3.454,0,0,1,539.087,266.893Z" transform="translate(-177.308 -1.437)" fill="#fff"/>
    <path id="Path_621" data-name="Path 621" d="M440.812,314.628a1.169,1.169,0,0,1-.368.867,1.2,1.2,0,0,1-.878.361h-1.243V307.2a3.992,3.992,0,0,1,1.5-3.448,5.006,5.006,0,0,1,3.258-.92,4.365,4.365,0,0,1,3.259,1.348,5.319,5.319,0,0,1,1.17,3.6,5.829,5.829,0,0,1-1.1,3.684,3.446,3.446,0,0,1-2.819,1.372,3.786,3.786,0,0,1-1.609-.324,2.73,2.73,0,0,1-1.171-1.121Zm4.172-6.736a3.652,3.652,0,0,0-.55-2.167,1.831,1.831,0,0,0-1.574-.759,1.8,1.8,0,0,0-1.538.759,3.667,3.667,0,0,0-.51,2.167,3.247,3.247,0,0,0,.549,2.059,1.823,1.823,0,0,0,1.574.758,1.752,1.752,0,0,0,1.5-.758,3.435,3.435,0,0,0,.55-2.059" transform="translate(-116.897 -30.964)" fill="#fff"/>
    <path id="Path_622" data-name="Path 622" d="M497.4,311.979v-.611a2.749,2.749,0,0,1-1.743,1.262,3.563,3.563,0,0,1-2.174-.182,4.035,4.035,0,0,1-1.854-1.6,5.54,5.54,0,0,1-.771-3.087,5.973,5.973,0,0,1,1.023-3.626,3.933,3.933,0,0,1,3.29-1.389,4.567,4.567,0,0,1,3.2.939,4.014,4.014,0,0,1,1.474,3.463v5.091a4.248,4.248,0,0,1-4.673,4.367,4.1,4.1,0,0,1-4.1-3.1H493.7a1.858,1.858,0,0,0,.882.773,1.839,1.839,0,0,0,1.184.145,1.968,1.968,0,0,0,1.081-.7,2.955,2.955,0,0,0,.556-1.734m-4.1-4.148q0,2.49,1.439,2.761a1.961,1.961,0,0,0,2.12-.669,2.682,2.682,0,0,0,.467-1.243A5.251,5.251,0,0,0,497.35,307a3.336,3.336,0,0,0-.593-1.481,1.577,1.577,0,0,0-1.365-.65,1.659,1.659,0,0,0-1.654.9,4.693,4.693,0,0,0-.432,2.058" transform="translate(-150.429 -30.903)" fill="#fff"/>
    <path id="Path_623" data-name="Path 623" d="M472.5,303.556a6.085,6.085,0,0,0-2.779-.616,4.081,4.081,0,0,0-3.393,1.252,3.644,3.644,0,0,0-.7,2.046h2.4a1.785,1.785,0,0,1,.353-.871,1.581,1.581,0,0,1,1.259-.435,2.568,2.568,0,0,1,1.205.223.835.835,0,0,1,.411.8.748.748,0,0,1-.535.706,3.952,3.952,0,0,1-.992.217l-.849.1a6.034,6.034,0,0,0-2.191.611,2.7,2.7,0,0,0-1.361,2.532,2.612,2.612,0,0,0,.846,2.084,3.355,3.355,0,0,0,2.14.736c5.413.242,5.353-2.853,5.4-3.5v-3.563a2.373,2.373,0,0,0-1.213-2.333m-1.259,5.406a1.984,1.984,0,0,1-.71,1.715,2.6,2.6,0,0,1-1.5.47,1.362,1.362,0,0,1-.871-.283,1.1,1.1,0,0,1-.358-.919,1.134,1.134,0,0,1,.586-1.052,3.7,3.7,0,0,1,1.14-.338l.566-.1a4.137,4.137,0,0,0,.664-.172,2.5,2.5,0,0,0,.48-.238Z" transform="translate(-134.126 -31.03)" fill="#fff"/>
    <path id="Path_624" data-name="Path 624" d="M526.6,304.17a5.155,5.155,0,0,0-7.271,0,5.864,5.864,0,0,0,0,7.1,5.213,5.213,0,0,0,7.271,0,5.872,5.872,0,0,0,0-7.1m-1.979,5.736a2.188,2.188,0,0,1-3.335,0,4.383,4.383,0,0,1,0-4.378,2.2,2.2,0,0,1,3.335,0,4.412,4.412,0,0,1,0,4.378" transform="translate(-167.948 -30.858)" fill="#fff"/>
  </g>
</svg>
