<svg id="ic_mercadopago" xmlns="http://www.w3.org/2000/svg" width="120" height="31.267" viewBox="0 0 120 31.267">
  <path id="Trazado_523" data-name="Trazado 523" d="M44.568,14.364C44.568,6.451,34.591,0,22.284,0S0,6.451,0,14.364c0,.206,0,.769,0,.842,0,8.4,8.718,15.2,22.281,15.2,13.646,0,22.287-6.8,22.287-15.193Z" fill="#2d3277"/>
  <path id="Trazado_524" data-name="Trazado 524" d="M45.534,16.165c0,7.447-9.592,13.485-21.427,13.485S2.68,23.611,2.68,16.165,12.272,2.68,24.107,2.68,45.534,8.718,45.534,16.165Z" transform="translate(-1.82 -1.82)" fill="#009ee3"/>
  <path id="Trazado_525" data-name="Trazado 525" d="M46.988,21.409c-.013.022-.225.244-.087.421a2.674,2.674,0,0,0,2.44.443,7.063,7.063,0,0,0,2.215-1.4,8.958,8.958,0,0,1,2.529-1.615,2.878,2.878,0,0,1,1.846-.048,5.748,5.748,0,0,1,1.682.982c1.467,1.1,7.361,6.247,8.378,7.136a51.144,51.144,0,0,1,9.421-3.033,11.671,11.671,0,0,0-4.475-7.036c-3.4,1.425-7.547,2.17-11.6.189a11.25,11.25,0,0,0-4.385-1c-3.22.08-4.613,1.473-6.089,2.947Z" transform="translate(-31.815 -11.279)" fill="#fff"/>
  <path id="Trazado_526" data-name="Trazado 526" d="M36.1,28.658c-.067-.061-6.93-6.067-8.487-7.235a3.811,3.811,0,0,0-1.926-.915,2.666,2.666,0,0,0-.915.087,8.214,8.214,0,0,0-2.507,1.5,7.142,7.142,0,0,1-2.449,1.515,3.961,3.961,0,0,1-2.7-.4,1.23,1.23,0,0,1-.449-.491.836.836,0,0,1,.228-.9l1.894-2.048c.221-.218.443-.44.668-.655a12.342,12.342,0,0,0-1.727.388,7.552,7.552,0,0,1-2.013.376,19.072,19.072,0,0,1-2.054-.321A30.609,30.609,0,0,1,8.194,17.58,12.1,12.1,0,0,0,3.18,24.851c.388.1,1.011.289,1.271.347,6.093,1.355,7.99,2.751,8.333,3.04a2.016,2.016,0,0,1,3.162.186,2.306,2.306,0,0,1,1.451-.51,2.647,2.647,0,0,1,.87.154,2,2,0,0,1,1.226,1.107,2.067,2.067,0,0,1,.847-.18,2.526,2.526,0,0,1,1.014.225,2.167,2.167,0,0,1,1.2,2.417,2.017,2.017,0,0,1,.241-.013,2.412,2.412,0,0,1,2.125,3.557,3.851,3.851,0,0,0,2.1.562A1.33,1.33,0,0,0,28,35.315c.061-.087.125-.186.064-.257l-1.721-1.91s-.282-.266-.189-.372.273.045.395.151c.876.732,1.942,1.833,1.942,1.833.019.013.09.151.485.221a1.781,1.781,0,0,0,1.358-.318,2.065,2.065,0,0,0,.3-.3.085.085,0,0,1-.019.016.916.916,0,0,0-.048-1.133l-2.006-2.253s-.286-.266-.189-.372.273.048.4.151c.636.533,1.534,1.432,2.395,2.276a1.637,1.637,0,0,0,1.926-.067,1.283,1.283,0,0,0,.3-2.1l-2.741-2.757s-.289-.247-.186-.372c.083-.106.273.045.395.151.873.732,3.239,2.9,3.239,2.9a1.659,1.659,0,0,0,1.859-.039,1.242,1.242,0,0,0,.61-.982A1.448,1.448,0,0,0,36.1,28.658Z" transform="translate(-2.159 -12.122)" fill="#fff"/>
  <path id="Trazado_527" data-name="Trazado 527" d="M43.163,54.391a5.757,5.757,0,0,0-.95.212c-.032-.022.026-.193.067-.292s.6-1.782-.764-2.366a1.6,1.6,0,0,0-1.9.282c-.058.061-.083.055-.09-.022a1.511,1.511,0,0,0-1.059-1.4,2.067,2.067,0,0,0-2.327.828A1.486,1.486,0,1,0,35.7,52.9c.01.006.013.022.006.051a1.963,1.963,0,0,0,1.229,2.26,1.473,1.473,0,0,0,1.441-.221c.119-.083.138-.048.122.064a1.4,1.4,0,0,0,1.05,1.506,1.335,1.335,0,0,0,1.563-.289c.135-.122.17-.1.177.087a1.88,1.88,0,1,0,1.875-1.968Z" transform="translate(-22.522 -34.474)" fill="#fff"/>
  <path id="Trazado_528" data-name="Trazado 528" d="M36.1,25.657c-2.112-1.846-7-6.093-8.324-7.085a5.816,5.816,0,0,0-1.724-1,2.855,2.855,0,0,0-.847-.132,3.608,3.608,0,0,0-1.075.18,8.768,8.768,0,0,0-2.529,1.6l-.042.032a7,7,0,0,1-2.16,1.377,3.743,3.743,0,0,1-.8.09,2.046,2.046,0,0,1-1.5-.485c-.039-.048-.013-.125.074-.238l.013-.016,1.859-2c1.457-1.457,2.831-2.831,6-2.905.051,0,.106,0,.157,0a11.194,11.194,0,0,1,4.163.985,12.866,12.866,0,0,0,5.672,1.361,14.813,14.813,0,0,0,6.227-1.493c-.241-.2-.494-.4-.754-.6a13.732,13.732,0,0,1-5.47,1.242,12.033,12.033,0,0,1-5.309-1.278,11.92,11.92,0,0,0-4.533-1.069c-.058,0-.119,0-.18,0a7.87,7.87,0,0,0-5.165,1.833,10.228,10.228,0,0,0-2.578.469,6.872,6.872,0,0,1-1.817.347c-.234,0-.652-.022-.69-.022a35.165,35.165,0,0,1-6.532-1.81c-.266.189-.523.382-.77.581a32.229,32.229,0,0,0,7.081,2.048c.292.019.6.051.912.051a7.684,7.684,0,0,0,2.051-.382c.395-.112.828-.231,1.287-.318-.122.119-.244.241-.366.363l-1.891,2.045a.953.953,0,0,0-.26,1.043,1.329,1.329,0,0,0,.5.552,3.94,3.94,0,0,0,2.006.507,3.724,3.724,0,0,0,.8-.083,7.283,7.283,0,0,0,2.5-1.538,8.316,8.316,0,0,1,2.459-1.473,2.8,2.8,0,0,1,.684-.093,1.5,1.5,0,0,1,.177.01,3.687,3.687,0,0,1,1.862.889c1.55,1.165,8.413,7.168,8.481,7.229a1.32,1.32,0,0,1,.411,1.008,1.1,1.1,0,0,1-.549.876,1.66,1.66,0,0,1-.9.279,1.469,1.469,0,0,1-.8-.231c-.026-.019-2.375-2.176-3.242-2.9a.723.723,0,0,0-.408-.218.224.224,0,0,0-.18.083c-.135.167.016.4.2.552l2.748,2.761a1.3,1.3,0,0,1,.379.745,1.25,1.25,0,0,1-.652,1.14,1.754,1.754,0,0,1-.973.321,1.42,1.42,0,0,1-.783-.238l-.395-.388c-.719-.709-1.464-1.441-2.006-1.894a.738.738,0,0,0-.411-.212.233.233,0,0,0-.173.074c-.061.067-.106.193.048.4a1.552,1.552,0,0,0,.138.154l2,2.25a.766.766,0,0,1,.045.96l-.071.09a1.934,1.934,0,0,1-.186.18,1.618,1.618,0,0,1-.979.311,1.727,1.727,0,0,1-.27-.022.668.668,0,0,1-.395-.167l-.026-.026c-.109-.112-1.12-1.146-1.955-1.843a.684.684,0,0,0-.388-.209.241.241,0,0,0-.18.08c-.167.18.083.453.189.552l1.711,1.884a.441.441,0,0,1-.064.116c-.061.083-.27.292-.889.369a1.775,1.775,0,0,1-.228.013,3.9,3.9,0,0,1-1.672-.5,2.549,2.549,0,0,0-2.3-3.637c-.029,0-.061,0-.093,0a2.266,2.266,0,0,0-1.294-2.395,2.712,2.712,0,0,0-1.066-.234,2.183,2.183,0,0,0-.78.141,2.136,2.136,0,0,0-1.249-1.059,2.819,2.819,0,0,0-.915-.16,2.423,2.423,0,0,0-1.425.456,2.15,2.15,0,0,0-3.2-.18c-.533-.408-2.642-1.746-8.291-3.03-.273-.061-.9-.241-1.287-.353a8.99,8.99,0,0,0-.144.928s1.043.25,1.245.3c5.772,1.281,7.678,2.616,8,2.867a2.162,2.162,0,0,0,2,2.995,2.353,2.353,0,0,0,.4-.035A2.523,2.523,0,0,0,16.06,31.3a2.129,2.129,0,0,0,.77.148,1.96,1.96,0,0,0,.491-.061,2.516,2.516,0,0,0,2.192,1.432,1.854,1.854,0,0,0,.661-.119,2.544,2.544,0,0,0,4.183.809,4.838,4.838,0,0,0,2.16.645c.112,0,.221-.01.327-.019a1.975,1.975,0,0,0,1.464-.716,1.131,1.131,0,0,0,.09-.148,2.634,2.634,0,0,0,.69.109,2.352,2.352,0,0,0,1.4-.5,1.918,1.918,0,0,0,.822-1.2.139.139,0,0,1,0-.016,2.292,2.292,0,0,0,.465.048,2.6,2.6,0,0,0,1.435-.456,2.076,2.076,0,0,0,1.03-1.843,2.331,2.331,0,0,0,.472.048,2.463,2.463,0,0,0,1.342-.414,1.967,1.967,0,0,0,.934-1.518,2.041,2.041,0,0,0-.3-1.226,55.392,55.392,0,0,1,8.9-2.786,9.008,9.008,0,0,0-.125-.924A51.474,51.474,0,0,0,36.1,25.657ZM22.535,33.5a1.734,1.734,0,0,1-1.743-1.666c0-.08-.01-.292-.189-.292a.33.33,0,0,0-.212.112,1.224,1.224,0,0,1-.857.388,1.548,1.548,0,0,1-.565-.122c-1-.4-1.008-1.085-.969-1.361a.249.249,0,0,0-.035-.209l-.061-.055h-.061a.291.291,0,0,0-.173.071,1.461,1.461,0,0,1-.844.3,1.326,1.326,0,0,1-.472-.093,1.828,1.828,0,0,1-1.143-2.119.18.18,0,0,0-.058-.173l-.093-.077-.087.083a1.345,1.345,0,0,1-.941.382,1.359,1.359,0,1,1,1.342-1.531l.048.366.2-.308a2,2,0,0,1,1.583-.867,2.022,2.022,0,0,1,.591.093A1.377,1.377,0,0,1,18.76,27.7c.016.177.141.186.164.186a.218.218,0,0,0,.157-.083,1.373,1.373,0,0,1,1-.424,1.918,1.918,0,0,1,.751.17c1.281.549.7,2.176.693,2.192-.109.27-.116.388-.01.456l.051.026h.039a.954.954,0,0,0,.247-.064,2.171,2.171,0,0,1,.684-.151h0a1.743,1.743,0,1,1,0,3.486Z" transform="translate(-1.894 -9.655)" fill="#2d3277"/>
  <path id="Trazado_529" data-name="Trazado 529" d="M357.332,13.272a5.192,5.192,0,0,0-7.325,0,5.548,5.548,0,0,0-1.207,3.573,5.518,5.518,0,0,0,1.207,3.589,5.248,5.248,0,0,0,7.325,0,5.518,5.518,0,0,0,1.207-3.589A5.548,5.548,0,0,0,357.332,13.272Zm-1.993,5.781a2.206,2.206,0,0,1-3.361,0,3.581,3.581,0,0,1-.591-2.208,3.571,3.571,0,0,1,.591-2.205,2.212,2.212,0,0,1,3.361,0,3.6,3.6,0,0,1,.584,2.205A3.575,3.575,0,0,1,355.339,19.053Z" transform="translate(-238.539 -7.985)" fill="#2d3277"/>
  <path id="Trazado_530" data-name="Trazado 530" d="M296.073,12.533a6.1,6.1,0,0,0-2.8-.623,4.115,4.115,0,0,0-3.419,1.262,3.676,3.676,0,0,0-.706,2.061h2.414a1.8,1.8,0,0,1,.356-.876,1.594,1.594,0,0,1,1.271-.44,2.606,2.606,0,0,1,1.217.225.838.838,0,0,1,.414.809.75.75,0,0,1-.539.709,4,4,0,0,1-1,.218l-.854.106a6.039,6.039,0,0,0-2.208.616,2.719,2.719,0,0,0-1.371,2.552,2.633,2.633,0,0,0,.851,2.1,3.382,3.382,0,0,0,2.157.742c5.457.244,5.393-2.876,5.444-3.525V14.882A2.409,2.409,0,0,0,296.073,12.533ZM294.8,17.98a2,2,0,0,1-.716,1.727,2.619,2.619,0,0,1-1.509.475,1.378,1.378,0,0,1-.88-.286,1.1,1.1,0,0,1-.36-.924,1.138,1.138,0,0,1,.591-1.059,3.661,3.661,0,0,1,1.149-.34l.571-.106a4.394,4.394,0,0,0,.671-.173,2.521,2.521,0,0,0,.485-.241v.928Z" transform="translate(-197.524 -8.087)" fill="#2d3277"/>
  <path id="Trazado_531" data-name="Trazado 531" d="M262.385,14.109a1.625,1.625,0,0,1,1.377.578,2.14,2.14,0,0,1,.379.963h2.69a3.687,3.687,0,0,0-1.425-2.844A5.478,5.478,0,0,0,262.311,12a4.517,4.517,0,0,0-3.486,1.364,5.4,5.4,0,0,0-1.265,3.817,5.329,5.329,0,0,0,1.143,3.537,4.4,4.4,0,0,0,3.57,1.364,4.3,4.3,0,0,0,3.663-1.634A4.03,4.03,0,0,0,266.8,18.3h-2.68a2.267,2.267,0,0,1-.472,1.226,1.61,1.61,0,0,1-1.313.472,1.751,1.751,0,0,1-1.775-1.191,4.522,4.522,0,0,1-.26-1.682,4.932,4.932,0,0,1,.26-1.762A1.815,1.815,0,0,1,262.385,14.109Z" transform="translate(-176.136 -8.148)" fill="#2d3277"/>
  <path id="Trazado_532" data-name="Trazado 532" d="M244.3,12.01c-5.528,0-5.2,4.9-5.2,4.9v4.972h2.51V17.213a3.819,3.819,0,0,1,.289-1.7,2.068,2.068,0,0,1,2.019-.979q.111,0,.3.01c.122.006.26.016.421.035V12.029c-.112-.006-.183-.01-.215-.013S244.351,12.01,244.3,12.01Z" transform="translate(-163.474 -8.155)" fill="#2d3277"/>
  <path id="Trazado_533" data-name="Trazado 533" d="M212.626,19.277a1.794,1.794,0,0,1-.343.379,2.137,2.137,0,0,1-1.4.382,2.366,2.366,0,0,1-1.335-.321,2.256,2.256,0,0,1-1.014-1.99h6.943a12.435,12.435,0,0,0-.083-1.891,4.7,4.7,0,0,0-.758-1.971,3.884,3.884,0,0,0-1.647-1.409,5.453,5.453,0,0,0-2.241-.446,4.6,4.6,0,0,0-3.409,1.319,5.161,5.161,0,0,0-1.316,3.8,4.616,4.616,0,0,0,1.457,3.817,5.206,5.206,0,0,0,3.358,1.172,4.627,4.627,0,0,0,3.586-1.39,3.381,3.381,0,0,0,.87-1.448Zm-3.371-4.671a1.978,1.978,0,0,1,1.486-.546,2.186,2.186,0,0,1,1.48.514,2.074,2.074,0,0,1,.661,1.506h-4.292A2.577,2.577,0,0,1,209.256,14.607Z" transform="translate(-140.891 -8.155)" fill="#2d3277"/>
  <path id="Trazado_534" data-name="Trazado 534" d="M173.894,21.813H171.6V16.045a1.61,1.61,0,0,0-1.685-1.782,1.688,1.688,0,0,0-1.737,1.782v5.772h-2.3V16.045a1.6,1.6,0,0,0-1.666-1.782,1.679,1.679,0,0,0-1.737,1.782v5.772H160.19V16.1a3.932,3.932,0,0,1,4.032-4.183,3.532,3.532,0,0,1,2.85,1.329,3.652,3.652,0,0,1,2.847-1.329c2.5,0,3.977,1.727,3.977,4.183v5.711Z" transform="translate(-109.58 -8.094)" fill="#2d3277"/>
  <path id="Trazado_535" data-name="Trazado 535" d="M326.833,2.595s-2.526-.27-2.526,1.759l0,2.687a3.008,3.008,0,0,0-1.091-1.053,3.061,3.061,0,0,0-1.538-.382,3.657,3.657,0,0,0-3,1.4,6.157,6.157,0,0,0-1.123,3.9,5.186,5.186,0,0,0,1.14,3.467,4.837,4.837,0,0,0,3.576,1.294c4.619,0,4.565-3.961,4.565-3.961Zm-3.008,10.25a1.835,1.835,0,0,1-1.608.786,1.757,1.757,0,0,1-1.579-.793,4.038,4.038,0,0,1-.52-2.176,3.842,3.842,0,0,1,.51-2.051,1.752,1.752,0,0,1,1.6-.828,1.886,1.886,0,0,1,1.258.456,3.285,3.285,0,0,1,.883,2.565A3.471,3.471,0,0,1,323.826,12.844Z" transform="translate(-217.32 -1.754)" fill="#2d3277"/>
  <path id="Trazado_536" data-name="Trazado 536" d="M211.957,67.213a1.174,1.174,0,0,1-.369.873,1.2,1.2,0,0,1-.886.363H209.45V59.731a4.016,4.016,0,0,1,1.512-3.473,5.039,5.039,0,0,1,3.281-.928,4.4,4.4,0,0,1,3.284,1.358,5.362,5.362,0,0,1,1.178,3.627,5.862,5.862,0,0,1-1.107,3.711,3.473,3.473,0,0,1-2.841,1.384,3.787,3.787,0,0,1-1.621-.327,2.759,2.759,0,0,1-1.181-1.13v3.261Zm4.2-6.789a3.655,3.655,0,0,0-.555-2.183,1.843,1.843,0,0,0-1.586-.764,1.81,1.81,0,0,0-1.55.764,3.689,3.689,0,0,0-.514,2.183,3.264,3.264,0,0,0,.552,2.074,1.835,1.835,0,0,0,1.586.764A1.766,1.766,0,0,0,215.6,62.5a3.434,3.434,0,0,0,.555-2.074" transform="translate(-143.235 -38.013)" fill="#009ee3"/>
  <path id="Trazado_537" data-name="Trazado 537" d="M276.12,64.533v-.616a2.763,2.763,0,0,1-1.756,1.271A3.592,3.592,0,0,1,272.175,65a4.054,4.054,0,0,1-1.868-1.618,5.6,5.6,0,0,1-.777-3.111,6.014,6.014,0,0,1,1.03-3.653,3.959,3.959,0,0,1,3.316-1.4,4.593,4.593,0,0,1,3.223.947,4.044,4.044,0,0,1,1.486,3.489v5.13a4.282,4.282,0,0,1-4.709,4.4,4.125,4.125,0,0,1-4.128-3.127h2.645a2.026,2.026,0,0,0,2.08.928,1.961,1.961,0,0,0,1.088-.709,3.013,3.013,0,0,0,.559-1.749m-4.131-4.183q0,2.509,1.451,2.783a1.978,1.978,0,0,0,2.138-.674,2.7,2.7,0,0,0,.469-1.252,5.346,5.346,0,0,0,.019-1.692,3.364,3.364,0,0,0-.6-1.493,1.587,1.587,0,0,0-1.377-.655,1.67,1.67,0,0,0-1.666.908,4.728,4.728,0,0,0-.437,2.074" transform="translate(-184.32 -37.939)" fill="#009ee3"/>
  <path id="Trazado_538" data-name="Trazado 538" d="M247.556,56.073a6.1,6.1,0,0,0-2.8-.623,4.11,4.11,0,0,0-3.419,1.262,3.676,3.676,0,0,0-.706,2.061h2.414a1.766,1.766,0,0,1,.356-.876,1.591,1.591,0,0,1,1.268-.44,2.6,2.6,0,0,1,1.217.225.84.84,0,0,1,.414.812.75.75,0,0,1-.539.709,3.964,3.964,0,0,1-1,.218l-.854.106a6.04,6.04,0,0,0-2.208.616A2.72,2.72,0,0,0,240.33,62.7a2.633,2.633,0,0,0,.851,2.1,3.364,3.364,0,0,0,2.157.742c5.454.244,5.393-2.876,5.444-3.525V58.422a2.393,2.393,0,0,0-1.226-2.35m-1.268,5.444a2,2,0,0,1-.716,1.727,2.615,2.615,0,0,1-1.509.472,1.362,1.362,0,0,1-.876-.286,1.106,1.106,0,0,1-.363-.924,1.138,1.138,0,0,1,.591-1.059,3.661,3.661,0,0,1,1.149-.34l.568-.106a3.833,3.833,0,0,0,.668-.173,2.434,2.434,0,0,0,.485-.241v.931Z" transform="translate(-164.345 -38.095)" fill="#009ee3"/>
  <path id="Trazado_539" data-name="Trazado 539" d="M309.235,56.652a5.2,5.2,0,0,0-7.328,0,5.91,5.91,0,0,0,0,7.158,5.252,5.252,0,0,0,7.328,0,5.923,5.923,0,0,0,0-7.158m-1.993,5.778a1.966,1.966,0,0,1-1.676.777,1.987,1.987,0,0,1-1.682-.777,4.412,4.412,0,0,1,0-4.411,2.208,2.208,0,0,1,3.358,0,4.454,4.454,0,0,1,0,4.411" transform="translate(-205.879 -37.884)" fill="#009ee3"/>
</svg>
