<svg id="ic_menu_exchange_wallets" xmlns="http://www.w3.org/2000/svg" width="18.799" height="20" viewBox="0 0 18.799 20">
  <path id="Trazado_595" data-name="Trazado 595" d="M959,1244.6l-1.7-.851a.425.425,0,1,0-.378.761l.648.323a.43.43,0,0,0-.04.148,1.369,1.369,0,0,0,.843,1.2v5.185a.426.426,0,0,1-.853,0v-3.4a2.261,2.261,0,0,0-1.706-2.085v-2.6a1.684,1.684,0,0,0-1.686-1.7h-3.417v-3.514a.335.335,0,0,0-.181-.306l-1.367-.684a.342.342,0,1,0-.3.612l.521.259a.35.35,0,0,0-.032.118,1.1,1.1,0,0,0,.677.963v2.551h-.685v-1.12a1.817,1.817,0,0,0-1.371-1.675V1236.7a1.353,1.353,0,0,0-1.355-1.363H942.5a1.381,1.381,0,0,0-1.387,1.363v7.655l-.5.247a.342.342,0,0,0-.189.306v1.026a.361.361,0,0,0,.359.347h6.5v6.521l-.617.308a.426.426,0,0,0-.236.381v1.277a.449.449,0,0,0,.447.432h9.384a.415.415,0,0,0,.406-.432v-1.277a.426.426,0,0,0-.236-.381l-.617-.308v-6.042a1.378,1.378,0,0,1,.853,1.2v3.4a1.28,1.28,0,0,0,2.559,0v-6.384A.416.416,0,0,0,959,1244.6Zm-11.032-5.1h0a1.055,1.055,0,0,1,.128.064,1.2,1.2,0,0,1,.183.133,1.182,1.182,0,0,1,.248.3,1.029,1.029,0,0,1,.068.144.905.905,0,0,1,.059.319v1.157a1.722,1.722,0,0,0-.362.12,1.743,1.743,0,0,0-.167.088,1.764,1.764,0,0,0-.156.1h0Zm-6.856,6.1v-.478l.5-.248a.342.342,0,0,0,.189-.306V1236.7a.7.7,0,0,1,.7-.679h4.114a.667.667,0,0,1,.669.679v7.866s0,0,0,0v1.028Zm14.7,8.751h-8.531v-.594l.617-.308a.426.426,0,0,0,.236-.381v-9.788a.848.848,0,0,1,.518-.769.882.882,0,0,1,.356-.076h5.119a.83.83,0,0,1,.833.845v9.788a.426.426,0,0,0,.236.381l.617.308Z" transform="translate(-940.43 -1235.198)" />
  <path id="Trazado_596" data-name="Trazado 596" d="M1034.1,1289.368a.984.984,0,0,1,.066.142A.984.984,0,0,0,1034.1,1289.368Z" transform="translate(-1025.997 -1284.566)" />
  <path id="Trazado_597" data-name="Trazado 597" d="M1031.472,1286.147a1.149,1.149,0,0,0-.243-.3A1.149,1.149,0,0,1,1031.472,1286.147Z" transform="translate(-1023.374 -1281.351)" />
  <path id="Trazado_598" data-name="Trazado 598" d="M1031.724,1292.49a1.684,1.684,0,0,0-.354.117,1.684,1.684,0,0,1,.354-.117v-1.133a.891.891,0,0,0-.057-.312.891.891,0,0,1,.057.312Z" transform="translate(-1023.502 -1286.09)" />
  <rect id="Rectángulo_457" data-name="Rectángulo 457" height="2.382" transform="translate(7.542 4.313)" />
  <path id="Trazado_599" data-name="Trazado 599" d="M1048.167,1234.673a2.849,2.849,0,0,1,3.093,2.641c0,.023,0,.115,0,.233l-.748-.861a.382.382,0,1,0-.576.5l1.473,1.695a.381.381,0,0,0,.581-.006l1.428-1.712a.382.382,0,0,0-.586-.489l-.617.739c0-.072,0-.124,0-.14a3.811,3.811,0,0,0-4.048-3.558.478.478,0,1,0,0,.956Z" transform="translate(-1038.317 -1233.717)" />
  <path id="Trazado_600" data-name="Trazado 600" d="M949.509,1375.536a.478.478,0,0,0-.478-.478,2.849,2.849,0,0,1-3.093-2.642c0-.022,0-.115,0-.233l.748.861a.382.382,0,0,0,.576-.5l-1.473-1.695a.386.386,0,0,0-.292-.131.382.382,0,0,0-.289.137l-1.428,1.712a.382.382,0,1,0,.586.489l.617-.739c0,.072,0,.125,0,.14a3.812,3.812,0,0,0,4.048,3.558A.478.478,0,0,0,949.509,1375.536Z" transform="translate(-943.414 -1358.734)" />
  <path id="Trazado_601" data-name="Trazado 601" d="M1027.635,1310.644a1.7,1.7,0,0,1,.153-.1,1.7,1.7,0,0,0-.153.1Z" transform="translate(-1020.092 -1303.913)" />
  <path id="Trazado_602" data-name="Trazado 602" d="M1027.635,1283.574h0a1.056,1.056,0,0,1,.125.063A1.056,1.056,0,0,0,1027.635,1283.574Z" transform="translate(-1020.092 -1279.272)" />
  <path id="Trazado_591" data-name="Trazado 591" d="M970.035,1257.527v-1.585a.979.979,0,0,1,.482.312.394.394,0,0,0,.476.079.249.249,0,0,0,.1-.387,1.722,1.722,0,0,0-1.056-.584v-.443a.351.351,0,0,0-.687,0v.443a1.333,1.333,0,1,0,0,2.667v1.585a.984.984,0,0,1-.482-.312.394.394,0,0,0-.476-.08.249.249,0,0,0-.1.387,1.722,1.722,0,0,0,1.056.584v.444a.351.351,0,0,0,.688,0v-.443a1.333,1.333,0,1,0,0-2.667Zm-.687-.079a.762.762,0,0,1,0-1.506Zm.688,2.166v-1.506a.762.762,0,0,1,0,1.506Z" transform="translate(-965.682 -1252.87)" />
  <path id="Trazado_592" data-name="Trazado 592" d="M1044.048,1334.289a1.828,1.828,0,0,0,1.659,1.659v1.973a1.222,1.222,0,0,1-.6-.388.49.49,0,0,0-.592-.1.31.31,0,0,0-.122.481,2.144,2.144,0,0,0,1.314.727v.552a.437.437,0,0,0,.855,0v-.551a1.659,1.659,0,1,0,0-3.318v-1.973a1.221,1.221,0,0,1,.6.388.49.49,0,0,0,.592.1.31.31,0,0,0,.122-.481,2.143,2.143,0,0,0-1.314-.727v-.552a.437.437,0,0,0-.855,0v.551A1.827,1.827,0,0,0,1044.048,1334.289Zm2.515,1.758a.948.948,0,0,1,0,1.874Zm-.855-2.695v1.873a.948.948,0,0,1,0-1.873Z" transform="translate(-1035.028 -1323.163)" />
</svg>
