<svg xmlns="http://www.w3.org/2000/svg" width="16.729" height="20" viewBox="0 0 16.729 20">
  <path id="ic_menu_ring" d="M129.105,94.753l-1.4-2.34a6.771,6.771,0,0,1-.964-3.481v-2.05a5.921,5.921,0,0,0-4.089-5.622V79.93a1.822,1.822,0,1,0-3.645,0v1.329a5.921,5.921,0,0,0-4.089,5.622v2.05a6.77,6.77,0,0,1-.964,3.481l-1.4,2.34a.6.6,0,0,0,.511.9h5.55c-.007.074-.012.148-.012.222a2.232,2.232,0,0,0,4.464,0c0-.074,0-.148-.012-.222h5.548a.6.6,0,0,0,.511-.9Zm-15-.289.863-1.438a7.954,7.954,0,0,0,1.134-4.093v-2.05a4.72,4.72,0,0,1,9.439,0v2.05a7.962,7.962,0,0,0,1.133,4.093l.864,1.438ZM121.457,81a5.841,5.841,0,0,0-1.262,0V79.93a.631.631,0,1,1,1.262,0Zm.41,14.872a1.04,1.04,0,1,1-2.08,0,1.027,1.027,0,0,1,.026-.222h2.027A1.038,1.038,0,0,1,121.866,95.877Z" transform="translate(-112.461 -78.108)"/>
</svg>
