<svg xmlns="http://www.w3.org/2000/svg" width="100.215" height="100.349" viewBox="0 0 100.215 100.349">
  <g id="ic_no_signal" transform="translate(-137 -208.651)">
    <g id="icono_wifi" transform="translate(-0.261 -159.57)">
      <path id="Trazado_625" data-name="Trazado 625" d="M257.648,486.694a28.579,28.579,0,0,0-40.388,0h0a2.512,2.512,0,1,0,3.555,3.549,23.572,23.572,0,0,1,33.3,0,2.492,2.492,0,0,0,3.54,0A2.525,2.525,0,0,0,257.648,486.694Z" transform="translate(-48.484 -68.519)" fill="#8c95a8" stroke="#8c95a8" stroke-width="1"/>
      <path id="Trazado_626" data-name="Trazado 626" d="M292.943,566.673a2.5,2.5,0,0,0,3.538-3.541A15.829,15.829,0,0,0,285.2,558.45h-.016a15.855,15.855,0,0,0-11.289,4.67,2.512,2.512,0,1,0,3.555,3.549,10.95,10.95,0,0,1,15.488,0Z" transform="translate(-96.225 -136.043)" fill="#8c95a8" stroke="#8c95a8" stroke-width="1"/>
      <path id="Trazado_627" data-name="Trazado 627" d="M330.4,637.079a3.6,3.6,0,1,0,3.6,3.6A3.605,3.605,0,0,0,330.4,637.079Z" transform="translate(-141.43 -202.319)" fill="#8c95a8" stroke="#8c95a8" stroke-width="1"/>
      <path id="Trazado_628" data-name="Trazado 628" d="M214.665,412.68a2.492,2.492,0,0,0,3.54,0,2.526,2.526,0,0,0,0-3.553,41.411,41.411,0,0,0-58.464,0,2.512,2.512,0,1,0,3.555,3.549,36.356,36.356,0,0,1,51.371,0Z" transform="translate(0 0)" fill="#8c95a8" stroke="#8c95a8" stroke-width="1"/>
    </g>
    <circle id="Elipse_trasnparencia" cx="45.747" cy="45.747" r="45.747" transform="translate(137 208.651)" fill="#8c95a8" opacity="0.2"/>
    <path id="Tachado" d="M-.216-3.607l.188,88.474" transform="matrix(0.848, -0.53, 0.53, 0.848, 166.447, 225.029)" fill="none" stroke="#8c95a8" stroke-linecap="round" stroke-width="8"/>
    <path id="Circulo" d="M459.325,726.38a49.025,49.025,0,1,0,49.025,49.025,49.084,49.084,0,0,0-49.025-49.025Zm0,91.6A42.578,42.578,0,1,1,501.9,775.405a42.624,42.624,0,0,1-42.578,42.578Zm0,0" transform="translate(-271.135 -515.431)" fill="#8c95a8"/>
  </g>
</svg>
