<svg xmlns="http://www.w3.org/2000/svg" width="92.139" height="106.587" viewBox="0 0 92.139 106.587">
  <g id="ic_no_notification" transform="translate(-137.485 -279)">
    <path id="Icono_Notificaciones" data-name="Icono Notificaciones" d="M196.172,161.82l-7.066-11.771a34.057,34.057,0,0,1-4.847-17.506V122.233A29.778,29.778,0,0,0,163.7,93.955V87.273a9.165,9.165,0,1,0-18.33,0v6.682A29.778,29.778,0,0,0,124.8,122.233v10.311a34.051,34.051,0,0,1-4.847,17.506l-7.064,11.769a2.994,2.994,0,0,0,2.568,4.539h27.912c-.037.37-.062.742-.062,1.116a11.225,11.225,0,0,0,22.451,0c0-.374-.025-.746-.062-1.116h27.9a2.994,2.994,0,0,0,2.57-4.537Zm-75.422-1.455,4.34-7.235a40,40,0,0,0,5.7-20.587V122.233a23.737,23.737,0,0,1,47.475,0v10.311a40.044,40.044,0,0,0,5.7,20.587l4.344,7.235ZM157.7,92.675a29.381,29.381,0,0,0-6.346,0v-5.4a3.173,3.173,0,1,1,6.346,0Zm2.061,74.8a5.229,5.229,0,1,1-10.459,0,5.169,5.169,0,0,1,.133-1.116h10.194A5.224,5.224,0,0,1,159.764,167.473Z" transform="translate(33.024 206.892)" fill="#4889ff"/>
    <path id="Icono_Notificaciones-2" data-name="Icono Notificaciones" d="M196.172,161.82l-7.066-11.771a34.057,34.057,0,0,1-4.847-17.506V122.233A29.778,29.778,0,0,0,163.7,93.955V87.273a9.165,9.165,0,1,0-18.33,0v6.682A29.778,29.778,0,0,0,124.8,122.233v10.311a34.051,34.051,0,0,1-4.847,17.506l-7.064,11.769a2.994,2.994,0,0,0,2.568,4.539h27.912c-.037.37-.062.742-.062,1.116a11.225,11.225,0,0,0,22.451,0c0-.374-.025-.746-.062-1.116h27.9a2.994,2.994,0,0,0,2.57-4.537Zm-75.422-1.455,4.34-7.235a40,40,0,0,0,5.7-20.587V122.233a23.737,23.737,0,0,1,47.475,0v10.311a40.044,40.044,0,0,0,5.7,20.587l4.344,7.235ZM157.7,92.675a29.381,29.381,0,0,0-6.346,0v-5.4a3.173,3.173,0,1,1,6.346,0Zm2.061,74.8a5.229,5.229,0,1,1-10.459,0,5.169,5.169,0,0,1,.133-1.116h10.194A5.224,5.224,0,0,1,159.764,167.473Z" transform="translate(25.024 200.892)" fill="#d1e1fd"/>
    <path id="Icono_Notificaciones-3" data-name="Icono Notificaciones" d="M196.172,161.82l-7.066-11.771a34.057,34.057,0,0,1-4.847-17.506V122.233A29.778,29.778,0,0,0,163.7,93.955V87.273a9.165,9.165,0,1,0-18.33,0v6.682A29.778,29.778,0,0,0,124.8,122.233v10.311a34.051,34.051,0,0,1-4.847,17.506l-7.064,11.769a2.994,2.994,0,0,0,2.568,4.539h27.912c-.037.37-.062.742-.062,1.116a11.225,11.225,0,0,0,22.451,0c0-.374-.025-.746-.062-1.116h27.9a2.994,2.994,0,0,0,2.57-4.537Zm-75.422-1.455,4.34-7.235a40,40,0,0,0,5.7-20.587V122.233a23.737,23.737,0,0,1,47.475,0v10.311a40.044,40.044,0,0,0,5.7,20.587l4.344,7.235ZM157.7,92.675a29.381,29.381,0,0,0-6.346,0v-5.4a3.173,3.173,0,1,1,6.346,0Zm2.061,74.8a5.229,5.229,0,1,1-10.459,0,5.169,5.169,0,0,1,.133-1.116h10.194A5.224,5.224,0,0,1,159.764,167.473Z" transform="translate(33.024 206.892)" fill="#4889ff"/>
    <g id="Cantidad_de_notificaciones" data-name="Cantidad de notificaciones" transform="translate(137.508 291.445)">
      <circle id="Elipse_1" data-name="Elipse 1" cx="19.5" cy="19.5" r="19.5" transform="translate(3.492 2.555)" fill="#4889ff"/>
    </g>
    <path id="Trazado_611" data-name="Trazado 611" d="M471.248,784.107l-5.848-5.848,5.848-5.848a2.277,2.277,0,0,0-3.221-3.221l-5.848,5.848-5.848-5.848a2.277,2.277,0,1,0-3.221,3.221l5.848,5.848-5.848,5.848a2.277,2.277,0,1,0,3.221,3.221l5.848-5.848,5.848,5.848a2.277,2.277,0,0,0,3.221-3.221Z" transform="translate(-302.142 -464.522)" fill="#fff"/>
  </g>
</svg>
