<svg id="Layer_1" data-name="Layer 1" xmlns="http://www.w3.org/2000/svg" xmlns:xlink="http://www.w3.org/1999/xlink" viewBox="0 0 150 150"><defs><style>.cls-1{fill:#fff;}.cls-2{clip-path:url(#clip-path);}.cls-3{fill:#4889ff;}.cls-4{fill:#c7dcf9;}</style><clipPath id="clip-path"><circle class="cls-1" cx="75" cy="74.02" r="74.02"/></clipPath></defs><title>usuario fill smart</title><circle class="cls-1" cx="75" cy="74.02" r="74.02"/><g class="cls-2"><path class="cls-1" d="M59,100.08h0s13.11,12.34,14.64,12.34c6.51,0,13-10.39,15.18-13,.68-.81-1.08-11.69-1.08-18.18,0-5.36.75-11.53,1.08-11.69L59,70.2l.25,3.87A176.65,176.65,0,0,1,59,100.08Z"/><path class="cls-3" d="M73.66,112.9c-1.6,0-11.87-9.55-15-12.47l-.17-.16,0-.23a176.71,176.71,0,0,0,.25-25.93l-.28-4.38L91.08,69l-1.9.91a62.48,62.48,0,0,0-.95,11.32c0,3.08.4,7.13.75,10.71.53,5.45.67,7.26.22,7.79s-.79,1-1.33,1.74C84.9,105.47,79.37,112.9,73.66,112.9Zm-14.13-13c5.27,5,13,11.87,14.15,12,5.21,0,10.55-7.18,13.42-11,.55-.75,1-1.36,1.37-1.78s-.14-4-.45-7.07c-.35-3.59-.75-7.67-.75-10.8a69.38,69.38,0,0,1,.92-11.19l-28.65.62L59.75,74A177.61,177.61,0,0,1,59.52,99.88Z"/><path class="cls-3" d="M73.66,113.39c-1.27,0-6.43-4.24-15.31-12.6l-.34-.32,0-.47a176.15,176.15,0,0,0,.25-25.86L58,69.25l35.36-.77L89.6,70.27a67.91,67.91,0,0,0-.87,11c0,3.06.4,7.1.75,10.66.6,6.1.67,7.48.11,8.15-.34.4-.78,1-1.32,1.72C85.24,105.83,79.61,113.39,73.66,113.39ZM60,99.69c5.85,5.49,12.43,11.26,13.71,11.75,5-.08,10.36-7.34,13-10.83.51-.69.94-1.27,1.29-1.69a54.23,54.23,0,0,0-.46-6.83c-.35-3.61-.75-7.69-.75-10.85a75,75,0,0,1,.82-10.69l-27.54.6L60.24,74A178.16,178.16,0,0,1,60,99.69Z"/><path class="cls-3" d="M73.66,113.88c-.58,0-2.11,0-15.64-12.74l-.51-.49.06-.7a175.71,175.71,0,0,0,.25-25.79l-.35-5.39,38.13-.83L90,70.61a71.68,71.68,0,0,0-.81,10.64c0,3,.39,7.07.74,10.61.63,6.47.69,7.68,0,8.51-.32.38-.73.93-1.23,1.6l-.08.1C85.58,106.19,79.86,113.88,73.66,113.88ZM58.51,100.27l.17.16c12,11.25,14.45,12.47,15,12.47,5.71,0,11.25-7.43,14.22-11.42l.08-.1c.51-.68.93-1.25,1.26-1.64S89.52,97.4,89,92c-.35-3.57-.75-7.61-.75-10.71a68,68,0,0,1,.88-11.08l.05-.23L91.09,69l-32.59.71.28,4.38A176.62,176.62,0,0,1,58.53,100Zm15.15,11.66-.09,0C72,111.3,64.42,104.48,59.69,100l-.17-.16,0-.23A177.82,177.82,0,0,0,59.75,74l-.22-3.36,28.66-.62-.13.6a74.16,74.16,0,0,0-.81,10.59c0,3.15.4,7.21.75,10.8a48.94,48.94,0,0,1,.45,7l0,.13-.08.1c-.34.41-.77,1-1.27,1.67-2.64,3.55-8.15,10.94-13.34,11ZM60.53,99.49c6.2,5.81,12.05,10.85,13.3,11.46,4.69-.18,9.94-7.23,12.47-10.63.47-.64.88-1.18,1.21-1.59.08-.91-.23-4-.47-6.56-.36-3.63-.76-7.72-.76-10.92A82.71,82.71,0,0,1,87,71.06l-26.42.57L60.73,74A178.88,178.88,0,0,1,60.53,99.49Z"/><path class="cls-4" d="M126.62,172.16c3.9-1.3,9.09-7.79,9.09-7.79s-4.55-51.3-18.18-57.15c-2-.86-7.36-3-9.09-3.9a35.53,35.53,0,0,1-9.78-6.67L89,90.34s0,15.59-15.59,15.59c0,0-15.59,0-14.29-15.59,0,0-14.29,11.69-26,14.29-10.83,2.41-12,18.1-14.29,27.28-3.9,15.59-6.49,26-6.49,31.17,22.08,15.59,37.67,22.08,61,22.08C100.77,185.15,104.54,182.55,126.62,172.16Z"/><path class="cls-3" d="M73.37,186.13c-22.49,0-38-5.62-61.61-22.26l-.41-.29v-.51c0-5.32,2.59-15.7,6.52-31.41.38-1.5.72-3.19,1.09-5,1.91-9.3,4.28-20.86,13.93-23,11.33-2.52,25.43-14,25.57-14.09l1.78-1.46-.19,2.3c-.36,4.32.61,7.76,2.88,10.23,3.88,4.23,10.37,4.3,10.44,4.3,6,0,10.32-2.42,12.73-7.19A18.6,18.6,0,0,0,88,90.34v-1.8L99.3,95.92a34.72,34.72,0,0,0,9.58,6.54c1.19.62,4.31,1.91,6.6,2.85l2.43,1c14,6,18.58,55.84,18.77,58l0,.39-.25.31c-.22.27-5.37,6.68-9.49,8.09l-3.68,1.74C104.44,183.73,99.37,186.13,73.37,186.13ZM13.31,162.57c23,16.15,38.17,21.6,60.06,21.6,25.56,0,30.08-2.14,49.11-11.13l3.84-1.8c2.81-.94,6.79-5.24,8.39-7.17a258.09,258.09,0,0,0-3.93-25.89c-3.65-17.4-8.36-27.79-13.63-30.05l-2.41-1c-2.44-1-5.49-2.27-6.75-2.93a36.4,36.4,0,0,1-9.92-6.76L89.79,92c-.55,4.23-3.24,14.85-16.42,14.85-.3,0-7.39-.06-11.86-4.92A13.91,13.91,0,0,1,58,92.4c-4.14,3.16-15.16,11-24.71,13.17-8.41,1.87-10.65,12.75-12.44,21.5-.37,1.81-.72,3.52-1.11,5.06C16,147.21,13.46,157.33,13.31,162.57Z"/><path class="cls-3" d="M73.37,186.61c-22.6,0-38.22-5.64-61.89-22.35l-.62-.44v-.76c0-5.38,2.6-15.78,6.54-31.53.37-1.46.7-3.11,1.06-4.85l0-.12c1.94-9.43,4.35-21.17,14.3-23.39C44,100.7,58,89.32,58.15,89.2L60.83,87l-.29,3.44c-.35,4.17.58,7.49,2.75,9.86,3.72,4.06,10,4.14,10.08,4.14,5.84,0,10-2.33,12.3-6.93a18.18,18.18,0,0,0,1.82-7.2V87.64l12.07,7.87a34.71,34.71,0,0,0,9.54,6.51c1.16.6,4.24,1.88,6.49,2.81l2.5,1c14.28,6.12,18.88,56.24,19.07,58.37l.05.58-.37.46c-.56.7-5.57,6.82-9.71,8.25l-3.63,1.72C104.57,184.21,99.48,186.61,73.37,186.61ZM11.84,163.32l.21.15C35.53,180,51,185.64,73.37,185.64c25.89,0,30.94-2.39,49.73-11.27l3.68-1.74c4-1.38,9.1-7.69,9.32-8l.12-.15,0-.2A246.05,246.05,0,0,0,132,136.86c-3.74-17.28-8.68-27.69-14.29-30.09l-2.42-1c-2.33-1-5.44-2.25-6.64-2.87A35.09,35.09,0,0,1,99,96.29L88.47,89.44v.9A19,19,0,0,1,86.54,98c-2.5,5-6.93,7.46-13.17,7.46-.07,0-6.76-.05-10.8-4.46-2.36-2.58-3.38-6.14-3-10.6l.1-1.15-.89.73c-.14.12-14.34,11.65-25.77,14.19-9.34,2.08-11.68,13.47-13.56,22.63l0,.12c-.36,1.75-.7,3.4-1.07,4.89-3.92,15.68-6.51,26-6.51,31.29Zm61.53,21.34c-22,0-37.27-5.47-60.34-21.69l-.22-.15v-.26c.16-5.29,2.67-15.34,6.47-30.54.38-1.53.73-3.23,1.1-5,1.83-8.9,4.09-20,12.82-21.89C42.63,103,53.5,95.25,57.73,92l.77-.59v1a13.45,13.45,0,0,0,3.35,9.25c4.33,4.71,11.21,4.76,11.5,4.76,12.69,0,15.37-10.09,15.94-14.43l.1-.77L98.33,97a36.33,36.33,0,0,0,9.88,6.74c1.25.65,4.28,1.9,6.71,2.91l2.41,1c5.42,2.32,10.23,12.84,13.92,30.4A259.62,259.62,0,0,1,135.19,164l0,.2-.13.16c-.52.63-5.18,6.18-8.61,7.33l-3.78,1.78C103.58,182.52,99,184.66,73.37,184.66ZM13.8,162.32c22.76,16,37.81,21.36,59.56,21.36,25.45,0,30-2.13,48.9-11.09l3.84-1.8c2.57-.86,6.23-4.66,8.1-6.89a258.62,258.62,0,0,0-3.9-25.64c-3.61-17.24-8.23-27.51-13.35-29.7l-2.4-1c-2.45-1-5.5-2.27-6.79-2.94a36.72,36.72,0,0,1-10-6.83l-7.58-4.92c-.81,4.91-4,14.52-16.79,14.52-.31,0-7.61-.06-12.22-5.07a14.08,14.08,0,0,1-3.57-9C52.86,96.9,42.51,104,33.42,106.05c-8.11,1.8-10.3,12.51-12.07,21.12-.38,1.82-.73,3.53-1.11,5.08C16.51,147.14,14,157.07,13.8,162.32Z"/><path class="cls-1" d="M99.26,51.75a3.92,3.92,0,0,0-2-.3c.15-.57,2.07-4,.77-15.67C96.89,25.38,91.55,15,74.67,15c-13.63,0-21,7.29-23.38,16.88a44.67,44.67,0,0,0-.52,19.59,3.93,3.93,0,0,0-2.1.27c-2.48,1.08-3.33,4.59-1.92,7.82a7.83,7.83,0,0,0,2,2.74A3.67,3.67,0,0,0,49,64.06a3.35,3.35,0,0,0,3.32,2.09C54.35,76.6,63.28,86.44,74,86.44s19.66-9.83,21.66-20.27a3.37,3.37,0,0,0,3.21-2.1,3.67,3.67,0,0,0,.29-1.75,7.83,7.83,0,0,0,2-2.74C102.59,56.34,101.73,52.83,99.26,51.75Z"/><path class="cls-3" d="M74,87.42c-11.35,0-20.19-10.19-22.46-20.3a4.4,4.4,0,0,1-3.42-2.66,4.64,4.64,0,0,1-.39-1.72A8.9,8.9,0,0,1,45.85,60a8.43,8.43,0,0,1-.56-5.34,5.32,5.32,0,0,1,3-3.77,4.61,4.61,0,0,1,1.3-.35,46.79,46.79,0,0,1,.77-18.85C53.14,20.45,62,14,74.67,14,89,14,97.44,21.51,99,35.68c.72,6.48.58,11.47-.4,14.86a4.75,4.75,0,0,1,1,.32h0a5.32,5.32,0,0,1,3,3.77,8.43,8.43,0,0,1-.56,5.34,8.91,8.91,0,0,1-1.91,2.77,4.65,4.65,0,0,1-.38,1.72,4.44,4.44,0,0,1-3.3,2.64C94.22,77.21,85.38,87.42,74,87.42ZM53.15,65.09l.17.88C55.14,75.55,63.38,85.46,74,85.46S92.89,75.56,94.72,66l.16-.84.86.05A2.41,2.41,0,0,0,98,63.67a2.69,2.69,0,0,0,.22-1.29l0-.48.37-.32a6.9,6.9,0,0,0,1.74-2.4,6.48,6.48,0,0,0,.45-4.09,3.42,3.42,0,0,0-1.86-2.44,2.92,2.92,0,0,0-1.49-.22l-1.4.14.36-1.36c0-.08.06-.19.12-.35,1.17-3.08,1.38-8.11.62-15C95.61,22.68,88.07,16,74.67,16,62.8,16,54.84,21.71,52.23,32.13a44.16,44.16,0,0,0-.53,19.1l.37,1.4-1.44-.18a3,3,0,0,0-1.59.2,3.42,3.42,0,0,0-1.86,2.44,6.48,6.48,0,0,0,.45,4.09,6.9,6.9,0,0,0,1.74,2.4l.37.32,0,.49a2.67,2.67,0,0,0,.22,1.28,2.39,2.39,0,0,0,2.33,1.51Z"/><path class="cls-3" d="M74,87.42c-11.35,0-20.19-10.19-22.46-20.3a4.4,4.4,0,0,1-3.42-2.66,4.65,4.65,0,0,1-.38-1.72A8.92,8.92,0,0,1,45.85,60c-1.63-3.72-.55-7.81,2.42-9.11a4.61,4.61,0,0,1,1.3-.35,46.73,46.73,0,0,1,.77-18.85C53.14,20.45,62,14,74.67,14,89,14,97.44,21.51,99,35.68c.72,6.48.59,11.47-.4,14.86a4.74,4.74,0,0,1,1,.32h0a5.33,5.33,0,0,1,3,3.77,8.43,8.43,0,0,1-.56,5.34,8.91,8.91,0,0,1-1.9,2.77,4.65,4.65,0,0,1-.38,1.72,4.44,4.44,0,0,1-3.3,2.64C94.22,77.21,85.38,87.42,74,87.42Z"/><path class="cls-3" d="M74,88.39c-11.9,0-20.76-10.42-23.26-20.44a5.47,5.47,0,0,1-3.51-3.1,5.54,5.54,0,0,1-.44-1.69A9.94,9.94,0,0,1,45,60.35c-1.85-4.22-.54-8.88,2.92-10.39a5.46,5.46,0,0,1,.58-.22,48.12,48.12,0,0,1,.93-18.33c2.92-11.67,12.13-18.36,25.27-18.36,14.93,0,23.68,7.79,25.32,22.52.67,6,.61,10.83-.19,14.29l.24.1a6.28,6.28,0,0,1,3.53,4.43,9.41,9.41,0,0,1-.61,6,10,10,0,0,1-1.85,2.8,5.57,5.57,0,0,1-.44,1.69,5.51,5.51,0,0,1-3.38,3.06C94.8,77.95,85.94,88.39,74,88.39ZM74.67,15C62.49,15,54,21.16,51.29,31.89a45.75,45.75,0,0,0-.75,18.44l.18,1-1,.12a3.66,3.66,0,0,0-1,.28c-2.47,1.08-3.33,4.59-1.92,7.82A8,8,0,0,0,48.44,62l.28.28v.39a3.67,3.67,0,0,0,.3,1.36,3.44,3.44,0,0,0,2.65,2.08l.68.09.15.67C55.35,79.59,65.71,86.44,74,86.44s18.68-6.85,21.51-19.56l.14-.65.65-.11a3.48,3.48,0,0,0,2.56-2.07,3.71,3.71,0,0,0,.3-1.36v-.39l.28-.27a8,8,0,0,0,1.69-2.46,7.45,7.45,0,0,0,.5-4.72,4.37,4.37,0,0,0-2.42-3.11,3.78,3.78,0,0,0-.82-.25l-1.06-.2.3-1c.95-3.26,1.07-8.13.37-14.48C96.54,22.19,88.45,15,74.67,15Z"/><path class="cls-1" d="M53.15,65.09l.17.88C55.14,75.55,63.38,85.46,74,85.46S92.89,75.56,94.72,66l.16-.84.86.05A2.39,2.39,0,0,0,98,63.67a2.68,2.68,0,0,0,.22-1.29l0-.48.36-.32a6.9,6.9,0,0,0,1.75-2.4,6.47,6.47,0,0,0,.45-4.09,3.42,3.42,0,0,0-1.86-2.44h0a2.93,2.93,0,0,0-1.49-.22l-1.4.14.36-1.36c0-.08.06-.19.12-.35,1.17-3.08,1.38-8.11.62-15C95.61,22.68,88.07,16,74.67,16,62.8,16,54.84,21.71,52.24,32.13a44.08,44.08,0,0,0-.53,19.1l.37,1.4-1.44-.18a3,3,0,0,0-1.59.2c-2,.87-2.61,3.8-1.41,6.54a6.9,6.9,0,0,0,1.75,2.4l.36.32,0,.48a2.68,2.68,0,0,0,.22,1.29,2.4,2.4,0,0,0,2.33,1.51Z"/></g><path class="cls-3" d="M75,150a75,75,0,1,1,75-75A75.09,75.09,0,0,1,75,150ZM75,2a73,73,0,1,0,73,73A73.13,73.13,0,0,0,75,2Z"/></svg>