<svg id="ic_pump_white" xmlns="http://www.w3.org/2000/svg" width="16.98" height="18" viewBox="0 0 16.98 18">
  <path id="Path_6" data-name="Path 6" d="M527.383,170.832a.566.566,0,0,0-.566-.566h-5.66a.566.566,0,0,0-.566.566v4.528a.566.566,0,0,0,.566.566h5.66a.566.566,0,0,0,.566-.566Zm-1.132,3.962h-4.528v-3.4h4.528Z" transform="translate(-517.195 -167.461)" fill="#fff"/>
  <path id="Path_7" data-name="Path 7" d="M460.47,110.255l-2.257-1.125a.562.562,0,1,0-.5,1.006l.86.427a.566.566,0,0,0-.053.2,1.81,1.81,0,0,0,1.119,1.584V119.2a.566.566,0,0,1-1.132,0v-4.5a2.992,2.992,0,0,0-2.264-2.756v-3.432A2.23,2.23,0,0,0,454,106.266h-6.792a2.276,2.276,0,0,0-2.291,2.242V121.1l-.819.407a.562.562,0,0,0-.313.5V123.7a.6.6,0,0,0,.593.571h12.452a.549.549,0,0,0,.539-.571v-1.688a.562.562,0,0,0-.313-.5l-.819-.407v-7.986a1.822,1.822,0,0,1,1.132,1.584v4.5a1.7,1.7,0,0,0,3.4,0v-8.437a.55.55,0,0,0-.3-.5m-4.228,12.886h-11.32v-.786l.819-.407a.562.562,0,0,0,.313-.5V108.508a1.146,1.146,0,0,1,1.159-1.117H454a1.1,1.1,0,0,1,1.1,1.117v12.937a.562.562,0,0,0,.313.5l.819.407Z" transform="translate(-443.79 -106.266)" fill="#fff"/>
</svg>
