<svg xmlns="http://www.w3.org/2000/svg" width="34.272" height="29.063" viewBox="0 0 34.272 29.063">
  <path id="ic_pump_charge_white" d="M1084.437,104.134c-.037-.008-5.753-1.311-5.791-1.318a6.1,6.1,0,0,0-4.525,1l-.012.008-4.594,3.315a1.679,1.679,0,0,0-1.737.113l-2.34,1.638a2.767,2.767,0,0,0-1.728-1.053l-3.111-.549a2.831,2.831,0,0,0-3.275,2.293l-.1.545a.971.971,0,0,1-1.128.79,2.824,2.824,0,0,0-3.274,2.293l-1.842,10.444a2.4,2.4,0,0,0,1.5,2.647l-.62,3.518a1.008,1.008,0,0,0,.817,1.167l4.453.785a1.007,1.007,0,0,0,1.167-.817l.613-3.473c.812.143-.138-.08,6.333,1.54A4.153,4.153,0,0,0,1070.4,125l.01-8.667a1.006,1.006,0,0,0-.182-.6l-.328-.469,2.337-1.636a1.677,1.677,0,0,0,.689-1.679l4.614-3.325,6.453,1.41a1.008,1.008,0,0,0,1.222-.984v-3.937a1.007,1.007,0,0,0-.783-.982Zm-27.949,25.481-2.469-.435.438-2.482,2.469.435Zm1.979-12.5.223,8.281-5.415-.955a.378.378,0,0,1-.306-.437l1.842-10.445a.811.811,0,0,1,.938-.659,2.984,2.984,0,0,0,3.463-2.423l.1-.545a.814.814,0,0,1,.942-.659l3.11.549a.768.768,0,0,1,.5.315l3.333,4.76-5.1-.9a3.083,3.083,0,0,0-3.617,3.118ZM1068.39,125a2.138,2.138,0,0,1-2.658,2.073l-5.016-1.255-.236-8.75a1.069,1.069,0,0,1,1.253-1.08l2.087.368-.538,2.205a7.032,7.032,0,0,0,.781,5.268,1.007,1.007,0,0,0,1.734-1.024,5.026,5.026,0,0,1-.558-3.767l.569-2.332,2.59.457Zm.359-11.379-2.153-3.075,2.063-1.444,2.153,3.075Zm14.457-5.815-5.671-1.239a1.008,1.008,0,0,0-.8.167l-4.834,3.483-1.073-1.531,4.457-3.216a4.072,4.072,0,0,1,2.991-.669l4.933,1.124Zm0,0" transform="translate(-1050.949 -102.726)" fill="#fff"/>
</svg>
