<svg xmlns="http://www.w3.org/2000/svg" width="56.579" height="59.708" viewBox="0 0 56.579 59.708">
  <g id="ic_pump_background" opacity="0.1">
    <path id="Trazado_5" data-name="Trazado 5" d="M464.1,141.154v-41.5a6.771,6.771,0,0,0-6.771-6.771H436.9a6.676,6.676,0,0,0-6.676,6.676v41.389l-3.247,1.623v5.505h40.795v-5.505Z" transform="translate(-426.974 -92.883)" fill="#cdd4e2"/>
    <path id="Trazado_6" data-name="Trazado 6" d="M542.273,172.073a1.807,1.807,0,0,0-1.806-1.807H522.4a1.807,1.807,0,0,0-1.807,1.807v14.454a1.807,1.807,0,0,0,1.807,1.807h18.069a1.807,1.807,0,0,0,1.806-1.807Zm-3.613,12.647H524.2V173.88h14.455Z" transform="translate(-507.376 -159.343)" fill="#8c95a8"/>
    <path id="Trazado_7" data-name="Trazado 7" d="M497.039,119.078l-7.206-3.613a1.8,1.8,0,1,0-1.6,3.232l2.744,1.371a1.825,1.825,0,0,0-.168.626,5.811,5.811,0,0,0,3.571,5.088V147.8a1.807,1.807,0,1,1-3.613,0V133.342c0-4.363-3.614-8.012-7.227-8.852V113.467a7.14,7.14,0,0,0-7.141-7.2H454.717a7.287,7.287,0,0,0-7.313,7.2v40.44l-2.616,1.308a1.807,1.807,0,0,0-1,1.616v5.421a1.906,1.906,0,0,0,1.893,1.834h39.75a1.759,1.759,0,0,0,1.72-1.834v-5.421a1.806,1.806,0,0,0-1-1.616l-2.614-1.308V128.255a5.849,5.849,0,0,1,3.613,5.087V147.8a5.421,5.421,0,1,0,10.841,0v-27.1a1.768,1.768,0,0,0-.956-1.616m-13.5,41.393H447.4v-2.523l2.615-1.307a1.807,1.807,0,0,0,1-1.617V113.467a3.67,3.67,0,0,1,3.7-3.587H476.4a3.522,3.522,0,0,1,3.527,3.587v41.558a1.807,1.807,0,0,0,1,1.616l2.616,1.307Z" transform="translate(-441.416 -104.377)" fill="#8c95a8"/>
  </g>
</svg>
