<svg xmlns="http://www.w3.org/2000/svg" width="17.876" height="19" viewBox="0 0 17.876 19">
  <path id="ic_pump_primary" d="M-8185.6,4408.937a.6.6,0,0,1-.59-.572v-1.688a.562.562,0,0,1,.312-.5l.814-.408v-12.588a2.267,2.267,0,0,1,2.276-2.242h6.75a2.223,2.223,0,0,1,2.224,2.242v3.432a2.986,2.986,0,0,1,2.25,2.754v4.5a.562.562,0,0,0,.562.562.562.562,0,0,0,.562-.562v-6.854a1.807,1.807,0,0,1-1.112-1.584.594.594,0,0,1,.052-.194l-.854-.426a.563.563,0,0,1-.252-.756.557.557,0,0,1,.75-.252l2.244,1.126a.552.552,0,0,1,.3.5v8.438a1.689,1.689,0,0,1-1.688,1.688,1.69,1.69,0,0,1-1.688-1.687v-4.5a1.823,1.823,0,0,0-1.124-1.584v7.986l.814.408a.564.564,0,0,1,.31.5v1.688a.547.547,0,0,1-.536.572Zm1.66-15.758v12.936a.564.564,0,0,1-.311.5l-.813.406v.786h11.25v-.786l-.813-.406a.563.563,0,0,1-.312-.5v-12.936a1.1,1.1,0,0,0-1.1-1.118h-6.75A1.142,1.142,0,0,0-8183.938,4393.179Zm1.688,6.194a.562.562,0,0,1-.562-.562v-4.5a.563.563,0,0,1,.563-.562h5.625a.563.563,0,0,1,.563.562v4.5a.561.561,0,0,1-.562.562Zm.562-1.124h4.5v-3.374h-4.5Z" transform="translate(8186.689 -4390.437)" fill="#3f506a" stroke="rgba(0,0,0,0)" stroke-miterlimit="10" stroke-width="1"/>
</svg>
