<svg xmlns="http://www.w3.org/2000/svg" width="90.267" height="96.286" viewBox="0 0 90.267 96.286">
  <g id="ic_pump_background_big" opacity="0.1">
    <path id="Trazado_6" data-name="Trazado 6" d="M556.7,173.275a3.009,3.009,0,0,0-3.008-3.009H523.6a3.009,3.009,0,0,0-3.009,3.009v24.071a3.009,3.009,0,0,0,3.009,3.009h30.09a3.009,3.009,0,0,0,3.008-3.009Zm-6.017,21.062H526.608V176.284H550.68Z" transform="translate(-502.537 -155.221)" fill="#fff"/>
    <path id="Trazado_7" data-name="Trazado 7" d="M532.466,127.6l-12-6.017a3,3,0,1,0-2.664,5.383l4.57,2.282a3.04,3.04,0,0,0-.28,1.043,9.677,9.677,0,0,0,5.948,8.473v36.661a3.009,3.009,0,1,1-6.017,0V151.356c0-7.265-6.018-13.342-12.035-14.741V118.257a11.89,11.89,0,0,0-11.892-11.991H461.987a12.135,12.135,0,0,0-12.178,11.991V185.6l-4.356,2.178a3.009,3.009,0,0,0-1.663,2.691V199.5a3.174,3.174,0,0,0,3.153,3.054h66.2A2.929,2.929,0,0,0,516,199.5v-9.027a3.008,3.008,0,0,0-1.663-2.691l-4.354-2.178V142.884c3.008,1.245,6.017,4.555,6.017,8.472v24.071a9.027,9.027,0,1,0,18.054,0V130.293a2.944,2.944,0,0,0-1.591-2.691m-22.479,68.932H449.809v-4.2l4.354-2.177a3.009,3.009,0,0,0,1.663-2.692v-69.2a6.111,6.111,0,0,1,6.161-5.973h36.108a5.865,5.865,0,0,1,5.874,5.973v69.206a3.009,3.009,0,0,0,1.663,2.691l4.356,2.177Z" transform="translate(-443.79 -106.266)" fill="#fff"/>
  </g>
</svg>
