<svg id="ic_password" xmlns="http://www.w3.org/2000/svg" width="22.762" height="12.006" viewBox="0 0 22.762 12.006">
  <g id="Grupo_1260" data-name="Grupo 1260" transform="translate(0)">
    <path id="Trazado_497" data-name="Trazado 497" d="M11.381,112.742a14.25,14.25,0,0,1-7.966-2.806,19.957,19.957,0,0,1-3.257-2.789.609.609,0,0,1,0-.817,19.958,19.958,0,0,1,3.257-2.789,14.251,14.251,0,0,1,7.966-2.806,14.25,14.25,0,0,1,7.966,2.806,19.958,19.958,0,0,1,3.257,2.789.609.609,0,0,1,0,.817,19.96,19.96,0,0,1-3.257,2.789A14.25,14.25,0,0,1,11.381,112.742Zm-9.855-6a20.153,20.153,0,0,0,2.662,2.2,13.186,13.186,0,0,0,7.193,2.556,13.186,13.186,0,0,0,7.193-2.556,20.155,20.155,0,0,0,2.662-2.2,20.15,20.15,0,0,0-2.662-2.2,13.185,13.185,0,0,0-7.193-2.556,13.186,13.186,0,0,0-7.193,2.556A20.147,20.147,0,0,0,1.526,106.739Z" transform="translate(0 -100.736)" fill="#4889ff"/>
  </g>
  <g id="Grupo_1261" data-name="Grupo 1261" transform="translate(7.39 2.135)">
    <path id="Trazado_498" data-name="Trazado 498" d="M147.511,151.257a3.87,3.87,0,1,1,0-7.736,4.061,4.061,0,0,1,2.629.958.611.611,0,0,1,.06.88.658.658,0,0,1-.908.058,2.751,2.751,0,0,0-1.78-.648,2.621,2.621,0,1,0,2.7,2.62.644.644,0,0,1,1.287,0A3.935,3.935,0,0,1,147.511,151.257Z" transform="translate(-143.52 -143.521)" fill="#4889ff"/>
  </g>
  <g id="Grupo_1262" data-name="Grupo 1262" transform="translate(10.094 4.756)" opacity="0.997">
    <path id="Trazado_499" data-name="Trazado 499" d="M197.307,198.516a1.248,1.248,0,1,1,1.287-1.248A1.269,1.269,0,0,1,197.307,198.516Z" transform="translate(-196.02 -196.021)" fill="#4889ff"/>
  </g>
</svg>
