<svg xmlns="http://www.w3.org/2000/svg" width="28.442" height="30.274" viewBox="0 0 28.442 30.274">
  <path id="ic_pump_buy_white" d="M-8233.04,4070.714a.964.964,0,0,1-.959-.928v-2.746a.916.916,0,0,1,.5-.816l1.324-.663v-20.472a3.691,3.691,0,0,1,3.7-3.647h10.978a3.617,3.617,0,0,1,3.616,3.647v5.579a4.858,4.858,0,0,1,3.657,4.482v7.317a.918.918,0,0,0,.916.915.915.915,0,0,0,.913-.915v-11.145a2.944,2.944,0,0,1-1.806-2.577.922.922,0,0,1,.084-.316l-1.389-.694a.917.917,0,0,1-.413-1.227.908.908,0,0,1,1.224-.409l3.647,1.829a.9.9,0,0,1,.483.818v13.721a2.747,2.747,0,0,1-2.744,2.744,2.747,2.747,0,0,1-2.744-2.744v-7.317a2.969,2.969,0,0,0-1.829-2.577v12.988l1.322.663a.913.913,0,0,1,.507.816v2.746a.891.891,0,0,1-.87.928Zm2.7-25.626v21.039a.915.915,0,0,1-.506.818l-1.325.661v1.277h18.3v-1.277l-1.324-.661a.914.914,0,0,1-.507-.818v-21.039a1.782,1.782,0,0,0-1.785-1.816h-10.978A1.857,1.857,0,0,0-8230.34,4045.088Zm6.648,18.212v-1.167a4.534,4.534,0,0,1-2.779-1.54.654.654,0,0,1,.258-1.019,1.038,1.038,0,0,1,1.252.211,2.584,2.584,0,0,0,1.27.821v-4.174a3.867,3.867,0,0,1-3.512-3.511,3.868,3.868,0,0,1,3.512-3.513v-1.166a.834.834,0,0,1,.9-.736.834.834,0,0,1,.905.736v1.167a4.544,4.544,0,0,1,2.782,1.54.658.658,0,0,1-.259,1.019,1.037,1.037,0,0,1-1.252-.209,2.593,2.593,0,0,0-1.271-.823v4.174a3.868,3.868,0,0,1,3.514,3.513,3.868,3.868,0,0,1-3.514,3.511v1.166a.834.834,0,0,1-.905.736A.834.834,0,0,1-8223.691,4063.3Zm1.81-2.695a2.193,2.193,0,0,0,1.7-1.982,2.193,2.193,0,0,0-1.7-1.984Zm-3.511-7.685a2.193,2.193,0,0,0,1.7,1.982v-3.966A2.193,2.193,0,0,0-8225.393,4052.92Z" transform="translate(8234.499 -4040.94)" fill="#fff" stroke="rgba(0,0,0,0)" stroke-miterlimit="10" stroke-width="1"/>
</svg>
