<svg xmlns="http://www.w3.org/2000/svg" width="106.219" height="100" viewBox="0 0 106.219 100">
  <g id="ic_phone_code" transform="translate(-1616.306 333)">
    <g id="Grupo_10" data-name="Grupo 10" transform="translate(1646.466 -250.808)">
      <path id="Trazado_17" data-name="Trazado 17" d="M717.754,142.638a4.674,4.674,0,0,1-4.674-4.674h0a4.674,4.674,0,1,1,4.674,4.674Z" transform="translate(-713.08 -133.29)" fill="#4889ff"/>
    </g>
    <g id="Grupo_11" data-name="Grupo 11" transform="translate(1620.61 -330.281)">
      <path id="Trazado_18" data-name="Trazado 18" d="M721.751,101.691H681.608A10.471,10.471,0,0,1,671.15,91.232V14.868A10.471,10.471,0,0,1,681.608,4.41h40.143a10.471,10.471,0,0,1,10.458,10.458V91.232A10.475,10.475,0,0,1,721.751,101.691ZM681.608,9.96a4.913,4.913,0,0,0-4.908,4.908V91.232a4.913,4.913,0,0,0,4.908,4.908h40.143a4.913,4.913,0,0,0,4.908-4.908V14.868a4.913,4.913,0,0,0-4.908-4.908Z" transform="translate(-671.15 -4.41)" fill="#4889ff"/>
    </g>
    <g id="Grupo_12" data-name="Grupo 12" transform="translate(1631.661 -317.948)">
      <path id="Trazado_19" data-name="Trazado 19" d="M728.029,27.142A2.737,2.737,0,0,0,725.3,24.41H691.8a2.737,2.737,0,0,0-2.732,2.732V85.679a2.737,2.737,0,0,0,2.732,2.732h33.5a2.737,2.737,0,0,0,2.732-2.732Zm-5.463,55.806H694.533V29.873h28.032Z" transform="translate(-689.07 -24.41)" fill="#4889ff"/>
    </g>
    <g id="international-reception-worker_2_" transform="translate(1658.702 -310.77)">
      <g id="Grupo_1268_2_" transform="translate(0 0)">
        <g id="Trazado_518_2_">
          <path id="Trazado_20" data-name="Trazado 20" d="M110.974-938.834A12.4,12.4,0,0,0,98.58-926.439v3.163l-10.36,6.117,10.347,5.106v4.575a12.4,12.4,0,0,0,12.394,12.394h24.369a12.4,12.4,0,0,0,12.394-12.394h0v-18.968a12.4,12.4,0,0,0-12.394-12.394h0l-24.357.006Z" transform="translate(-86.06 941.011)" fill="#fff"/>
          <path id="Trazado_21" data-name="Trazado 21" d="M133.988-894.275H109.619a14.587,14.587,0,0,1-14.553-14.553v-3.237l-9.145-4.514a2.163,2.163,0,0,1-1.2-1.856,2.158,2.158,0,0,1,1.061-1.942l9.3-5.494v-1.93a14.587,14.587,0,0,1,14.374-14.553,1.733,1.733,0,0,1,.179-.006h24.357a14.572,14.572,0,0,1,14.553,14.553v18.968A14.57,14.57,0,0,1,133.988-894.275Zm-42.579-24.4,6.771,3.342a2.166,2.166,0,0,1,1.2,1.936v4.575a10.266,10.266,0,0,0,10.236,10.236h24.363a10.25,10.25,0,0,0,10.236-10.236v-18.968a10.25,10.25,0,0,0-10.236-10.236h-24.2a1.381,1.381,0,0,1-.16.006,10.262,10.262,0,0,0-10.236,10.236v3.163a2.148,2.148,0,0,1-1.061,1.856Zm18.222-21.508Z" transform="translate(-84.717 942.36)" fill="#4889ff"/>
        </g>
      </g>
    </g>
    <g id="Grupo_13" data-name="Grupo 13" transform="translate(1677.914 -292.218)">
      <path id="Trazado_22" data-name="Trazado 22" d="M774.149,69.225a.474.474,0,0,0-.475-.432h0a.888.888,0,0,0-.277.055l-3.071,1.307.222-3.515-.006-.043a.531.531,0,0,0-.2-.345.485.485,0,0,0-.339-.1H768.63a.589.589,0,0,0-.419.142.56.56,0,0,0-.179.413l.247,3.484-3.022-1.209a.526.526,0,0,0-.45-.043.542.542,0,0,0-.3.333l-.382,1.1a.554.554,0,0,0,.327.752l3.231.913-2.362,2.948a.879.879,0,0,0-.148.4.53.53,0,0,0,.253.419l1.067.728a.641.641,0,0,0,.339.092c.019,0,.043.006.062.006a.432.432,0,0,0,.4-.259l2.01-3.2,1.949,3.12a.515.515,0,0,0,.45.222.705.705,0,0,0,.425-.142l.968-.672a.707.707,0,0,0,.284-.475.636.636,0,0,0-.13-.432l-2.281-2.781,3.145-1.048a.491.491,0,0,0,.388-.45.671.671,0,0,0-.043-.284Z" transform="translate(-764.079 -66.14)" fill="#4889ff"/>
      <path id="Trazado_23" data-name="Trazado 23" d="M794.489,69.222a.474.474,0,0,0-.475-.432h0a.7.7,0,0,0-.278.055l-3.071,1.3.222-3.515-.006-.043a.531.531,0,0,0-.2-.345.518.518,0,0,0-.339-.1h-1.375a.588.588,0,0,0-.407.142.55.55,0,0,0-.179.413l.241,3.484L785.6,68.969a.527.527,0,0,0-.45-.043.542.542,0,0,0-.3.333l-.382,1.1a.554.554,0,0,0,.327.752l3.231.913-2.362,2.954a.781.781,0,0,0-.148.407.54.54,0,0,0,.253.419l1.067.728a.64.64,0,0,0,.339.092c.018,0,.043.006.062.006a.432.432,0,0,0,.4-.259l2.01-3.2,1.955,3.12a.489.489,0,0,0,.45.222.705.705,0,0,0,.425-.142l.962-.666a.707.707,0,0,0,.284-.475.612.612,0,0,0-.13-.425l-2.282-2.781,3.145-1.048a.491.491,0,0,0,.388-.45.7.7,0,0,0-.043-.29Z" transform="translate(-771.876 -66.136)" fill="#4889ff"/>
      <path id="Trazado_24" data-name="Trazado 24" d="M815.157,70.218l-.314-.993a.474.474,0,0,0-.475-.432h0a.676.676,0,0,0-.277.056l-3.071,1.307.222-3.521-.006-.043a.5.5,0,0,0-.2-.339.485.485,0,0,0-.339-.1h-1.369a.6.6,0,0,0-.419.142.534.534,0,0,0-.173.413l.247,3.484-3.022-1.209a.55.55,0,0,0-.45-.043.542.542,0,0,0-.3.333l-.382,1.1a.554.554,0,0,0,.327.752l3.231.919L806.007,75a.827.827,0,0,0-.123.388.54.54,0,0,0,.253.419l1.067.728a.565.565,0,0,0,.339.092c.019,0,.043.006.062.006a.432.432,0,0,0,.4-.259l2-3.2,1.949,3.114a.489.489,0,0,0,.45.222.706.706,0,0,0,.426-.142l.974-.672a.707.707,0,0,0,.284-.475.636.636,0,0,0-.13-.432l-2.282-2.781,3.145-1.048a.491.491,0,0,0,.388-.456A.929.929,0,0,0,815.157,70.218Z" transform="translate(-779.681 -66.14)" fill="#4889ff"/>
    </g>
    <path id="Trazado_36" data-name="Trazado 36" d="M712.891,0H671.354a7.006,7.006,0,0,0-7.184,6.82V86.847a7,7,0,0,0,7.178,6.814h41.543a7.009,7.009,0,0,0,7.184-6.814V6.82A7.014,7.014,0,0,0,712.891,0Zm-5.272,66.831a4.345,4.345,0,0,1-4.378,4.31H677.927a4.345,4.345,0,0,1-4.378-4.31V16.23h0a4.345,4.345,0,0,1,4.378-4.31H703.24a4.35,4.35,0,0,1,4.378,4.316Z" transform="translate(952.136 -333)" fill="#4889ff" opacity="0.2"/>
  </g>
</svg>
