<svg xmlns="http://www.w3.org/2000/svg" width="65.388" height="48.125" viewBox="0 0 65.388 48.125">
  <path id="ic_pump" d="M1114.843,105.058c-.071-.014-10.977-2.171-11.048-2.182a13.068,13.068,0,0,0-8.634,1.66l-.021.014-8.767,5.49a3.62,3.62,0,0,0-3.314.188l-4.465,2.712a5.455,5.455,0,0,0-3.3-1.743l-5.935-.908c-2.929-.447-5.732,1.255-6.248,3.8l-.184.9a1.847,1.847,0,0,1-2.151,1.307c-2.933-.45-5.732,1.248-6.247,3.8l-3.513,17.294a3.917,3.917,0,0,0,2.854,4.382l-1.184,5.826a1.705,1.705,0,0,0,1.559,1.932l8.5,1.3a1.916,1.916,0,0,0,2.225-1.353l1.169-5.752c1.548.237-.264-.132,12.084,2.549,4.984,1.082,9.841-2.179,9.846-6.663l.02-14.351a1.511,1.511,0,0,0-.347-.988l-.627-.776,4.459-2.709a2.622,2.622,0,0,0,1.315-2.78l8.8-5.505,12.313,2.335a1.87,1.87,0,0,0,2.332-1.629v-6.52a1.737,1.737,0,0,0-1.494-1.626Zm-53.325,42.193-4.711-.721.836-4.11,4.711.721Zm3.776-20.694.425,13.712-10.33-1.582a.64.64,0,0,1-.585-.723l3.514-17.3a1.543,1.543,0,0,1,1.791-1.091c3.083.478,6.057-1.3,6.608-4.013l.183-.9a1.548,1.548,0,0,1,1.8-1.091l5.934.908a1.506,1.506,0,0,1,.945.521l6.359,7.882-9.739-1.491c-3.668-.56-7,1.938-6.9,5.163Zm18.931,13.045c0,2.305-2.5,3.991-5.07,3.432l-9.57-2.078-.449-14.488a1.962,1.962,0,0,1,2.391-1.789l3.982.61-1.026,3.652a10.328,10.328,0,0,0,1.49,8.723,2.092,2.092,0,0,0,2.631.588,1.551,1.551,0,0,0,.678-2.284,7.38,7.38,0,0,1-1.065-6.237l1.085-3.862,4.942.756Zm.686-18.842-4.108-5.091,3.935-2.391,4.108,5.091Zm27.583-9.628-10.818-2.052a2.161,2.161,0,0,0-1.534.276l-9.223,5.767-2.045-2.536,8.5-5.325a8.722,8.722,0,0,1,5.708-1.108l9.411,1.86Zm0,0" transform="translate(-1050.949 -102.726)" fill="#fff"/>
</svg>
