<svg id="ic_pay_in_store_white" xmlns="http://www.w3.org/2000/svg" width="26.335" height="38.675" viewBox="0 0 26.335 38.675">
  <path id="Trazado_587" data-name="Trazado 587" d="M3046.015,1372.073a1.275,1.275,0,0,0-1.275,1.275h0a1.275,1.275,0,1,0,1.275-1.275Z" transform="translate(-3028.015 -1338.258)" fill="#fff"/>
  <path id="Trazado_588" data-name="Trazado 588" d="M2847.653,938.235h-3.692l-.454-5.055a.817.817,0,0,0-.818-.748h-3.29V930.9a4.779,4.779,0,1,0-9.558,0v1.535h-3.292a.817.817,0,0,0-.818.748l-1.556,17.329a.821.821,0,0,0,.818.894h8.844v10.535a2.858,2.858,0,0,0,2.855,2.855h10.96a2.858,2.858,0,0,0,2.855-2.855V941.089A2.858,2.858,0,0,0,2847.653,938.235Zm-16.169-7.338a3.137,3.137,0,1,1,6.273,0v1.535h-6.273Zm2.355,10.192v8.672h-7.947l1.409-15.687h2.541V935.8a.821.821,0,0,0,1.642,0v-1.729h6.273V935.8a.821.821,0,0,0,1.642,0v-1.729h2.539l.374,4.161h-5.619A2.858,2.858,0,0,0,2833.839,941.089Zm15.154,20.849a1.341,1.341,0,0,1-1.34,1.339h-10.96a1.341,1.341,0,0,1-1.34-1.339V941.089a1.341,1.341,0,0,1,1.34-1.339h10.96a1.341,1.341,0,0,1,1.34,1.339Z" transform="translate(-2824.173 -926.118)" fill="#fff"/>
  <path id="Trazado_589" data-name="Trazado 589" d="M3001.309,1130.3h-9.146a.747.747,0,0,0-.746.746v15.982a.747.747,0,0,0,.746.746h9.146a.747.747,0,0,0,.746-.746v-15.982A.747.747,0,0,0,3001.309,1130.3Zm-.747,15.982h-7.653v-14.489h7.653Z" transform="translate(-2978.736 -1114.819)" fill="#fff"/>
  <path id="Trazado_590" data-name="Trazado 590" d="M3032.686,1183.592v-.67a.531.531,0,0,0-1.039,0v.669a2.015,2.015,0,1,0,0,4.03v2.4a1.48,1.48,0,0,1-.728-.471.6.6,0,0,0-.719-.12.377.377,0,0,0-.148.584,2.6,2.6,0,0,0,1.6.883v.67a.531.531,0,0,0,1.039,0v-.669a2.015,2.015,0,1,0,0-4.03v-2.4a1.479,1.479,0,0,1,.728.472.6.6,0,0,0,.719.12.377.377,0,0,0,.148-.585A2.6,2.6,0,0,0,3032.686,1183.592Zm-1.039,3.151a1.151,1.151,0,0,1,0-2.276Zm2.015,2.135a1.257,1.257,0,0,1-.976,1.138v-2.276A1.256,1.256,0,0,1,3033.663,1188.879Z" transform="translate(-3014.052 -1163.059)" fill="#fff"/>
</svg>
