<svg xmlns="http://www.w3.org/2000/svg" width="65.364" height="100" viewBox="0 0 65.364 100">
  <g id="ic_phone" transform="translate(-1616.306 333)">
    <g id="Grupo_10" data-name="Grupo 10" transform="translate(1646.466 -250.808)">
      <path id="Trazado_17" data-name="Trazado 17" d="M717.754,142.638a4.674,4.674,0,0,1-4.674-4.674h0a4.674,4.674,0,1,1,4.674,4.674Z" transform="translate(-713.08 -133.29)" fill="#4889ff"/>
    </g>
    <g id="Grupo_11" data-name="Grupo 11" transform="translate(1620.61 -330.281)">
      <path id="Trazado_18" data-name="Trazado 18" d="M721.751,101.691H681.608A10.471,10.471,0,0,1,671.15,91.232V14.868A10.471,10.471,0,0,1,681.608,4.41h40.143a10.471,10.471,0,0,1,10.458,10.458V91.232A10.475,10.475,0,0,1,721.751,101.691ZM681.608,9.96a4.913,4.913,0,0,0-4.908,4.908V91.232a4.913,4.913,0,0,0,4.908,4.908h40.143a4.913,4.913,0,0,0,4.908-4.908V14.868a4.913,4.913,0,0,0-4.908-4.908Z" transform="translate(-671.15 -4.41)" fill="#4889ff"/>
    </g>
    <g id="Grupo_12" data-name="Grupo 12" transform="translate(1631.661 -317.948)">
      <path id="Trazado_19" data-name="Trazado 19" d="M728.029,27.142A2.737,2.737,0,0,0,725.3,24.41H691.8a2.737,2.737,0,0,0-2.732,2.732V85.679a2.737,2.737,0,0,0,2.732,2.732h33.5a2.737,2.737,0,0,0,2.732-2.732Zm-5.463,55.806H694.533V29.873h28.032Z" transform="translate(-689.07 -24.41)" fill="#4889ff"/>
    </g>
    <path id="Trazado_36" data-name="Trazado 36" d="M712.891,0H671.354a7.006,7.006,0,0,0-7.184,6.82V86.847a7,7,0,0,0,7.178,6.814h41.543a7.009,7.009,0,0,0,7.184-6.814V6.82A7.014,7.014,0,0,0,712.891,0Zm-5.272,66.831a4.345,4.345,0,0,1-4.378,4.31H677.927a4.345,4.345,0,0,1-4.378-4.31V16.23h0a4.345,4.345,0,0,1,4.378-4.31H703.24a4.35,4.35,0,0,1,4.378,4.316Z" transform="translate(952.136 -333)" fill="#4889ff" opacity="0.2"/>
  </g>
</svg>
