<svg xmlns="http://www.w3.org/2000/svg" width="14.875" height="18" viewBox="0 0 14.875 18">
  <path id="ic_promotions" d="M986.425,374.633a3.406,3.406,0,0,0-3.4,3.4v1.093H980.68a.582.582,0,0,0-.582.532L978.99,392a.585.585,0,0,0,.582.637h13.706a.585.585,0,0,0,.584-.584.637.637,0,0,0-.008-.1v0l-1.1-12.288a.582.582,0,0,0-.582-.532h-2.342v-1.093A3.406,3.406,0,0,0,986.425,374.633Zm-2.233,3.4a2.233,2.233,0,1,1,4.466,0v1.093h-4.466Zm7.443,2.262,1,11.167H980.212l1-11.167h1.809v1.23a.584.584,0,0,0,1.169,0V380.3h4.466v1.23a.584.584,0,1,0,1.169,0V380.3Z" transform="translate(-978.988 -374.633)" fill="#3f506a"/>
</svg>
