<svg xmlns="http://www.w3.org/2000/svg" width="23.247" height="27.792" viewBox="0 0 23.247 27.792">
  <path id="ic_ring" d="M135.59,101.237l-1.952-3.252a9.41,9.41,0,0,1-1.339-4.837V90.3a8.228,8.228,0,0,0-5.682-7.813V80.64a2.532,2.532,0,1,0-5.065,0v1.846A8.228,8.228,0,0,0,115.87,90.3v2.849a9.408,9.408,0,0,1-1.339,4.837l-1.952,3.252a.827.827,0,0,0,.71,1.254H121c-.01.1-.017.205-.017.308a3.1,3.1,0,0,0,6.2,0c0-.1-.007-.206-.017-.308h7.71a.827.827,0,0,0,.71-1.253Zm-20.839-.4,1.2-2a11.053,11.053,0,0,0,1.576-5.688V90.3a6.559,6.559,0,0,1,13.117,0v2.849a11.064,11.064,0,0,0,1.574,5.688l1.2,2Zm10.21-18.7a8.117,8.117,0,0,0-1.753,0V80.64a.877.877,0,1,1,1.753,0Zm.569,20.667a1.445,1.445,0,1,1-2.89,0,1.428,1.428,0,0,1,.037-.308h2.816A1.444,1.444,0,0,1,125.531,102.8Z" transform="translate(-112.461 -78.108)" fill="#4889ff"/>
</svg>
