<svg xmlns="http://www.w3.org/2000/svg" width="17.453" height="20.45" viewBox="0 0 17.453 20.45">
  <g id="ic_exchange_white" transform="translate(-68.009 -650.498)">
    <path id="Trazado_603" data-name="Trazado 603" d="M2289.359,973.79a.4.4,0,0,0-.283-.117h-9.825a.4.4,0,0,0-.4.4v1.142l-3.786,1.015a.4.4,0,0,0-.283.489l1.962,7.323-1.7,1.7a1.2,1.2,0,0,0-.989-.523h-.838a1.2,1.2,0,0,0-1.2,1.2v6.51a1.2,1.2,0,0,0,1.2,1.2h.838a1.2,1.2,0,0,0,1.163-.91l.475.414a2.014,2.014,0,0,0,1.323.5h12.057a.4.4,0,0,0,.4-.4V974.072A.4.4,0,0,0,2289.359,973.79Zm-14.9,19.135h0a.4.4,0,0,1-.4.4h-.837a.4.4,0,0,1-.4-.4v-6.51a.4.4,0,0,1,.4-.4h.838a.4.4,0,0,1,.4.4Zm1.2-16.027,3.194-.856v1.48l-.036,8.133h-.8l-.413-1.616a.391.391,0,0,0-.067-.14Zm8.932,16.427h-7.571a1.212,1.212,0,0,1-.8-.3l-.965-.841V986.66l1.744-1.744.316,1.237a.4.4,0,0,0,.387.3h7.853a.559.559,0,0,1,0,1.118h-4.024a.4.4,0,0,0,0,.8h5.274a.559.559,0,0,1,0,1.118h-5.274a.4.4,0,1,0,0,.8h4.419a.559.559,0,0,1,0,1.118h-4.419a.4.4,0,0,0,0,.8h3.057a.559.559,0,0,1,0,1.118ZM2287.1,979.3v8.3a1.364,1.364,0,0,0-.292-.032h-.013a1.357,1.357,0,0,0-1.237-1.917h-.892v-.005a1.469,1.469,0,1,0,0-2.938v-1.747a1.078,1.078,0,0,1,.531.344.435.435,0,0,0,.524.088.275.275,0,0,0,.108-.426,1.9,1.9,0,0,0-1.163-.644v-.489a.387.387,0,0,0-.757,0v.488a1.469,1.469,0,1,0,0,2.938v1.746a1.082,1.082,0,0,1-.531-.344.434.434,0,0,0-.524-.088.275.275,0,0,0-.108.426,1.9,1.9,0,0,0,1.163.644v.006h-2.678v-7.594a1.88,1.88,0,0,0,1.432-1.432h3a1.881,1.881,0,0,0,1.432,1.432V979.3Zm-2.433,5.707v-1.659a.839.839,0,0,1,0,1.659Zm-.757-4.045v1.659a.839.839,0,0,1,0-1.659Zm4.769,12.358h-2.85a1.357,1.357,0,0,0,0-1.119h.125a1.359,1.359,0,0,0,1.358-1.358,1.346,1.346,0,0,0-.145-.608,1.357,1.357,0,0,0,.731-2.118v-9.083h0V977.7a.4.4,0,0,0-.4-.4,1.077,1.077,0,0,1-1.076-1.075.4.4,0,0,0-.4-.4h-3.718a.4.4,0,0,0-.4.4,1.077,1.077,0,0,1-1.076,1.075.4.4,0,0,0-.4.4v7.951h-.78V974.472h9.026Z" transform="translate(-2204.014 -323.175)" fill="#fff"/>
  </g>
</svg>
