<svg xmlns="http://www.w3.org/2000/svg" width="35" height="37.071" viewBox="0 0 35 37.071">
  <g id="Group_1461" data-name="Group 1461" transform="translate(-13 -11.255)">
    <g id="icono_canjear_billeteras" data-name="icono canjear billeteras" transform="translate(13 11.255)">
      <g id="Group_1459" data-name="Group 1459">
        <path id="Path_595" data-name="Path 595" d="M975.01,1252.622l-3.167-1.588a.793.793,0,1,0-.7,1.421l1.206.6a.8.8,0,0,0-.074.276,2.554,2.554,0,0,0,1.57,2.236v9.677a.794.794,0,1,1-1.588,0v-6.354a4.218,4.218,0,0,0-3.176-3.891v-4.846a3.138,3.138,0,0,0-3.139-3.165h-6.362v-6.558a.624.624,0,0,0-.337-.571l-2.545-1.277a.637.637,0,1,0-.565,1.142l.969.484a.653.653,0,0,0-.059.221,2.053,2.053,0,0,0,1.261,1.8v4.761h-1.276v-2.09a3.39,3.39,0,0,0-2.553-3.127v-3.895a2.522,2.522,0,0,0-2.523-2.544H944.29a2.574,2.574,0,0,0-2.583,2.544v14.287l-.924.462a.638.638,0,0,0-.353.571v1.915a.673.673,0,0,0,.669.648h12.1v12.171l-1.149.575a.794.794,0,0,0-.439.71v2.383a.838.838,0,0,0,.832.806h17.471a.773.773,0,0,0,.756-.806v-2.383a.794.794,0,0,0-.439-.71l-1.149-.575v-11.276a2.571,2.571,0,0,1,1.588,2.236v6.354a2.382,2.382,0,1,0,4.765,0v-11.914A.777.777,0,0,0,975.01,1252.622Zm-20.539-9.519h0a1.969,1.969,0,0,1,.238.119,2.238,2.238,0,0,1,.8.814,1.948,1.948,0,0,1,.126.27,1.7,1.7,0,0,1,.11.594v2.159a3.2,3.2,0,0,0-.675.223,3.293,3.293,0,0,0-.6.358h0Zm-12.764,11.381v-.891l.924-.462a.638.638,0,0,0,.353-.571v-14.681a1.3,1.3,0,0,1,1.307-1.267h7.659a1.244,1.244,0,0,1,1.246,1.267v14.681s0,0,0,.006v1.918Zm27.37,16.333H953.195v-1.109l1.149-.575a.794.794,0,0,0,.439-.711v-18.268a1.583,1.583,0,0,1,.964-1.436,1.641,1.641,0,0,1,.662-.141h9.53a1.548,1.548,0,0,1,1.55,1.577v18.268a.8.8,0,0,0,.439.711l1.149.575Z" transform="translate(-940.43 -1235.335)" fill="#fff"/>
      </g>
      <path id="Path_596" data-name="Path 596" d="M1034.1,1289.368a1.852,1.852,0,0,1,.123.264A1.852,1.852,0,0,0,1034.1,1289.368Z" transform="translate(-1019.015 -1280.661)" fill="#fff"/>
      <path id="Path_597" data-name="Path 597" d="M1031.681,1286.4a2.148,2.148,0,0,0-.452-.554A2.148,2.148,0,0,1,1031.681,1286.4Z" transform="translate(-1016.605 -1277.708)" fill="#fff"/>
      <path id="Path_598" data-name="Path 598" d="M1032.03,1293.735a3.123,3.123,0,0,0-.66.218,3.123,3.123,0,0,1,.66-.218v-2.11a1.659,1.659,0,0,0-.107-.581,1.659,1.659,0,0,1,.107.581Z" transform="translate(-1016.721 -1282.051)" fill="#fff"/>
      <rect id="Rectangle_457" data-name="Rectangle 457" height="4.435" transform="translate(14.041 7.798)" fill="#fff"/>
      <path id="Path_599" data-name="Path 599" d="M8.985,1.608c-2.944,0-5.083,1.83-5.2,4.444,0,.038,0,.194,0,.392L5.037,5a.642.642,0,0,1,.969.842L3.529,8.69a.642.642,0,0,1-.977-.01L.149,5.8a.642.642,0,0,1,.986-.822L2.172,6.221c0-.121,0-.209,0-.236C2.334,2.517,5.2,0,8.985,0a.8.8,0,0,1,0,1.608Z" transform="translate(25.014 19.283) rotate(90)" fill="#fff"/>
      <path id="Path_600" data-name="Path 600" d="M7.727.635a.635.635,0,0,1-.635.635c-2.324,0-4.012,1.444-4.107,3.508,0,.03,0,.153,0,.309l.993-1.143a.507.507,0,1,1,.765.665L2.785,6.859a.512.512,0,0,1-.388.174.507.507,0,0,1-.384-.182L.118,4.578A.507.507,0,0,1,.9,3.929l.819.982c0-.1,0-.165,0-.186A5.061,5.061,0,0,1,7.092,0,.635.635,0,0,1,7.727.635Z" transform="translate(4.217 13.982) rotate(-90)" fill="#fff"/>
      <path id="Path_601" data-name="Path 601" d="M1027.635,1310.732a3.2,3.2,0,0,1,.284-.19,3.2,3.2,0,0,0-.284.19Z" transform="translate(-1013.591 -1298.426)" fill="#fff"/>
      <path id="Path_602" data-name="Path 602" d="M1027.635,1283.574h0a1.924,1.924,0,0,1,.233.116A1.924,1.924,0,0,0,1027.635,1283.574Z" transform="translate(-1013.592 -1275.801)" fill="#fff"/>
    </g>
  </g>
</svg>
