<svg xmlns="http://www.w3.org/2000/svg" width="25.101" height="29.052" viewBox="0 0 25.101 29.052">
  <g id="Group_1456" data-name="Group 1456" transform="translate(-32 -5.999)">
    <path id="Path_663" data-name="Path 663" d="M263.737,11.752a.581.581,0,0,0,.581-.581V10.3a.581.581,0,0,0-.259-.483L258.481,6.1a.581.581,0,0,0-.645,0l-5.578,3.719A.581.581,0,0,0,252,10.3v.872a.581.581,0,0,0,.581.581h.349v5.4h-.349a.581.581,0,0,0,0,1.162h11.156a.581.581,0,0,0,0-1.162h-.349v-5.4Zm-5.578-4.473,4.966,3.311h-9.933Zm-4.067,4.531h.7v5.346h-.7Zm1.859,0h4.416v5.346h-4.416Zm5.578,5.346V11.81h.7v5.346Z" transform="translate(-207.217)" fill="#fff"/>
    <path id="Path_664" data-name="Path 664" d="M317.937,246a.581.581,0,0,0-.581.581,9.609,9.609,0,0,1-5,8.455l.366-1.464a.581.581,0,1,0-1.127-.282L310.918,256a.581.581,0,0,0,.435.707l2.72.62a.581.581,0,0,0,.258-1.133l-1.182-.269a10.8,10.8,0,0,0,5.369-9.34A.581.581,0,0,0,317.937,246Z" transform="translate(-262.695 -226.056)" fill="#fff"/>
    <path id="Path_665" data-name="Path 665" d="M70.581,82.2a.581.581,0,0,0,.581-.581,9.609,9.609,0,0,1,5-8.455L75.8,74.63a.581.581,0,1,0,1.127.282l.676-2.706a.581.581,0,0,0-.435-.707l-2.719-.62a.581.581,0,0,0-.258,1.133l1.182.269A10.8,10.8,0,0,0,70,81.621a.581.581,0,0,0,.581.581Z" transform="translate(-35.792 -61.095)" fill="#fff"/>
    <g id="Group_1455" data-name="Group 1455">
      <path id="Path_661" data-name="Path 661" d="M45.6,298.183h-.349v-3.6a.581.581,0,0,0-.581-.581H34.44A2.443,2.443,0,0,0,32,296.44v7.437a2.443,2.443,0,0,0,2.44,2.44H44.667a.581.581,0,0,0,.581-.581v-3.6H45.6a.581.581,0,0,0,.581-.581v-2.789A.581.581,0,0,0,45.6,298.183Zm-2.789,2.789a.349.349,0,0,1-.349-.349v-.93a.349.349,0,0,1,.349-.349h2.208v1.627Zm1.278,4.183H34.44a1.28,1.28,0,0,1-1.278-1.278V296.44a1.28,1.28,0,0,1,1.278-1.278h9.645v3.021H42.807a1.512,1.512,0,0,0-1.511,1.511v.93a1.512,1.512,0,0,0,1.511,1.511h1.278Z" transform="translate(0 -271.267)" fill="#fff"/>
      <path id="Path_666" data-name="Path 666" d="M70.312,48.44V46.469a1.214,1.214,0,0,1,.6.388.491.491,0,0,0,.591.1.31.31,0,0,0,.122-.481,2.141,2.141,0,0,0-1.312-.726V45.2a.437.437,0,0,0-.855,0v.551a1.657,1.657,0,0,0,0,3.314v1.97a1.214,1.214,0,0,1-.6-.388.488.488,0,0,0-.591-.1.309.309,0,0,0-.122.48,2.141,2.141,0,0,0,1.312.726V52.3a.437.437,0,0,0,.855,0v-.551a1.656,1.656,0,1,0,0-3.311Zm-1.658-1.035a1.035,1.035,0,0,1,.8-.936V48.34a1.032,1.032,0,0,1-.8-.935Zm1.658,3.627V49.161a.947.947,0,0,1,0,1.871Zm0,0" transform="translate(-32.881 -20.003)" fill="#fff"/>
    </g>
  </g>
</svg>
