<svg xmlns="http://www.w3.org/2000/svg" width="95.024" height="100.303" viewBox="0 0 95.024 100.303">
  <g id="Group_1459" data-name="Group 1459" transform="translate(-141.977 -208.011)">
    <g id="Group_1454" data-name="Group 1454">
      <g id="Group_1452" data-name="Group 1452">
        <g id="icono_canjear_billeteras" data-name="icono canjear billeteras" transform="translate(145.977 212.011)">
          <path id="Path_595" data-name="Path 595" d="M1030.262,1280.243l-8.227-4.126a2.059,2.059,0,1,0-1.827,3.691l3.134,1.565a2.09,2.09,0,0,0-.192.716,6.636,6.636,0,0,0,4.077,5.81v25.139a2.063,2.063,0,1,1-4.125,0v-16.507c0-4.981-4.126-9.148-8.252-10.107v-12.589a8.152,8.152,0,0,0-8.153-8.223H990.168v-17.037a1.621,1.621,0,0,0-.877-1.483l-6.612-3.316a1.655,1.655,0,1,0-1.468,2.967l2.518,1.257a1.691,1.691,0,0,0-.154.575,5.334,5.334,0,0,0,3.277,4.67v12.367h-3.315v-5.429a8.805,8.805,0,0,0-6.631-8.123v-10.117a6.553,6.553,0,0,0-6.553-6.608h-19.9a6.687,6.687,0,0,0-6.71,6.608v37.114l-2.4,1.2a1.657,1.657,0,0,0-.916,1.483v4.975a1.749,1.749,0,0,0,1.737,1.683H973.59v31.617l-2.986,1.493a2.064,2.064,0,0,0-1.14,1.846v6.19a2.176,2.176,0,0,0,2.161,2.094h45.385a2.008,2.008,0,0,0,1.964-2.094v-6.19a2.064,2.064,0,0,0-1.14-1.846l-2.986-1.493v-29.293a6.679,6.679,0,0,1,4.125,5.808v16.507a6.189,6.189,0,1,0,12.378,0v-30.949A2.019,2.019,0,0,0,1030.262,1280.243Zm-53.356-24.728h0a5.158,5.158,0,0,1,.618.308,5.818,5.818,0,0,1,2.085,2.115,5.067,5.067,0,0,1,.327.7,4.408,4.408,0,0,1,.285,1.544v5.609a8.3,8.3,0,0,0-1.753.579,8.627,8.627,0,0,0-.808.425,8.541,8.541,0,0,0-.755.506h0Zm-33.159,29.566v-2.316l2.4-1.2a1.658,1.658,0,0,0,.916-1.483v-38.139a3.368,3.368,0,0,1,3.395-3.292h19.9a3.232,3.232,0,0,1,3.237,3.292v38.139c0,.005,0,.01,0,.016v4.983Zm71.1,42.429H973.59v-2.881l2.985-1.493a2.065,2.065,0,0,0,1.14-1.846v-47.455a4.111,4.111,0,0,1,2.505-3.729,4.259,4.259,0,0,1,1.719-.367H1006.7a4.021,4.021,0,0,1,4.027,4.1v47.455a2.065,2.065,0,0,0,1.14,1.846l2.986,1.493Z" transform="translate(-940.43 -1235.335)" fill="#4889ff"/>
          <path id="Path_596" data-name="Path 596" d="M1034.1,1289.368a4.79,4.79,0,0,1,.32.685A4.79,4.79,0,0,0,1034.1,1289.368Z" transform="translate(-994.916 -1266.749)" fill="#4889ff"/>
          <path id="Path_597" data-name="Path 597" d="M1032.4,1287.288a5.579,5.579,0,0,0-1.173-1.438A5.579,5.579,0,0,1,1032.4,1287.288Z" transform="translate(-993.239 -1264.698)" fill="#4889ff"/>
          <path id="Path_598" data-name="Path 598" d="M1033.084,1298.035a8.118,8.118,0,0,0-1.714.566,8.118,8.118,0,0,1,1.714-.566v-5.482a4.313,4.313,0,0,0-.278-1.509,4.313,4.313,0,0,1,.278,1.509Z" transform="translate(-993.316 -1267.681)" fill="#4889ff"/>
          <rect id="Rectangle_457" data-name="Rectangle 457" height="11.522" transform="translate(36.475 20.256)" fill="#4889ff"/>
          <path id="Path_599" data-name="Path 599" d="M23.34,4.179c-7.647,0-13.2,4.754-13.516,11.543,0,.1,0,.5-.007,1.019l3.268-3.761A1.668,1.668,0,0,1,15.6,15.167L9.167,22.574a1.667,1.667,0,0,1-2.539-.026L.387,15.066A1.667,1.667,0,0,1,2.948,12.93l2.694,3.231c0-.315,0-.544.008-.613C6.062,6.539,13.5,0,23.34,0a2.089,2.089,0,0,1,0,4.179Z" transform="translate(64.981 50.094) rotate(90)" fill="#4889ff"/>
          <path id="Path_600" data-name="Path 600" d="M20.073,1.649A1.649,1.649,0,0,1,18.424,3.3C12.388,3.3,8,7.051,7.755,12.411c0,.078,0,.4-.006.8l2.58-2.969a1.316,1.316,0,1,1,1.987,1.727l-5.08,5.847a1.331,1.331,0,0,1-1.007.453,1.316,1.316,0,0,1-1-.473L.305,11.893a1.316,1.316,0,0,1,2.022-1.687l2.127,2.551c0-.249,0-.429.006-.484C4.786,5.162,10.658,0,18.424,0A1.649,1.649,0,0,1,20.073,1.649Z" transform="translate(10.955 36.323) rotate(-90)" fill="#4889ff"/>
          <path id="Path_601" data-name="Path 601" d="M1027.635,1311.037a8.275,8.275,0,0,1,.738-.495,8.275,8.275,0,0,0-.738.495Z" transform="translate(-991.153 -1279.066)" fill="#4889ff"/>
          <path id="Path_602" data-name="Path 602" d="M1027.635,1283.574h0a5.065,5.065,0,0,1,.6.3A5.065,5.065,0,0,0,1027.635,1283.574Z" transform="translate(-991.154 -1263.38)" fill="#4889ff"/>
        </g>
        <g id="icono_canjear_billeteras-2" data-name="icono canjear billeteras" transform="translate(141.977 208.011)" opacity="0.2">
          <path id="Path_595-2" data-name="Path 595" d="M1030.262,1280.243l-8.227-4.126a2.059,2.059,0,1,0-1.827,3.691l3.134,1.565a2.09,2.09,0,0,0-.192.716,6.636,6.636,0,0,0,4.077,5.81v25.139a2.063,2.063,0,1,1-4.125,0v-16.507c0-4.981-4.126-9.148-8.252-10.107v-12.589a8.152,8.152,0,0,0-8.153-8.223H990.168v-17.037a1.621,1.621,0,0,0-.877-1.483l-6.612-3.316a1.655,1.655,0,1,0-1.468,2.967l2.518,1.257a1.691,1.691,0,0,0-.154.575,5.334,5.334,0,0,0,3.277,4.67v12.367h-3.315v-5.429a8.805,8.805,0,0,0-6.631-8.123v-10.117a6.553,6.553,0,0,0-6.553-6.608h-19.9a6.687,6.687,0,0,0-6.71,6.608v37.114l-2.4,1.2a1.657,1.657,0,0,0-.916,1.483v4.975a1.749,1.749,0,0,0,1.737,1.683H973.59v31.617l-2.986,1.493a2.064,2.064,0,0,0-1.14,1.846v6.19a2.176,2.176,0,0,0,2.161,2.094h45.385a2.008,2.008,0,0,0,1.964-2.094v-6.19a2.064,2.064,0,0,0-1.14-1.846l-2.986-1.493v-29.293a6.679,6.679,0,0,1,4.125,5.808v16.507a6.189,6.189,0,1,0,12.378,0v-30.949A2.019,2.019,0,0,0,1030.262,1280.243Zm-53.356-24.728h0a5.158,5.158,0,0,1,.618.308,5.818,5.818,0,0,1,2.085,2.115,5.067,5.067,0,0,1,.327.7,4.408,4.408,0,0,1,.285,1.544v5.609a16.413,16.413,0,0,0-2.561,1C977.4,1266.952,977.147,1267.121,976.905,1255.515Zm-3.317,24.567Z" transform="translate(-940.43 -1235.335)" fill="#4889ff"/>
          <path id="Path_596-2" data-name="Path 596" d="M1034.1,1289.368a4.79,4.79,0,0,1,.32.685A4.79,4.79,0,0,0,1034.1,1289.368Z" transform="translate(-994.916 -1266.749)" fill="#4889ff"/>
          <path id="Path_597-2" data-name="Path 597" d="M1032.4,1287.288a5.579,5.579,0,0,0-1.173-1.438A5.579,5.579,0,0,1,1032.4,1287.288Z" transform="translate(-993.239 -1264.698)" fill="#4889ff"/>
          <path id="Path_598-2" data-name="Path 598" d="M1033.084,1298.035a8.118,8.118,0,0,0-1.714.566,8.118,8.118,0,0,1,1.714-.566v-5.482a4.313,4.313,0,0,0-.278-1.509,4.313,4.313,0,0,1,.278,1.509Z" transform="translate(-993.316 -1267.681)" fill="#4889ff"/>
          <rect id="Rectangle_457-2" data-name="Rectangle 457" height="11.522" transform="translate(36.475 20.256)" fill="#4889ff"/>
          <path id="Path_601-2" data-name="Path 601" d="M1027.635,1311.037a8.275,8.275,0,0,1,.738-.495,8.275,8.275,0,0,0-.738.495Z" transform="translate(-991.153 -1279.066)" fill="#4889ff"/>
          <path id="Path_602-2" data-name="Path 602" d="M1027.635,1283.574h0a5.065,5.065,0,0,1,.6.3A5.065,5.065,0,0,0,1027.635,1283.574Z" transform="translate(-991.154 -1263.38)" fill="#4889ff"/>
        </g>
      </g>
      <g id="Group_1453" data-name="Group 1453" transform="translate(-18.637 -56.637)">
        <g id="Path_660" data-name="Path 660" transform="translate(212.638 275.637)" fill="#fff">
          <path d="M 21.5 41 C 18.86664009094238 41 16.31310081481934 40.48469924926758 13.91032981872559 39.46841049194336 C 11.58852958679199 38.48637008666992 9.502909660339355 37.08007049560547 7.711420059204102 35.28858184814453 C 5.919929981231689 33.49708938598633 4.513629913330078 31.41147041320801 3.531589984893799 29.08967018127441 C 2.515300035476685 26.68689918518066 2 24.13335990905762 2 21.5 C 2 18.86664009094238 2.515300035476685 16.31310081481934 3.531589984893799 13.91032981872559 C 4.513629913330078 11.58852958679199 5.919929981231689 9.502909660339355 7.711420059204102 7.711420059204102 C 9.502909660339355 5.919929981231689 11.58852958679199 4.513629913330078 13.91032981872559 3.531589984893799 C 16.31310081481934 2.515300035476685 18.86664009094238 2 21.5 2 C 24.13335990905762 2 26.68689918518066 2.515300035476685 29.08967018127441 3.531589984893799 C 31.41147041320801 4.513629913330078 33.49708938598633 5.919929981231689 35.28858184814453 7.711420059204102 C 37.08007049560547 9.502909660339355 38.48637008666992 11.58852958679199 39.46841049194336 13.91032981872559 C 40.48469924926758 16.31310081481934 41 18.86664009094238 41 21.5 C 41 24.13335990905762 40.48469924926758 26.68689918518066 39.46841049194336 29.08967018127441 C 38.48637008666992 31.41147041320801 37.08007049560547 33.49708938598633 35.28858184814453 35.28858184814453 C 33.49708938598633 37.08007049560547 31.41147041320801 38.48637008666992 29.08967018127441 39.46841049194336 C 26.68689918518066 40.48469924926758 24.13335990905762 41 21.5 41 Z" stroke="none"/>
          <path d="M 21.5 4 C 16.82558059692383 4 12.43095016479492 5.820320129394531 9.125629425048828 9.125629425048828 C 5.820320129394531 12.43095016479492 4 16.82558059692383 4 21.5 C 4 26.17441940307617 5.820320129394531 30.56904983520508 9.125629425048828 33.87437057495117 C 12.43095016479492 37.17967987060547 16.82558059692383 39 21.5 39 C 26.17441940307617 39 30.56904983520508 37.17967987060547 33.87437057495117 33.87437057495117 C 37.17967987060547 30.56904983520508 39 26.17441940307617 39 21.5 C 39 16.82558059692383 37.17967987060547 12.43095016479492 33.87437057495117 9.125629425048828 C 30.56904983520508 5.820320129394531 26.17441940307617 4 21.5 4 M 21.5 0 C 33.37411880493164 0 43 9.625881195068359 43 21.5 C 43 33.37411880493164 33.37411880493164 43 21.5 43 C 9.625881195068359 43 0 33.37411880493164 0 21.5 C 0 9.625881195068359 9.625881195068359 0 21.5 0 Z" stroke="none" fill="#4889ff"/>
        </g>
        <path id="Trazado_" data-name="Trazado " d="M53.735,42.476l-12.406,12.4-5.67-5.673a1.712,1.712,0,0,0-2.422,2.422l6.881,6.881a1.715,1.715,0,0,0,2.422,0L56.154,44.9a1.71,1.71,0,1,0-2.419-2.419Zm0,0" transform="translate(189.11 247.157)" fill="#4889ff"/>
      </g>
    </g>
  </g>
</svg>
