<svg xmlns="http://www.w3.org/2000/svg" width="91.792" height="100" viewBox="0 0 91.792 100">
  <g id="ic_user_scan" transform="translate(-272 -128.13)">
    <g id="DNI_Foto" data-name="DNI/Foto" transform="translate(272 128.13)">
      <path id="Trazado_100" data-name="Trazado 100" d="M1147.64,836.57" transform="translate(-1055.848 -775.863)" fill="#4889ff"/>
      <path id="Trazado_101" data-name="Trazado 101" d="M949.467,730.3a2.658,2.658,0,0,0,2.657-2.657V716.814a2.374,2.374,0,0,1,2.37-2.37h8.794a2.657,2.657,0,0,0,0-5.315h-8.794a7.692,7.692,0,0,0-7.684,7.684V727.64a2.658,2.658,0,0,0,2.657,2.657Zm0,0" transform="translate(-946.81 -709.13)" fill="#4889ff"/>
      <path id="Trazado_102" data-name="Trazado 102" d="M963.288,847.273h-8.794a2.374,2.374,0,0,1-2.37-2.37V834.077a2.657,2.657,0,0,0-5.315,0V844.9a7.692,7.692,0,0,0,7.684,7.684h8.794a2.657,2.657,0,0,0,0-5.314Zm0,0" transform="translate(-946.81 -789.886)" fill="#4889ff"/>
      <path id="Trazado_103" data-name="Trazado 103" d="M1155.121,709.13h-8.794a2.657,2.657,0,1,0,0,5.315h8.794a2.373,2.373,0,0,1,2.37,2.37V727.64a2.657,2.657,0,1,0,5.315,0V716.814a7.7,7.7,0,0,0-7.684-7.684Zm0,0" transform="translate(-1082.295 -709.13)" fill="#4889ff"/>
      <path id="Trazado_104" data-name="Trazado 104" d="M1160.148,831.42a2.658,2.658,0,0,0-2.657,2.657V844.9a2.374,2.374,0,0,1-2.37,2.37h-8.794a2.657,2.657,0,1,0,0,5.315h8.794a7.692,7.692,0,0,0,7.684-7.684V834.077a2.658,2.658,0,0,0-2.657-2.657Zm0,0" transform="translate(-1082.295 -789.886)" fill="#4889ff"/>
    </g>
    <g id="usuario" transform="translate(284.23 133.292)">
      <g id="Grupo_1" data-name="Grupo 1" transform="translate(2.802 56.904)">
        <path id="Trazado_7" data-name="Trazado 7" d="M426.226,147.444h-.164a58.641,58.641,0,0,1-23.4-4.846l-2.489-1.077.414-2.677c2.817-18.37,9.388-29.334,17.574-29.334h16.911c8.108,0,14.655,10.816,17.511,28.936l.414,2.645-2.435,1.1A58.709,58.709,0,0,1,426.226,147.444Zm-.086-7.023h.078a51.624,51.624,0,0,0,18.955-3.574c-2.638-13.984-7.39-20.305-10.106-20.305H418.157c-2.755,0-7.554,6.43-10.168,20.641a51.684,51.684,0,0,0,18.089,3.246A.152.152,0,0,1,426.141,140.42Z" transform="translate(-400.17 -109.51)" fill="#4889ff"/>
      </g>
      <g id="Grupo_2" data-name="Grupo 2" transform="translate(4.175 4.425)">
        <path id="Trazado_8" data-name="Trazado 8" d="M426.972,92.352A25.045,25.045,0,0,1,401.93,67.31h1.21l-1.21-.008a25.046,25.046,0,1,1,25.042,25.05ZM408.945,67.3a18.011,18.011,0,1,0,5.275-12.743A17.889,17.889,0,0,0,408.945,67.3Z" transform="translate(-401.93 -42.26)" fill="#4889ff"/>
      </g>
      <g id="Grupo_7" data-name="Grupo 7">
        <path id="Trazado_13" data-name="Trazado 13" d="M396.58,129.433c2.349-15.287,7.679-25.963,13.891-25.963h16.661c6.157,0,11.456,10.5,13.836,25.588a54.963,54.963,0,0,1-44.387.375Z" transform="translate(-396.58 -51.279)" fill="#4889ff" opacity="0.2"/>
        <path id="Trazado_14" data-name="Trazado 14" d="M397.84,57.808A21.218,21.218,0,0,1,419.05,36.59h0a21.211,21.211,0,0,1,21.21,21.21h0a21.218,21.218,0,0,1-21.21,21.218h0a21.2,21.2,0,0,1-21.21-21.21Z" transform="translate(-396.857 -36.59)" fill="#4889ff" opacity="0.2"/>
      </g>
    </g>
  </g>
</svg>
