<svg xmlns="http://www.w3.org/2000/svg" width="94" height="120" viewBox="0 0 94 120">
  <g id="ic_update_app" transform="translate(-155 -231)">
    <g id="Grupo_1415" data-name="Grupo 1415">
      <g id="Grupo_1412" data-name="Grupo 1412" transform="translate(-84 -23)">
        <g id="cel_codigo" transform="translate(-1377.307 607)">
          <g id="Grupo_10" data-name="Grupo 10" transform="translate(1646.466 -250.808)">
            <path id="Trazado_17" data-name="Trazado 17" d="M717.754,142.638a4.674,4.674,0,0,1-4.674-4.674h0a4.674,4.674,0,1,1,4.674,4.674Z" transform="translate(-713.08 -133.29)" fill="#4889ff"/>
          </g>
          <g id="Grupo_11" data-name="Grupo 11" transform="translate(1620.61 -330.281)">
            <path id="Trazado_18" data-name="Trazado 18" d="M721.751,101.691H681.608A10.471,10.471,0,0,1,671.15,91.232V14.868A10.471,10.471,0,0,1,681.608,4.41h40.143a10.471,10.471,0,0,1,10.458,10.458V91.232A10.475,10.475,0,0,1,721.751,101.691ZM681.608,9.96a4.913,4.913,0,0,0-4.908,4.908V91.232a4.913,4.913,0,0,0,4.908,4.908h40.143a4.913,4.913,0,0,0,4.908-4.908V14.868a4.913,4.913,0,0,0-4.908-4.908Z" transform="translate(-671.15 -4.41)" fill="#4889ff"/>
          </g>
          <g id="Grupo_12" data-name="Grupo 12" transform="translate(1631.661 -317.948)">
            <path id="Trazado_19" data-name="Trazado 19" d="M728.029,27.142A2.737,2.737,0,0,0,725.3,24.41H691.8a2.737,2.737,0,0,0-2.732,2.732V85.679a2.737,2.737,0,0,0,2.732,2.732h33.5a2.737,2.737,0,0,0,2.732-2.732Zm-5.463,55.806H694.533V29.873h28.032Z" transform="translate(-689.07 -24.41)" fill="#4889ff"/>
          </g>
          <path id="Trazado_36" data-name="Trazado 36" d="M712.891,0H671.354a7.006,7.006,0,0,0-7.184,6.82V86.847a7,7,0,0,0,7.178,6.814h41.543a7.009,7.009,0,0,0,7.184-6.814V6.82A7.014,7.014,0,0,0,712.891,0Zm-5.272,66.831a4.345,4.345,0,0,1-4.378,4.31H677.927a4.345,4.345,0,0,1-4.378-4.31V16.23h0a4.345,4.345,0,0,1,4.378-4.31H703.24a4.35,4.35,0,0,1,4.378,4.316Z" transform="translate(952.136 -333)" fill="#4889ff" opacity="0.2"/>
        </g>
      </g>
      <g id="Grupo_1413" data-name="Grupo 1413" transform="translate(-46.46 -86.46)">
        <g id="Elipse_12" data-name="Elipse 12" transform="translate(237.46 317.46)" fill="#fff" stroke="#4889ff" stroke-width="6">
          <circle cx="29" cy="29" r="29" stroke="none"/>
          <circle cx="29" cy="29" r="26" fill="none"/>
        </g>
        <path id="Back" d="M12.29,30.619.554,20.04A1.709,1.709,0,0,1,.4,17.689l1.055-1.26a1.571,1.571,0,0,1,2.27-.165l7.238,6.523V2.413a2.413,2.413,0,0,1,4.827,0V22.781l7.232-6.517a1.571,1.571,0,0,1,2.27.165l1.056,1.26a1.71,1.71,0,0,1-.158,2.352L14.445,30.619a1.568,1.568,0,0,1-1.055.409h-.045A1.57,1.57,0,0,1,12.29,30.619Z" transform="translate(280.198 361.891) rotate(180)" fill="#4889ff"/>
      </g>
    </g>
  </g>
</svg>
