<svg xmlns="http://www.w3.org/2000/svg" xmlns:xlink="http://www.w3.org/1999/xlink" width="156" height="110" viewBox="0 0 156 110">
  <defs>
    <clipPath id="clip-path">
      <path id="ic_user_background" d="M0,0H156V110H0Z" transform="translate(144)" fill="#fff" stroke="rgba(0,0,0,0)" stroke-miterlimit="10" stroke-width="1" opacity="0.33"/>
    </clipPath>
  </defs>
  <g id="ic_user_back" transform="translate(-144)" clip-path="url(#clip-path)">
    <path id="Unión_3" data-name="Unión 3" d="M-8522,2801.859A75.943,75.943,0,0,1-8446.144,2726a75.942,75.942,0,0,1,75.857,75.859,75.94,75.94,0,0,1-75.857,75.854A75.941,75.941,0,0,1-8522,2801.859Zm52.029,62.073a66.18,66.18,0,0,0,23.173,4.16h.19a66.11,66.11,0,0,0,24.292-4.585c-3.375-17.918-9.473-26.024-12.952-26.024h-21.672C-8460.469,2837.481-8466.617,2845.72-8469.971,2863.931ZM-8513,2801.859a66.911,66.911,0,0,0,34.546,58.517c4.03-20.092,11.9-31.894,21.515-31.894h21.672c9.585,0,17.469,11.8,21.506,31.854a66.9,66.9,0,0,0,34.476-58.478A66.934,66.934,0,0,0-8446.144,2735,66.934,66.934,0,0,0-8513,2801.859Zm44.165,14.16a31.894,31.894,0,0,1-9.4-22.692l1.551,0-1.551-.006a31.885,31.885,0,0,1,9.4-22.686,31.88,31.88,0,0,1,22.692-9.4,32.131,32.131,0,0,1,32.1,32.094,32.129,32.129,0,0,1-32.089,32.094A31.879,31.879,0,0,1-8468.835,2816.019Zm6.362-39.025a22.949,22.949,0,0,0-6.765,16.325,22.949,22.949,0,0,0,6.767,16.336,22.94,22.94,0,0,0,16.327,6.763,22.942,22.942,0,0,0,16.332-6.765,22.942,22.942,0,0,0,6.763-16.329,23.12,23.12,0,0,0-23.093-23.094A22.943,22.943,0,0,0-8462.473,2776.994Z" transform="translate(8673 -2747)" fill="#fff" stroke="rgba(0,0,0,0)" stroke-miterlimit="10" stroke-width="1" opacity="0.15"/>
  </g>
</svg>
