<svg xmlns="http://www.w3.org/2000/svg" width="100" height="100" viewBox="0 0 100 100">
  <g id="ic_user" transform="translate(-1375.19 327.469)">
    <g id="Trazado_508_2_" transform="translate(1375.19 -327.469)">
      <path id="Trazado_6" data-name="Trazado 6" d="M408.15,107.02a50,50,0,1,1,50-50A50.056,50.056,0,0,1,408.15,107.02Zm0-94.061a44.068,44.068,0,1,0,44.068,44.068A44.115,44.115,0,0,0,408.15,12.959Z" transform="translate(-358.15 -7.02)" fill="#4889ff"/>
    </g>
    <g id="Grupo_1" data-name="Grupo 1" transform="translate(1402.886 -259.917)">
      <path id="Trazado_7" data-name="Trazado 7" d="M422.178,141.549h-.138a49.529,49.529,0,0,1-19.767-4.093l-2.1-.91.349-2.261c2.379-15.515,7.929-24.776,14.843-24.776h14.283c6.848,0,12.378,9.135,14.79,24.44l.349,2.234-2.056.929A49.586,49.586,0,0,1,422.178,141.549Zm-.072-5.932h.066a43.6,43.6,0,0,0,16.01-3.019c-2.228-11.811-6.242-17.15-8.535-17.15H415.362c-2.327,0-6.38,5.431-8.588,17.433a43.653,43.653,0,0,0,15.278,2.742A.129.129,0,0,1,422.105,135.617Z" transform="translate(-400.17 -109.51)" fill="#4889ff"/>
    </g>
    <g id="Grupo_2" data-name="Grupo 2" transform="translate(1404.046 -304.242)">
      <path id="Trazado_8" data-name="Trazado 8" d="M423.081,84.568A21.153,21.153,0,0,1,401.93,63.417h1.022l-1.022-.007a21.154,21.154,0,1,1,21.151,21.157ZM407.855,63.411a15.212,15.212,0,1,0,4.456-10.763A15.109,15.109,0,0,0,407.855,63.411Z" transform="translate(-401.93 -42.26)" fill="#4889ff"/>
    </g>
    <g id="Grupo_7" data-name="Grupo 7" transform="translate(1400.52 -307.979)">
      <path id="Trazado_13" data-name="Trazado 13" d="M396.58,125.4c1.984-12.912,6.486-21.929,11.732-21.929h14.072c5.2,0,9.676,8.865,11.686,21.612a46.423,46.423,0,0,1-37.49.316Z" transform="translate(-396.58 -59.389)" fill="#4889ff" opacity="0.2"/>
      <path id="Trazado_14" data-name="Trazado 14" d="M397.84,54.511A17.921,17.921,0,0,1,415.755,36.59h0A17.916,17.916,0,0,1,433.669,54.5h0a17.921,17.921,0,0,1-17.915,17.921h0A17.907,17.907,0,0,1,397.84,54.511Z" transform="translate(-397.01 -36.59)" fill="#4889ff" opacity="0.2"/>
    </g>
  </g>
</svg>
