<svg xmlns="http://www.w3.org/2000/svg" width="137.219" height="100" viewBox="0 0 137.219 100">
  <g id="ic_user_login" transform="translate(-1375.19 327.469)">
    <g id="Trazado_508_2_" transform="translate(1375.19 -327.469)">
      <path id="Trazado_6" data-name="Trazado 6" d="M408.15,107.02a50,50,0,1,1,50-50A50.056,50.056,0,0,1,408.15,107.02Zm0-94.061a44.068,44.068,0,1,0,44.068,44.068A44.115,44.115,0,0,0,408.15,12.959Z" transform="translate(-358.15 -7.02)" fill="#4889ff"/>
    </g>
    <g id="Grupo_1" data-name="Grupo 1" transform="translate(1402.886 -259.917)">
      <path id="Trazado_7" data-name="Trazado 7" d="M422.178,141.549h-.138a49.529,49.529,0,0,1-19.767-4.093l-2.1-.91.349-2.261c2.379-15.515,7.929-24.776,14.843-24.776h14.283c6.848,0,12.378,9.135,14.79,24.44l.349,2.234-2.056.929A49.586,49.586,0,0,1,422.178,141.549Zm-.072-5.932h.066a43.6,43.6,0,0,0,16.01-3.019c-2.228-11.811-6.242-17.15-8.535-17.15H415.362c-2.327,0-6.38,5.431-8.588,17.433a43.653,43.653,0,0,0,15.278,2.742A.129.129,0,0,1,422.105,135.617Z" transform="translate(-400.17 -109.51)" fill="#4889ff"/>
    </g>
    <g id="Grupo_2" data-name="Grupo 2" transform="translate(1404.046 -304.242)">
      <path id="Trazado_8" data-name="Trazado 8" d="M423.081,84.568A21.153,21.153,0,0,1,401.93,63.417h1.022l-1.022-.007a21.154,21.154,0,1,1,21.151,21.157ZM407.855,63.411a15.212,15.212,0,1,0,4.456-10.763A15.109,15.109,0,0,0,407.855,63.411Z" transform="translate(-401.93 -42.26)" fill="#4889ff"/>
    </g>
    <g id="Grupo_7" data-name="Grupo 7" transform="translate(1400.52 -307.979)">
      <path id="Trazado_13" data-name="Trazado 13" d="M396.58,125.4c1.984-12.912,6.486-21.929,11.732-21.929h14.072c5.2,0,9.676,8.865,11.686,21.612a46.423,46.423,0,0,1-37.49.316Z" transform="translate(-396.58 -59.389)" fill="#4889ff" opacity="0.2"/>
      <path id="Trazado_14" data-name="Trazado 14" d="M397.84,54.511A17.921,17.921,0,0,1,415.755,36.59h0A17.916,17.916,0,0,1,433.669,54.5h0a17.921,17.921,0,0,1-17.915,17.921h0A17.907,17.907,0,0,1,397.84,54.511Z" transform="translate(-397.01 -36.59)" fill="#4889ff" opacity="0.2"/>
    </g>
    <g id="Grupo_1297" data-name="Grupo 1297" transform="translate(1185.19 -328.469)">
      <g id="international-reception-worker_2_" transform="translate(263.395 36.23)">
        <g id="Grupo_1268_2_" transform="translate(0 0)">
          <g id="Trazado_518_2_">
            <path id="Trazado_20" data-name="Trazado 20" d="M110.974-938.834A12.4,12.4,0,0,0,98.58-926.439v3.163l-10.36,6.117,10.347,5.106v4.575a12.4,12.4,0,0,0,12.394,12.394h24.369a12.4,12.4,0,0,0,12.394-12.394h0v-18.968a12.4,12.4,0,0,0-12.394-12.394h0l-24.357.006Z" transform="translate(-86.06 941.011)" fill="#fff"/>
            <path id="Trazado_21" data-name="Trazado 21" d="M133.988-894.275H109.619a14.587,14.587,0,0,1-14.553-14.553v-3.237l-9.145-4.514a2.163,2.163,0,0,1-1.2-1.856,2.158,2.158,0,0,1,1.061-1.942l9.3-5.494v-1.93a14.587,14.587,0,0,1,14.374-14.553,1.733,1.733,0,0,1,.179-.006h24.357a14.572,14.572,0,0,1,14.553,14.553v18.968A14.57,14.57,0,0,1,133.988-894.275Zm-42.579-24.4,6.771,3.342a2.166,2.166,0,0,1,1.2,1.936v4.575a10.266,10.266,0,0,0,10.236,10.236h24.363a10.25,10.25,0,0,0,10.236-10.236v-18.968a10.25,10.25,0,0,0-10.236-10.236h-24.2a1.381,1.381,0,0,1-.16.006,10.262,10.262,0,0,0-10.236,10.236v3.163a2.148,2.148,0,0,1-1.061,1.856Zm18.222-21.508Z" transform="translate(-84.717 942.36)" fill="#4889ff"/>
          </g>
        </g>
      </g>
      <g id="Grupo_13" data-name="Grupo 13" transform="translate(282.608 54.782)">
        <path id="Trazado_22" data-name="Trazado 22" d="M774.149,69.225a.474.474,0,0,0-.475-.432h0a.888.888,0,0,0-.277.055l-3.071,1.307.222-3.515-.006-.043a.531.531,0,0,0-.2-.345.485.485,0,0,0-.339-.1H768.63a.589.589,0,0,0-.419.142.56.56,0,0,0-.179.413l.247,3.484-3.022-1.209a.526.526,0,0,0-.45-.043.542.542,0,0,0-.3.333l-.382,1.1a.554.554,0,0,0,.327.752l3.231.913-2.362,2.948a.879.879,0,0,0-.148.4.53.53,0,0,0,.253.419l1.067.728a.641.641,0,0,0,.339.092c.019,0,.043.006.062.006a.432.432,0,0,0,.4-.259l2.01-3.2,1.949,3.12a.515.515,0,0,0,.45.222.705.705,0,0,0,.425-.142l.968-.672a.707.707,0,0,0,.284-.475.636.636,0,0,0-.13-.432l-2.281-2.781,3.145-1.048a.491.491,0,0,0,.388-.45.671.671,0,0,0-.043-.284Z" transform="translate(-764.079 -66.14)" fill="#4889ff"/>
        <path id="Trazado_23" data-name="Trazado 23" d="M794.489,69.222a.474.474,0,0,0-.475-.432h0a.7.7,0,0,0-.278.055l-3.071,1.3.222-3.515-.006-.043a.531.531,0,0,0-.2-.345.518.518,0,0,0-.339-.1h-1.375a.588.588,0,0,0-.407.142.55.55,0,0,0-.179.413l.241,3.484L785.6,68.969a.527.527,0,0,0-.45-.043.542.542,0,0,0-.3.333l-.382,1.1a.554.554,0,0,0,.327.752l3.231.913-2.362,2.954a.781.781,0,0,0-.148.407.54.54,0,0,0,.253.419l1.067.728a.64.64,0,0,0,.339.092c.018,0,.043.006.062.006a.432.432,0,0,0,.4-.259l2.01-3.2,1.955,3.12a.489.489,0,0,0,.45.222.705.705,0,0,0,.425-.142l.962-.666a.707.707,0,0,0,.284-.475.612.612,0,0,0-.13-.425l-2.282-2.781,3.145-1.048a.491.491,0,0,0,.388-.45.7.7,0,0,0-.043-.29Z" transform="translate(-771.876 -66.136)" fill="#4889ff"/>
        <path id="Trazado_24" data-name="Trazado 24" d="M815.157,70.218l-.314-.993a.474.474,0,0,0-.475-.432h0a.676.676,0,0,0-.277.056l-3.071,1.307.222-3.521-.006-.043a.5.5,0,0,0-.2-.339.485.485,0,0,0-.339-.1h-1.369a.6.6,0,0,0-.419.142.534.534,0,0,0-.173.413l.247,3.484-3.022-1.209a.55.55,0,0,0-.45-.043.542.542,0,0,0-.3.333l-.382,1.1a.554.554,0,0,0,.327.752l3.231.919L806.007,75a.827.827,0,0,0-.123.388.54.54,0,0,0,.253.419l1.067.728a.565.565,0,0,0,.339.092c.019,0,.043.006.062.006a.432.432,0,0,0,.4-.259l2-3.2,1.949,3.114a.489.489,0,0,0,.45.222.706.706,0,0,0,.426-.142l.974-.672a.707.707,0,0,0,.284-.475.636.636,0,0,0-.13-.432l-2.282-2.781,3.145-1.048a.491.491,0,0,0,.388-.456A.929.929,0,0,0,815.157,70.218Z" transform="translate(-779.681 -66.14)" fill="#4889ff"/>
      </g>
    </g>
  </g>
</svg>
