<svg xmlns="http://www.w3.org/2000/svg" width="47.797" height="56.089" viewBox="0 0 47.797 56.089">
  <g id="ic_wallet" transform="translate(0)">
    <g id="Grupo_121" data-name="Grupo 121" transform="translate(5.563)">
      <path id="Trazado_21" data-name="Trazado 21" d="M892.724,104.314V99.071a3.218,3.218,0,0,1,1.418.981,1.559,1.559,0,0,0,1.88.322,1.158,1.158,0,0,0,.612-.774,1,1,0,0,0-.217-.834,6.177,6.177,0,0,0-3.693-2.1V95.236a1.4,1.4,0,0,0-2.748,0v1.429c-2.737.516-4.71,2.535-4.71,4.843s1.972,4.325,4.71,4.843v4.07h2.748v-3.7a2.733,2.733,0,0,1,1.962,2.437,2.2,2.2,0,0,1-.26,1.031l-.123.234h2.928l.033-.116a4.126,4.126,0,0,0,.17-1.15C897.434,106.849,895.461,104.83,892.724,104.314Zm-4.71-2.805a2.733,2.733,0,0,1,1.962-2.437v4.874A2.732,2.732,0,0,1,888.015,101.509Z" transform="translate(-874.454 -88.436)" fill="#fff"/>
      <path id="Trazado_22" data-name="Trazado 22" d="M868.388,76.43a16.9,16.9,0,0,0-16.134,21.921l.07.225h3l-.157-.43a14.074,14.074,0,1,1,26.448,0l-.157.43h3l.07-.225A16.9,16.9,0,0,0,868.388,76.43Z" transform="translate(-851.492 -76.43)" fill="#fff"/>
    </g>
    <path id="Trazado_23" data-name="Trazado 23" d="M878.953,140.815h-.8V134.4a5.316,5.316,0,0,0-5.31-5.31H838.514a1.458,1.458,0,0,1-.206-.021c-.041-.007-.082-.014-.123-.024h0a1.452,1.452,0,0,1,.346-2.862h1.953a15.445,15.445,0,0,1-.32-2.961h-1.634a4.426,4.426,0,0,0-4.411,4.353v3.065h0v30.008a3.689,3.689,0,0,0,3.686,3.685h35.045a5.316,5.316,0,0,0,5.31-5.31v-6.43h.8a2.954,2.954,0,0,0,2.95-2.95v-5.872A2.971,2.971,0,0,0,878.953,140.815Zm-3.762,18.191a2.351,2.351,0,0,1-2.349,2.349H837.8a.725.725,0,0,1-.724-.724V131.8a4.372,4.372,0,0,0,1.459.248h34.31a2.351,2.351,0,0,1,2.349,2.349v6.42h-7.6a2.954,2.954,0,0,0-2.951,2.95v5.87a2.954,2.954,0,0,0,2.951,2.95h7.6Zm3.752-9.382-11.331.011-.011-5.859,11.343-.011Z" transform="translate(-834.116 -108.237)" fill="#fff"/>
  </g>
</svg>
