<svg xmlns="http://www.w3.org/2000/svg" xmlns:xlink="http://www.w3.org/1999/xlink" width="375" height="812" viewBox="0 0 375 812">
  <defs>
    <clipPath id="clip-Splash">
      <rect width="375" height="812"/>
    </clipPath>
  </defs>
  <g id="Splash" clip-path="url(#clip-Splash)">
    <rect width="375" height="812" fill="#fff"/>
    <g id="Textura_Fondo" data-name="Textura/Fondo" transform="translate(-268.759 -116.68)" opacity="0.2">
      <g id="Grupo_141" data-name="Grupo 141" transform="translate(187.582 -38.286) rotate(16)">
        <path id="Trazado_48" data-name="Trazado 48" stroke="#4889ff" d="M242.723,993.182C61.15,690.34,525.88,555.361.5,156.65" fill="none" transform="translate(-0.5 -44.601)" stroke-linecap="round" stroke-linejoin="round" stroke-miterlimit="10" stroke-width="1" stroke-dasharray="1 11"/>
        <path id="Trazado_49" data-name="Trazado 49" stroke="#4889ff" d="M251.686,991.145C59.686,677.87,524.94,543.056,15.37,152.72" fill="none" transform="translate(-1.71 -44.282)" stroke-linecap="round" stroke-linejoin="round" stroke-miterlimit="10" stroke-width="1.064" stroke-dasharray="1 11"/>
        <path id="Trazado_50" data-name="Trazado 50" stroke="#4889ff" d="M260.658,989.1C58.241,665.394,524,530.753,30.24,148.78" fill="none" transform="translate(-2.919 -43.961)" stroke-linecap="round" stroke-linejoin="round" stroke-miterlimit="10" stroke-width="1.129" stroke-dasharray="1 11"/>
        <path id="Trazado_51" data-name="Trazado 51" stroke="#4889ff" d="M269.621,987.059C56.786,652.93,523.06,518.454,45.11,144.84" fill="none" transform="translate(-4.129 -43.641)" stroke-linecap="round" stroke-linejoin="round" stroke-miterlimit="10" stroke-width="1.194" stroke-dasharray="1 11"/>
        <path id="Trazado_52" data-name="Trazado 52" stroke="#4889ff" d="M278.594,985.021C55.332,640.471,522.13,506.168,59.99,140.91" fill="none" transform="translate(-5.339 -43.321)" stroke-linecap="round" stroke-linejoin="round" stroke-miterlimit="10" stroke-width="1.258" stroke-dasharray="1 11"/>
        <path id="Trazado_53" data-name="Trazado 53" stroke="#4889ff" d="M287.557,982.975C53.878,628.006,521.19,493.876,74.86,136.98" fill="none" transform="translate(-6.549 -43.001)" stroke-linecap="round" stroke-linejoin="round" stroke-miterlimit="10" stroke-width="1.323" stroke-dasharray="1 11"/>
        <path id="Trazado_54" data-name="Trazado 54" stroke="#4889ff" d="M296.529,980.936C52.423,615.553,520.25,481.587,89.73,133.04" fill="none" transform="translate(-7.758 -42.681)" stroke-linecap="round" stroke-linejoin="round" stroke-miterlimit="10" stroke-width="1.387" stroke-dasharray="1 11"/>
        <path id="Trazado_55" data-name="Trazado 55" stroke="#4889ff" d="M305.492,978.9C50.969,603.1,519.31,469.3,104.6,129.11" fill="none" transform="translate(-8.968 -42.361)" stroke-linecap="round" stroke-linejoin="round" stroke-miterlimit="10" stroke-width="1.452" stroke-dasharray="1 11"/>
        <path id="Trazado_56" data-name="Trazado 56" stroke="#4889ff" d="M314.464,976.86C49.505,590.658,518.37,457.019,119.47,125.17" fill="none" transform="translate(-10.177 -42.041)" stroke-linecap="round" stroke-linejoin="round" stroke-miterlimit="10" stroke-width="1.516" stroke-dasharray="1 11"/>
        <path id="Trazado_57" data-name="Trazado 57" stroke="#4889ff" d="M323.427,974.814C48.05,578.207,517.429,444.74,134.34,121.24" fill="none" transform="translate(-11.387 -41.721)" stroke-linecap="round" stroke-linejoin="round" stroke-miterlimit="10" stroke-width="1.581" stroke-dasharray="1 11"/>
        <path id="Trazado_58" data-name="Trazado 58" stroke="#4889ff" d="M332.4,972.775C46.6,565.768,516.49,432.464,149.22,117.3" fill="none" transform="translate(-12.597 -41.4)" stroke-linecap="round" stroke-linejoin="round" stroke-miterlimit="10" stroke-width="1.645" stroke-dasharray="1 11"/>
        <path id="Trazado_59" data-name="Trazado 59" stroke="#4889ff" d="M341.363,970.738C45.142,553.333,515.55,420.192,164.09,113.37" fill="none" transform="translate(-13.807 -41.081)" stroke-linecap="round" stroke-linejoin="round" stroke-miterlimit="10" stroke-width="1.71" stroke-dasharray="1 11"/>
        <path id="Trazado_60" data-name="Trazado 60" stroke="#4889ff" d="M350.336,968.69C43.688,540.891,514.61,407.932,178.96,109.43" fill="none" transform="translate(-15.016 -40.76)" stroke-linecap="round" stroke-linejoin="round" stroke-miterlimit="10" stroke-width="1.774" stroke-dasharray="1 11"/>
        <path id="Trazado_61" data-name="Trazado 61" stroke="#4889ff" d="M359.3,966.652C42.233,528.462,513.67,395.666,193.83,105.5" fill="none" transform="translate(-16.226 -40.441)" stroke-linecap="round" stroke-linejoin="round" stroke-miterlimit="10" stroke-width="1.839" stroke-dasharray="1 11"/>
        <path id="Trazado_62" data-name="Trazado 62" stroke="#4889ff" d="M368.271,964.615C40.779,516.037,512.739,383.4,208.7,101.57" fill="none" transform="translate(-17.435 -40.121)" stroke-linecap="round" stroke-linejoin="round" stroke-miterlimit="10" stroke-width="1.903" stroke-dasharray="1 11"/>
        <path id="Trazado_63" data-name="Trazado 63" stroke="#4889ff" d="M377.234,962.567C39.324,503.605,511.8,371.143,223.57,97.63" fill="none" transform="translate(-18.645 -39.8)" stroke-linecap="round" stroke-linejoin="round" stroke-miterlimit="10" stroke-width="1.968" stroke-dasharray="1 11"/>
        <path id="Trazado_64" data-name="Trazado 64" stroke="#4889ff" d="M386.207,960.53C37.87,491.187,510.86,358.886,238.45,93.7" fill="none" transform="translate(-19.855 -39.481)" stroke-linecap="round" stroke-linejoin="round" stroke-miterlimit="10" stroke-width="2.032" stroke-dasharray="1 11"/>
        <path id="Trazado_65" data-name="Trazado 65" stroke="#4889ff" d="M395.17,958.492C36.416,478.771,509.919,346.632,253.32,89.76" fill="none" transform="translate(-21.065 -39.16)" stroke-linecap="round" stroke-linejoin="round" stroke-miterlimit="10" stroke-width="2.097" stroke-dasharray="1 11"/>
        <path id="Trazado_66" data-name="Trazado 66" stroke="#4889ff" d="M403.191,956.445C34.01,466.359,508.029,334.382,267.239,85.83" fill="none" transform="translate(-21.324 -38.841)" stroke-linecap="round" stroke-linejoin="round" stroke-miterlimit="10" stroke-width="2.161" stroke-dasharray="1 11"/>
        <path id="Trazado_67" data-name="Trazado 67" stroke="#4889ff" d="M411.067,954.406C31.468,453.94,506,322.134,281.022,81.89" fill="none" transform="translate(-21.446 -38.52)" stroke-linecap="round" stroke-linejoin="round" stroke-miterlimit="10" stroke-width="2.226" stroke-dasharray="1 11"/>
        <path id="Trazado_68" data-name="Trazado 68" stroke="#4889ff" d="M418.948,952.369C28.923,441.534,503.97,309.9,294.8,77.96" fill="none" transform="translate(-21.564 -38.2)" stroke-linecap="round" stroke-linejoin="round" stroke-miterlimit="10" stroke-width="2.29" stroke-dasharray="1 11"/>
        <path id="Trazado_69" data-name="Trazado 69" stroke="#4889ff" d="M426.816,950.322C26.373,429.132,501.935,297.658,308.576,74.03" fill="none" transform="translate(-21.679 -37.881)" stroke-linecap="round" stroke-linejoin="round" stroke-miterlimit="10" stroke-width="2.355" stroke-dasharray="1 11"/>
        <path id="Trazado_70" data-name="Trazado 70" stroke="#4889ff" d="M434.691,948.284C23.821,416.722,499.9,285.419,322.357,70.09" fill="none" transform="translate(-21.791 -37.56)" stroke-linecap="round" stroke-linejoin="round" stroke-miterlimit="10" stroke-width="2.419" stroke-dasharray="1 11"/>
        <path id="Trazado_71" data-name="Trazado 71" stroke="#4889ff" d="M442.553,946.246C21.265,404.326,497.856,273.183,336.126,66.16" fill="none" transform="translate(-21.899 -37.241)" stroke-linecap="round" stroke-linejoin="round" stroke-miterlimit="10" stroke-width="2.484" stroke-dasharray="1 11"/>
        <path id="Trazado_72" data-name="Trazado 72" stroke="#4889ff" d="M450.422,944.208C18.708,391.932,495.822,260.95,349.893,62.22" fill="none" transform="translate(-22.006 -36.92)" stroke-linecap="round" stroke-linejoin="round" stroke-miterlimit="10" stroke-width="2.548" stroke-dasharray="1 11"/>
        <path id="Trazado_73" data-name="Trazado 73" stroke="#4889ff" d="M458.278,942.161C16.137,379.532,493.766,248.721,363.656,58.29" fill="none" transform="translate(-22.109 -36.6)" stroke-linecap="round" stroke-linejoin="round" stroke-miterlimit="10" stroke-width="2.613" stroke-dasharray="1 11"/>
        <path id="Trazado_74" data-name="Trazado 74" stroke="#4889ff" d="M466.143,940.123C13.584,367.145,491.727,236.493,377.419,54.35" fill="none" transform="translate(-22.21 -36.28)" stroke-linecap="round" stroke-linejoin="round" stroke-miterlimit="10" stroke-width="2.677" stroke-dasharray="1 11"/>
        <path id="Trazado_75" data-name="Trazado 75" stroke="#4889ff" d="M473.995,938.085C11.009,354.76,489.676,224.279,391.178,50.42" fill="none" transform="translate(-22.309 -35.96)" stroke-linecap="round" stroke-linejoin="round" stroke-miterlimit="10" stroke-width="2.742" stroke-dasharray="1 11"/>
        <path id="Trazado_76" data-name="Trazado 76" stroke="#4889ff" d="M481.855,936.037c-473.4-593.668,5.769-723.989-76.91-889.557" fill="none" transform="translate(-22.406 -35.64)" stroke-linecap="round" stroke-linejoin="round" stroke-miterlimit="10" stroke-width="2.806" stroke-dasharray="1 11"/>
        <path id="Trazado_77" data-name="Trazado 77" stroke="#4889ff" d="M489.7,934C5.874,329.991,485.569,199.84,418.691,42.55" fill="none" transform="translate(-22.501 -35.32)" stroke-linecap="round" stroke-linejoin="round" stroke-miterlimit="10" stroke-width="2.871" stroke-dasharray="1 11"/>
        <path id="Trazado_78" data-name="Trazado 78" stroke="#4889ff" d="M497.559,931.962C3.3,317.616,483.513,187.624,432.454,38.62" fill="none" transform="translate(-22.595 -35)" stroke-linecap="round" stroke-linejoin="round" stroke-miterlimit="10" stroke-width="2.935" stroke-dasharray="1 11"/>
        <path id="Trazado_79" data-name="Trazado 79" stroke="#4889ff" d="M505.4,929.915C.731,305.234,481.455,175.411,446.206,34.68" fill="none" transform="translate(-22.687 -34.68)" stroke-linecap="round" stroke-linejoin="round" stroke-miterlimit="10" stroke-width="3" stroke-dasharray="1 11"/>
      </g>
      <g id="Grupo_142" data-name="Grupo 142" transform="translate(293.49 0.12)">
        <path id="Trazado_80" data-name="Trazado 80" d="M318.266,1067.657C177.72,769.338,982.419,737.706,281.06,80.74" transform="translate(-281.06 -6.678)" fill="none" stroke="#4889ff" stroke-linecap="round" stroke-linejoin="round" stroke-miterlimit="10" stroke-width="1"/>
        <path id="Trazado_81" data-name="Trazado 81" d="M330.895,1066.738C168.081,758.762,976.114,719.278,297.07,78.14" transform="translate(-282.362 -6.466)" fill="none" stroke="#4889ff" stroke-linecap="round" stroke-linejoin="round" stroke-miterlimit="10" stroke-width="0.976"/>
        <path id="Trazado_82" data-name="Trazado 82" d="M343.524,1065.828C158.442,748.2,969.8,700.864,313.08,75.54" transform="translate(-283.665 -6.255)" fill="none" stroke="#4889ff" stroke-linecap="round" stroke-linejoin="round" stroke-miterlimit="10" stroke-width="0.952"/>
        <path id="Trazado_83" data-name="Trazado 83" d="M355.471,1064.909C148.121,737.627,962.814,682.445,328.408,72.94" transform="translate(-284.285 -6.043)" fill="none" stroke="#4889ff" stroke-linecap="round" stroke-linejoin="round" stroke-miterlimit="10" stroke-width="0.927"/>
        <path id="Trazado_84" data-name="Trazado 84" d="M367.162,1063.991C137.553,727.067,955.581,664.039,343.488,70.34" transform="translate(-284.657 -5.832)" fill="none" stroke="#4889ff" stroke-linecap="round" stroke-linejoin="round" stroke-miterlimit="10" stroke-width="0.903"/>
        <path id="Trazado_85" data-name="Trazado 85" d="M378.817,1063.081C126.949,716.5,948.293,645.627,358.524,67.74" transform="translate(-284.986 -5.62)" fill="none" stroke="#4889ff" stroke-linecap="round" stroke-linejoin="round" stroke-miterlimit="10" stroke-width="0.879"/>
        <path id="Trazado_86" data-name="Trazado 86" d="M390.43,1062.162C116.293,705.945,940.972,627.229,373.517,65.14" transform="translate(-285.271 -5.409)" fill="none" stroke="#4889ff" stroke-linecap="round" stroke-linejoin="round" stroke-miterlimit="10" stroke-width="0.855"/>
        <path id="Trazado_87" data-name="Trazado 87" d="M402,1061.252C105.6,695.381,933.6,608.825,388.471,62.54" transform="translate(-285.517 -5.197)" fill="none" stroke="#4889ff" stroke-linecap="round" stroke-linejoin="round" stroke-miterlimit="10" stroke-width="0.831"/>
        <path id="Trazado_88" data-name="Trazado 88" d="M413.538,1060.334C94.865,684.83,926.2,590.435,403.387,59.94" transform="translate(-285.726 -4.986)" fill="none" stroke="#4889ff" stroke-linecap="round" stroke-linejoin="round" stroke-miterlimit="10" stroke-width="0.807"/>
        <path id="Trazado_89" data-name="Trazado 89" d="M425.039,1059.415C84.1,674.272,918.763,572.048,418.269,57.34" transform="translate(-285.9 -4.774)" fill="none" stroke="#4889ff" stroke-linecap="round" stroke-linejoin="round" stroke-miterlimit="10" stroke-width="0.782"/>
        <path id="Trazado_90" data-name="Trazado 90" d="M436.508,1058.505C73.3,663.724,911.3,553.655,433.109,54.74" transform="translate(-286.041 -4.563)" fill="none" stroke="#4889ff" stroke-linecap="round" stroke-linejoin="round" stroke-miterlimit="10" stroke-width="0.758"/>
        <path id="Trazado_91" data-name="Trazado 91" d="M447.937,1057.585C62.478,653.169,903.794,535.276,447.928,52.13" transform="translate(-286.152 -4.351)" fill="none" stroke="#4889ff" stroke-linecap="round" stroke-linejoin="round" stroke-miterlimit="10" stroke-width="0.734"/>
        <path id="Trazado_92" data-name="Trazado 92" d="M459.347,1056.667C51.61,642.616,896.261,516.891,462.718,49.53" transform="translate(-286.235 -4.139)" fill="none" stroke="#4889ff" stroke-linecap="round" stroke-linejoin="round" stroke-miterlimit="10" stroke-width="0.71"/>
        <path id="Trazado_93" data-name="Trazado 93" d="M470.731,1055.757c-430-423.682,417.98-557.238,6.752-1008.827" transform="translate(-286.292 -3.928)" fill="none" stroke="#4889ff" stroke-linecap="round" stroke-linejoin="round" stroke-miterlimit="10" stroke-width="0.686"/>
        <path id="Trazado_94" data-name="Trazado 94" d="M482.091,1054.838C29.826,621.536,881.137,480.142,492.224,44.33" transform="translate(-286.325 -3.716)" fill="none" stroke="#4889ff" stroke-linecap="round" stroke-linejoin="round" stroke-miterlimit="10" stroke-width="0.661"/>
        <path id="Trazado_95" data-name="Trazado 95" d="M493.428,1053.928C18.895,610.989,873.531,461.778,506.941,41.73" transform="translate(-286.335 -3.505)" fill="none" stroke="#4889ff" stroke-linecap="round" stroke-linejoin="round" stroke-miterlimit="10" stroke-width="0.637"/>
        <path id="Trazado_96" data-name="Trazado 96" d="M504.743,1053.01c-496.8-452.555,361.17-609.6,16.894-1013.88" transform="translate(-286.323 -3.293)" fill="none" stroke="#4889ff" stroke-linecap="round" stroke-linejoin="round" stroke-miterlimit="10" stroke-width="0.613"/>
        <path id="Trazado_97" data-name="Trazado 97" d="M516.039,1052.091C-3.021,589.912,858.267,425.051,536.314,36.53" transform="translate(-286.292 -3.082)" fill="none" stroke="#4889ff" stroke-linecap="round" stroke-linejoin="round" stroke-miterlimit="10" stroke-width="0.589"/>
        <path id="Trazado_98" data-name="Trazado 98" d="M527.307,1051.181C-14.012,579.38,850.611,406.688,550.972,33.93" transform="translate(-286.242 -2.87)" fill="none" stroke="#4889ff" stroke-linecap="round" stroke-linejoin="round" stroke-miterlimit="10" stroke-width="0.564"/>
        <path id="Trazado_99" data-name="Trazado 99" d="M538.568,1050.262C-25.02,568.842,842.928,388.338,565.613,31.33" transform="translate(-286.176 -2.659)" fill="none" stroke="#4889ff" stroke-linecap="round" stroke-linejoin="round" stroke-miterlimit="10" stroke-width="0.54"/>
        <path id="Trazado_100" data-name="Trazado 100" d="M549.813,1049.343C-36.043,558.315,835.24,369.983,580.238,28.73" transform="translate(-286.093 -2.447)" fill="none" stroke="#4889ff" stroke-linecap="round" stroke-linejoin="round" stroke-miterlimit="10" stroke-width="0.516"/>
        <path id="Trazado_101" data-name="Trazado 101" d="M561.042,1048.433C-47.082,547.779,827.526,351.64,594.849,26.13" transform="translate(-285.996 -2.236)" fill="none" stroke="#4889ff" stroke-linecap="round" stroke-linejoin="round" stroke-miterlimit="10" stroke-width="0.492"/>
        <path id="Trazado_102" data-name="Trazado 102" d="M572.259,1047.515C-58.124,537.246,819.809,333.292,609.446,23.53" transform="translate(-285.885 -2.024)" fill="none" stroke="#4889ff" stroke-linecap="round" stroke-linejoin="round" stroke-miterlimit="10" stroke-width="0.468"/>
        <path id="Trazado_103" data-name="Trazado 103" d="M583.462,1046.6C-69.189,526.725,812.07,314.957,624.021,20.93" transform="translate(-285.762 -1.813)" fill="none" stroke="#4889ff" stroke-linecap="round" stroke-linejoin="round" stroke-miterlimit="10" stroke-width="0.444"/>
        <path id="Trazado_104" data-name="Trazado 104" d="M594.653,1045.686C-80.266,516.2,804.328,296.625,638.593,18.33" transform="translate(-285.626 -1.601)" fill="none" stroke="#4889ff" stroke-linecap="round" stroke-linejoin="round" stroke-miterlimit="10" stroke-width="0.419"/>
        <path id="Trazado_105" data-name="Trazado 105" d="M605.824,1044.767C-91.364,505.678,796.564,278.287,653.153,15.73" transform="translate(-285.478 -1.39)" fill="none" stroke="#4889ff" stroke-linecap="round" stroke-linejoin="round" stroke-miterlimit="10" stroke-width="0.395"/>
        <path id="Trazado_106" data-name="Trazado 106" d="M616.994,1043.858C-102.453,495.153,788.8,259.963,667.7,13.13" transform="translate(-285.322 -1.178)" fill="none" stroke="#4889ff" stroke-linecap="round" stroke-linejoin="round" stroke-miterlimit="10" stroke-width="0.371"/>
        <path id="Trazado_107" data-name="Trazado 107" d="M628.154,1042.939C-113.561,484.639,781.019,241.632,682.245,10.53" transform="translate(-285.155 -0.967)" fill="none" stroke="#4889ff" stroke-linecap="round" stroke-linejoin="round" stroke-miterlimit="10" stroke-width="0.347"/>
        <path id="Trazado_108" data-name="Trazado 108" d="M639.305,1042.019C-124.678,474.117,773.236,223.3,696.776,7.92" transform="translate(-284.979 -0.754)" fill="none" stroke="#4889ff" stroke-linecap="round" stroke-linejoin="round" stroke-miterlimit="10" stroke-width="0.323"/>
        <path id="Trazado_109" data-name="Trazado 109" d="M650.449,1041.11c-786.242-577.5,115-836.12,60.852-1035.78" transform="translate(-284.795 -0.544)" fill="none" stroke="#4889ff" stroke-linecap="round" stroke-linejoin="round" stroke-miterlimit="10" stroke-width="0.298"/>
        <path id="Trazado_110" data-name="Trazado 110" d="M661.583,1040.191C-146.927,453.089,757.638,186.679,725.816,2.73" transform="translate(-284.603 -0.332)" fill="none" stroke="#4889ff" stroke-linecap="round" stroke-linejoin="round" stroke-miterlimit="10" stroke-width="0.274"/>
        <path id="Trazado_111" data-name="Trazado 111" d="M672.711,1039.272C-158.068,442.573,749.833,168.362,740.324.12" transform="translate(-284.404 -0.12)" fill="none" stroke="#4889ff" stroke-linecap="round" stroke-linejoin="round" stroke-miterlimit="10" stroke-width="0.25"/>
      </g>
      <g id="Grupo_143" data-name="Grupo 143" transform="matrix(0.996, -0.087, 0.087, 0.996, 259.378, 130.184)">
        <path id="Trazado_112" data-name="Trazado 112" stroke="#4889ff" d="M738.377,108.6c109.77,327.023-143.568,347.817,59.9,845.967" fill="none" transform="translate(-320.929 -75.482)" stroke-linecap="round" stroke-linejoin="round" stroke-miterlimit="10" stroke-width="3" stroke-dasharray="1 11"/>
        <path id="Trazado_113" data-name="Trazado 113" stroke="#4889ff" d="M729.179,107.43C848.127,444.3,585.152,468.85,782.057,955.336" fill="none" transform="translate(-320.11 -75.387)" stroke-linecap="round" stroke-linejoin="round" stroke-miterlimit="10" stroke-width="2.935" stroke-dasharray="1 11"/>
        <path id="Trazado_114" data-name="Trazado 114" stroke="#4889ff" d="M719.955,106.27c128.116,346.7-144.5,375.008,45.859,849.844" fill="none" transform="translate(-319.264 -75.293)" stroke-linecap="round" stroke-linejoin="round" stroke-miterlimit="10" stroke-width="2.871" stroke-dasharray="1 11"/>
        <path id="Trazado_115" data-name="Trazado 115" stroke="#4889ff" d="M710.7,105.11C847.989,461.65,565.74,493.7,749.536,956.892" fill="none" transform="translate(-318.392 -75.198)" stroke-linecap="round" stroke-linejoin="round" stroke-miterlimit="10" stroke-width="2.806" stroke-dasharray="1 11"/>
        <path id="Trazado_116" data-name="Trazado 116" stroke="#4889ff" d="M701.421,103.94C847.891,470.3,556.006,506.121,733.243,957.661" fill="none" transform="translate(-317.495 -75.103)" stroke-linecap="round" stroke-linejoin="round" stroke-miterlimit="10" stroke-width="2.742" stroke-dasharray="1 11"/>
        <path id="Trazado_117" data-name="Trazado 117" stroke="#4889ff" d="M692.121,102.78c155.648,376.191-145.883,415.755,24.8,855.659" fill="none" transform="translate(-316.573 -75.009)" stroke-linecap="round" stroke-linejoin="round" stroke-miterlimit="10" stroke-width="2.677" stroke-dasharray="1 11"/>
        <path id="Trazado_118" data-name="Trazado 118" stroke="#4889ff" d="M682.787,101.62c164.826,386.017-146.342,429.335,17.794,857.6" fill="none" transform="translate(-315.627 -74.915)" stroke-linecap="round" stroke-linejoin="round" stroke-miterlimit="10" stroke-width="2.613" stroke-dasharray="1 11"/>
        <path id="Trazado_119" data-name="Trazado 119" stroke="#4889ff" d="M673.44,100.46c174,395.84-146.8,442.9,10.776,859.536" fill="none" transform="translate(-314.658 -74.82)" stroke-linecap="round" stroke-linejoin="round" stroke-miterlimit="10" stroke-width="2.548" stroke-dasharray="1 11"/>
        <path id="Trazado_120" data-name="Trazado 120" stroke="#4889ff" d="M664.069,99.29c183.18,405.648-147.27,456.46,3.757,861.483" fill="none" transform="translate(-313.665 -74.725)" stroke-linecap="round" stroke-linejoin="round" stroke-miterlimit="10" stroke-width="2.484" stroke-dasharray="1 11"/>
        <path id="Trazado_121" data-name="Trazado 121" stroke="#4889ff" d="M654.667,98.13c192.358,415.464-147.729,470.026-3.261,863.422" fill="none" transform="translate(-312.651 -74.631)" stroke-linecap="round" stroke-linejoin="round" stroke-miterlimit="10" stroke-width="2.419" stroke-dasharray="1 11"/>
        <path id="Trazado_122" data-name="Trazado 122" stroke="#4889ff" d="M645.252,96.97c201.535,425.277-148.2,483.577-10.28,865.36" fill="none" transform="translate(-311.614 -74.536)" stroke-linecap="round" stroke-linejoin="round" stroke-miterlimit="10" stroke-width="2.355" stroke-dasharray="1 11"/>
        <path id="Trazado_123" data-name="Trazado 123" stroke="#4889ff" d="M635.817,95.8c210.713,435.077-148.657,497.135-17.3,867.3" fill="none" transform="translate(-310.557 -74.441)" stroke-linecap="round" stroke-linejoin="round" stroke-miterlimit="10" stroke-width="2.29" stroke-dasharray="1 11"/>
        <path id="Trazado_124" data-name="Trazado 124" stroke="#4889ff" d="M626.362,94.64c219.89,444.883-149.117,510.677-24.317,869.237" fill="none" transform="translate(-309.48 -74.347)" stroke-linecap="round" stroke-linejoin="round" stroke-miterlimit="10" stroke-width="2.226" stroke-dasharray="1 11"/>
        <path id="Trazado_125" data-name="Trazado 125" stroke="#4889ff" d="M616.877,93.48C845.944,548.167,467.292,617.7,585.551,964.655" fill="none" transform="translate(-308.382 -74.252)" stroke-linecap="round" stroke-linejoin="round" stroke-miterlimit="10" stroke-width="2.161" stroke-dasharray="1 11"/>
        <path id="Trazado_126" data-name="Trazado 126" stroke="#4889ff" d="M607.383,92.32c238.245,464.487-150.044,537.759-38.345,873.113" fill="none" transform="translate(-307.266 -74.158)" stroke-linecap="round" stroke-linejoin="round" stroke-miterlimit="10" stroke-width="2.097" stroke-dasharray="1 11"/>
        <path id="Trazado_127" data-name="Trazado 127" stroke="#4889ff" d="M597.87,91.15c247.413,474.275-150.5,551.289-45.363,875.052" fill="none" transform="translate(-306.132 -74.063)" stroke-linecap="round" stroke-linejoin="round" stroke-miterlimit="10" stroke-width="2.032" stroke-dasharray="1 11"/>
        <path id="Trazado_128" data-name="Trazado 128" stroke="#4889ff" d="M588.33,89.99c256.59,484.069-150.972,564.825-52.382,876.99" fill="none" transform="translate(-304.979 -73.969)" stroke-linecap="round" stroke-linejoin="round" stroke-miterlimit="10" stroke-width="1.968" stroke-dasharray="1 11"/>
        <path id="Trazado_129" data-name="Trazado 129" stroke="#4889ff" d="M578.782,88.83c265.768,493.86-151.432,578.345-59.4,878.938" fill="none" transform="translate(-303.809 -73.874)" stroke-linecap="round" stroke-linejoin="round" stroke-miterlimit="10" stroke-width="1.903" stroke-dasharray="1 11"/>
        <path id="Trazado_130" data-name="Trazado 130" stroke="#4889ff" d="M569.218,87.66C844.163,591.308,417.327,679.522,502.8,968.536" fill="none" transform="translate(-302.623 -73.779)" stroke-linecap="round" stroke-linejoin="round" stroke-miterlimit="10" stroke-width="1.839" stroke-dasharray="1 11"/>
        <path id="Trazado_131" data-name="Trazado 131" stroke="#4889ff" d="M559.638,86.5C843.76,599.923,407.278,691.885,486.2,969.314" fill="none" transform="translate(-301.421 -73.685)" stroke-linecap="round" stroke-linejoin="round" stroke-miterlimit="10" stroke-width="1.774" stroke-dasharray="1 11"/>
        <path id="Trazado_132" data-name="Trazado 132" stroke="#4889ff" d="M550.032,85.34c293.3,523.205-152.819,618.894-80.447,884.753" fill="none" transform="translate(-300.203 -73.59)" stroke-linecap="round" stroke-linejoin="round" stroke-miterlimit="10" stroke-width="1.71" stroke-dasharray="1 11"/>
        <path id="Trazado_133" data-name="Trazado 133" stroke="#4889ff" d="M540.422,84.18C842.9,617.165,387.143,716.588,452.956,970.871" fill="none" transform="translate(-298.97 -73.496)" stroke-linecap="round" stroke-linejoin="round" stroke-miterlimit="10" stroke-width="1.645" stroke-dasharray="1 11"/>
        <path id="Trazado_134" data-name="Trazado 134" stroke="#4889ff" d="M530.8,83.01C842.45,625.771,377.049,728.918,436.3,971.649" fill="none" transform="translate(-297.723 -73.401)" stroke-linecap="round" stroke-linejoin="round" stroke-miterlimit="10" stroke-width="1.581" stroke-dasharray="1 11"/>
        <path id="Trazado_135" data-name="Trazado 135" stroke="#4889ff" d="M521.147,81.85c320.832,552.525-154.206,659.4-101.5,890.568" fill="none" transform="translate(-296.461 -73.306)" stroke-linecap="round" stroke-linejoin="round" stroke-miterlimit="10" stroke-width="1.516" stroke-dasharray="1 11"/>
        <path id="Trazado_136" data-name="Trazado 136" stroke="#4889ff" d="M511.494,80.69C841.5,642.985,356.819,753.6,402.973,973.2" fill="none" transform="translate(-295.186 -73.212)" stroke-linecap="round" stroke-linejoin="round" stroke-miterlimit="10" stroke-width="1.452" stroke-dasharray="1 11"/>
        <path id="Trazado_137" data-name="Trazado 137" stroke="#4889ff" d="M501.828,79.53c339.187,572.063-155.134,686.394-115.54,894.454" fill="none" transform="translate(-293.899 -73.118)" stroke-linecap="round" stroke-linejoin="round" stroke-miterlimit="10" stroke-width="1.387" stroke-dasharray="1 11"/>
        <path id="Trazado_138" data-name="Trazado 138" stroke="#4889ff" d="M492.139,78.36C840.5,660.178,336.546,778.248,369.581,974.752" fill="none" transform="translate(-292.597 -73.023)" stroke-linecap="round" stroke-linejoin="round" stroke-miterlimit="10" stroke-width="1.323" stroke-dasharray="1 11"/>
        <path id="Trazado_139" data-name="Trazado 139" stroke="#4889ff" d="M482.449,77.2C839.991,668.78,326.388,790.569,352.882,975.531" fill="none" transform="translate(-291.285 -72.928)" stroke-linecap="round" stroke-linejoin="round" stroke-miterlimit="10" stroke-width="1.258" stroke-dasharray="1 11"/>
        <path id="Trazado_140" data-name="Trazado 140" stroke="#4889ff" d="M472.747,76.04c366.71,601.339-156.521,726.845-136.586,900.269" fill="none" transform="translate(-289.961 -72.834)" stroke-linecap="round" stroke-linejoin="round" stroke-miterlimit="10" stroke-width="1.194" stroke-dasharray="1 11"/>
        <path id="Trazado_141" data-name="Trazado 141" stroke="#4889ff" d="M463.032,74.87C838.919,685.966,306.042,815.2,319.418,977.077" fill="none" transform="translate(-288.625 -72.739)" stroke-linecap="round" stroke-linejoin="round" stroke-miterlimit="10" stroke-width="1.129" stroke-dasharray="1 11"/>
        <path id="Trazado_142" data-name="Trazado 142" stroke="#4889ff" d="M453.3,73.71c385.074,620.84-157.44,753.8-150.623,904.146" fill="none" transform="translate(-287.277 -72.644)" stroke-linecap="round" stroke-linejoin="round" stroke-miterlimit="10" stroke-width="1.064" stroke-dasharray="1 11"/>
        <path id="Trazado_143" data-name="Trazado 143" stroke="#4889ff" d="M443.562,72.55C837.8,703.141,285.654,839.82,285.92,978.634" fill="none" transform="translate(-285.92 -72.55)" stroke-linecap="round" stroke-linejoin="round" stroke-miterlimit="10" stroke-width="1" stroke-dasharray="1 11"/>
      </g>
    </g>
    <g id="Icono_Fill_Smart" data-name="Icono Fill Smart" transform="translate(-4283.463 147.692)">
      <text id="FILL_SMART" data-name="FILL
SMART" transform="translate(4449.463 254.308)" fill="#4889ff" font-size="31" font-family="LibreFranklin-Bold, Libre Franklin" font-weight="700"><tspan x="0" y="0">FILL</tspan><tspan x="0" y="31">SMART</tspan></text>
      <rect id="Rectángulo" width="2" height="63" rx="1" transform="translate(4437.463 227.308)" fill="#4889ff"/>
      <g id="Icono" transform="translate(4342.463 -527.587)">
        <path id="Trazado_7" data-name="Trazado 7" d="M495.518,118.712l-7-3.51a1.752,1.752,0,1,0-1.554,3.14l2.666,1.331a1.773,1.773,0,0,0-.163.609,5.645,5.645,0,0,0,3.469,4.943V146.61a1.755,1.755,0,1,1-3.51,0V132.569c0-4.238-3.511-7.783-7.021-8.6V113.261a6.936,6.936,0,0,0-6.937-7H454.4a7.079,7.079,0,0,0-7.1,7v39.285l-2.541,1.27a1.755,1.755,0,0,0-.97,1.57v5.266a1.851,1.851,0,0,0,1.839,1.781h38.615a1.708,1.708,0,0,0,1.671-1.781v-5.266a1.755,1.755,0,0,0-.97-1.57l-2.54-1.27v-24.92a5.682,5.682,0,0,1,3.51,4.942V146.61a5.266,5.266,0,1,0,10.532,0V120.282a1.717,1.717,0,0,0-.928-1.57m-13.113,40.211H447.3v-2.451l2.54-1.27a1.755,1.755,0,0,0,.97-1.57v-40.37a3.565,3.565,0,0,1,3.594-3.484h21.063a3.421,3.421,0,0,1,3.426,3.484v40.37a1.755,1.755,0,0,0,.97,1.57l2.541,1.27Z" transform="translate(-410.934 651.973)" fill="#4889ff"/>
        <path id="Trazado_17" data-name="Trazado 17" d="M343.872,142.148v-8.011a4.95,4.95,0,0,1,2.435,1.576,1.993,1.993,0,0,0,2.4.4,1.26,1.26,0,0,0,.5-1.955,8.7,8.7,0,0,0-5.335-2.953v-2.241a1.775,1.775,0,0,0-3.474,0V131.2c-3.844.651-6.739,3.425-6.739,6.738s2.9,6.086,6.739,6.738v8.01a4.955,4.955,0,0,1-2.436-1.576,1.99,1.99,0,0,0-2.4-.4,1.258,1.258,0,0,0-.5,1.954,8.705,8.705,0,0,0,5.335,2.953v2.241a1.775,1.775,0,0,0,3.474,0v-2.237c3.843-.651,6.739-3.424,6.739-6.737s-2.9-6.088-6.739-6.738m-6.739-4.206a4.2,4.2,0,0,1,3.265-3.805v7.609a4.2,4.2,0,0,1-3.265-3.8m6.739,14.748v-7.609a3.849,3.849,0,0,1,0,7.609" transform="translate(-287.762 642.32)" fill="#4889ff"/>
      </g>
    </g>
  </g>
</svg>
